<svg class="rich-terminal" viewBox="0 0 1238 782.0" xmlns="http://www.w3.org/2000/svg">
    <!-- Generated with Rich https://www.textualize.io -->
    <style>

    @font-face {
        font-family: "Fira Code";
        src: local("FiraCode-Regular"),
                url("https://cdnjs.cloudflare.com/ajax/libs/firacode/6.2.0/woff2/FiraCode-Regular.woff2") format("woff2"),
                url("https://cdnjs.cloudflare.com/ajax/libs/firacode/6.2.0/woff/FiraCode-Regular.woff") format("woff");
        font-style: normal;
        font-weight: 400;
    }
    @font-face {
        font-family: "Fira Code";
        src: local("FiraCode-Bold"),
                url("https://cdnjs.cloudflare.com/ajax/libs/firacode/6.2.0/woff2/FiraCode-Bold.woff2") format("woff2"),
                url("https://cdnjs.cloudflare.com/ajax/libs/firacode/6.2.0/woff/FiraCode-Bold.woff") format("woff");
        font-style: bold;
        font-weight: 700;
    }

    .terminal-767544385-matrix {
        font-family: Fira Code, monospace;
        font-size: 20px;
        line-height: 24.4px;
        font-variant-east-asian: full-width;
    }

    .terminal-767544385-title {
        font-size: 18px;
        font-weight: bold;
        font-family: arial;
    }

    .terminal-767544385-r1 { fill: #253046 }
.terminal-767544385-r2 { fill: #c5c8c6 }
.terminal-767544385-r3 { fill: #a78bfa;font-weight: bold }
.terminal-767544385-r4 { fill: #1c2539 }
.terminal-767544385-r5 { fill: #9da0a5 }
.terminal-767544385-r6 { fill: #34d399 }
.terminal-767544385-r7 { fill: #e5e7eb;font-weight: bold }
.terminal-767544385-r8 { fill: #1f2937 }
.terminal-767544385-r9 { fill: #9fa2a9 }
.terminal-767544385-r10 { fill: #e5e7eb }
    </style>

    <defs>
    <clipPath id="terminal-767544385-clip-terminal">
      <rect x="0" y="0" width="1219.0" height="731.0" />
    </clipPath>
    <clipPath id="terminal-767544385-line-0">
    <rect x="0" y="1.5" width="1220" height="24.65"/>
            </clipPath>
<clipPath id="terminal-767544385-line-1">
    <rect x="0" y="25.9" width="1220" height="24.65"/>
            </clipPath>
<clipPath id="terminal-767544385-line-2">
    <rect x="0" y="50.3" width="1220" height="24.65"/>
            </clipPath>
<clipPath id="terminal-767544385-line-3">
    <rect x="0" y="74.7" width="1220" height="24.65"/>
            </clipPath>
<clipPath id="terminal-767544385-line-4">
    <rect x="0" y="99.1" width="1220" height="24.65"/>
            </clipPath>
<clipPath id="terminal-767544385-line-5">
    <rect x="0" y="123.5" width="1220" height="24.65"/>
            </clipPath>
<clipPath id="terminal-767544385-line-6">
    <rect x="0" y="147.9" width="1220" height="24.65"/>
            </clipPath>
<clipPath id="terminal-767544385-line-7">
    <rect x="0" y="172.3" width="1220" height="24.65"/>
            </clipPath>
<clipPath id="terminal-767544385-line-8">
    <rect x="0" y="196.7" width="1220" height="24.65"/>
            </clipPath>
<clipPath id="terminal-767544385-line-9">
    <rect x="0" y="221.1" width="1220" height="24.65"/>
            </clipPath>
<clipPath id="terminal-767544385-line-10">
    <rect x="0" y="245.5" width="1220" height="24.65"/>
            </clipPath>
<clipPath id="terminal-767544385-line-11">
    <rect x="0" y="269.9" width="1220" height="24.65"/>
            </clipPath>
<clipPath id="terminal-767544385-line-12">
    <rect x="0" y="294.3" width="1220" height="24.65"/>
            </clipPath>
<clipPath id="terminal-767544385-line-13">
    <rect x="0" y="318.7" width="1220" height="24.65"/>
            </clipPath>
<clipPath id="terminal-767544385-line-14">
    <rect x="0" y="343.1" width="1220" height="24.65"/>
            </clipPath>
<clipPath id="terminal-767544385-line-15">
    <rect x="0" y="367.5" width="1220" height="24.65"/>
            </clipPath>
<clipPath id="terminal-767544385-line-16">
    <rect x="0" y="391.9" width="1220" height="24.65"/>
            </clipPath>
<clipPath id="terminal-767544385-line-17">
    <rect x="0" y="416.3" width="1220" height="24.65"/>
            </clipPath>
<clipPath id="terminal-767544385-line-18">
    <rect x="0" y="440.7" width="1220" height="24.65"/>
            </clipPath>
<clipPath id="terminal-767544385-line-19">
    <rect x="0" y="465.1" width="1220" height="24.65"/>
            </clipPath>
<clipPath id="terminal-767544385-line-20">
    <rect x="0" y="489.5" width="1220" height="24.65"/>
            </clipPath>
<clipPath id="terminal-767544385-line-21">
    <rect x="0" y="513.9" width="1220" height="24.65"/>
            </clipPath>
<clipPath id="terminal-767544385-line-22">
    <rect x="0" y="538.3" width="1220" height="24.65"/>
            </clipPath>
<clipPath id="terminal-767544385-line-23">
    <rect x="0" y="562.7" width="1220" height="24.65"/>
            </clipPath>
<clipPath id="terminal-767544385-line-24">
    <rect x="0" y="587.1" width="1220" height="24.65"/>
            </clipPath>
<clipPath id="terminal-767544385-line-25">
    <rect x="0" y="611.5" width="1220" height="24.65"/>
            </clipPath>
<clipPath id="terminal-767544385-line-26">
    <rect x="0" y="635.9" width="1220" height="24.65"/>
            </clipPath>
<clipPath id="terminal-767544385-line-27">
    <rect x="0" y="660.3" width="1220" height="24.65"/>
            </clipPath>
<clipPath id="terminal-767544385-line-28">
    <rect x="0" y="684.7" width="1220" height="24.65"/>
            </clipPath>
    </defs>

    <rect fill="#292929" stroke="rgba(255,255,255,0.35)" stroke-width="1" x="1" y="1" width="1236" height="780" rx="8"/><text class="terminal-767544385-title" fill="#c5c8c6" text-anchor="middle" x="618" y="27">HoldSpeakApp</text>
            <g transform="translate(26,22)">
            <circle cx="0" cy="0" r="7" fill="#ff5f57"/>
            <circle cx="22" cy="0" r="7" fill="#febc2e"/>
            <circle cx="44" cy="0" r="7" fill="#28c840"/>
            </g>
        
    <g transform="translate(9, 41)" clip-path="url(#terminal-767544385-clip-terminal)">
    <rect fill="#0f172a" x="0" y="1.5" width="12.2" height="24.65" shape-rendering="crispEdges"/><rect fill="#0f172a" x="12.2" y="1.5" width="1195.6" height="24.65" shape-rendering="crispEdges"/><rect fill="#0f172a" x="1207.8" y="1.5" width="12.2" height="24.65" shape-rendering="crispEdges"/><rect fill="#0f172a" x="0" y="25.9" width="12.2" height="24.65" shape-rendering="crispEdges"/><rect fill="#0b1220" x="12.2" y="25.9" width="24.4" height="24.65" shape-rendering="crispEdges"/><rect fill="#0b1220" x="36.6" y="25.9" width="1146.8" height="24.65" shape-rendering="crispEdges"/><rect fill="#0b1220" x="1183.4" y="25.9" width="24.4" height="24.65" shape-rendering="crispEdges"/><rect fill="#0f172a" x="1207.8" y="25.9" width="12.2" height="24.65" shape-rendering="crispEdges"/><rect fill="#0f172a" x="0" y="50.3" width="12.2" height="24.65" shape-rendering="crispEdges"/><rect fill="#0b1220" x="12.2" y="50.3" width="24.4" height="24.65" shape-rendering="crispEdges"/><rect fill="#0b1220" x="36.6" y="50.3" width="109.8" height="24.65" shape-rendering="crispEdges"/><rect fill="#0b1220" x="146.4" y="50.3" width="12.2" height="24.65" shape-rendering="crispEdges"/><rect fill="#0b1220" x="158.6" y="50.3" width="927.2" height="24.65" shape-rendering="crispEdges"/><rect fill="#0b1220" x="1085.8" y="50.3" width="12.2" height="24.65" shape-rendering="crispEdges"/><rect fill="#0b1220" x="1098" y="50.3" width="12.2" height="24.65" shape-rendering="crispEdges"/><rect fill="#0b1220" x="1110.2" y="50.3" width="12.2" height="24.65" shape-rendering="crispEdges"/><rect fill="#0b1220" x="1122.4" y="50.3" width="12.2" height="24.65" shape-rendering="crispEdges"/><rect fill="#0b1220" x="1134.6" y="50.3" width="12.2" height="24.65" shape-rendering="crispEdges"/><rect fill="#0b1220" x="1146.8" y="50.3" width="12.2" height="24.65" shape-rendering="crispEdges"/><rect fill="#0b1220" x="1159" y="50.3" width="12.2" height="24.65" shape-rendering="crispEdges"/><rect fill="#0b1220" x="1171.2" y="50.3" width="12.2" height="24.65" shape-rendering="crispEdges"/><rect fill="#0b1220" x="1183.4" y="50.3" width="24.4" height="24.65" shape-rendering="crispEdges"/><rect fill="#0f172a" x="1207.8" y="50.3" width="12.2" height="24.65" shape-rendering="crispEdges"/><rect fill="#0f172a" x="0" y="74.7" width="12.2" height="24.65" shape-rendering="crispEdges"/><rect fill="#0b1220" x="12.2" y="74.7" width="1195.6" height="24.65" shape-rendering="crispEdges"/><rect fill="#0f172a" x="1207.8" y="74.7" width="12.2" height="24.65" shape-rendering="crispEdges"/><rect fill="#0f172a" x="0" y="99.1" width="12.2" height="24.65" shape-rendering="crispEdges"/><rect fill="#0f172a" x="12.2" y="99.1" width="24.4" height="24.65" shape-rendering="crispEdges"/><rect fill="#0f172a" x="36.6" y="99.1" width="1146.8" height="24.65" shape-rendering="crispEdges"/><rect fill="#0f172a" x="1183.4" y="99.1" width="24.4" height="24.65" shape-rendering="crispEdges"/><rect fill="#0f172a" x="1207.8" y="99.1" width="12.2" height="24.65" shape-rendering="crispEdges"/><rect fill="#0f172a" x="0" y="123.5" width="12.2" height="24.65" shape-rendering="crispEdges"/><rect fill="#0f172a" x="12.2" y="123.5" width="24.4" height="24.65" shape-rendering="crispEdges"/><rect fill="#0f172a" x="36.6" y="123.5" width="12.2" height="24.65" shape-rendering="crispEdges"/><rect fill="#0f172a" x="48.8" y="123.5" width="12.2" height="24.65" shape-rendering="crispEdges"/><rect fill="#0f172a" x="61" y="123.5" width="48.8" height="24.65" shape-rendering="crispEdges"/><rect fill="#0f172a" x="109.8" y="123.5" width="24.4" height="24.65" shape-rendering="crispEdges"/><rect fill="#0f172a" x="134.2" y="123.5" width="890.6" height="24.65" shape-rendering="crispEdges"/><rect fill="#0f172a" x="1024.8" y="123.5" width="24.4" height="24.65" shape-rendering="crispEdges"/><rect fill="#0f172a" x="1049.2" y="123.5" width="134.2" height="24.65" shape-rendering="crispEdges"/><rect fill="#0f172a" x="1183.4" y="123.5" width="24.4" height="24.65" shape-rendering="crispEdges"/><rect fill="#0f172a" x="1207.8" y="123.5" width="12.2" height="24.65" shape-rendering="crispEdges"/><rect fill="#0f172a" x="0" y="147.9" width="12.2" height="24.65" shape-rendering="crispEdges"/><rect fill="#0f172a" x="12.2" y="147.9" width="1195.6" height="24.65" shape-rendering="crispEdges"/><rect fill="#0f172a" x="1207.8" y="147.9" width="12.2" height="24.65" shape-rendering="crispEdges"/><rect fill="#0f172a" x="0" y="172.3" width="12.2" height="24.65" shape-rendering="crispEdges"/><rect fill="#0f172a" x="12.2" y="172.3" width="12.2" height="24.65" shape-rendering="crispEdges"/><rect fill="#0f172a" x="24.4" y="172.3" width="12.2" height="24.65" shape-rendering="crispEdges"/><rect fill="#0f172a" x="36.6" y="172.3" width="829.6" height="24.65" shape-rendering="crispEdges"/><rect fill="#0f172a" x="866.2" y="172.3" width="317.2" height="24.65" shape-rendering="crispEdges"/><rect fill="#0f172a" x="1183.4" y="172.3" width="12.2" height="24.65" shape-rendering="crispEdges"/><rect fill="#0f172a" x="1195.6" y="172.3" width="12.2" height="24.65" shape-rendering="crispEdges"/><rect fill="#0f172a" x="1207.8" y="172.3" width="12.2" height="24.65" shape-rendering="crispEdges"/><rect fill="#0f172a" x="0" y="196.7" width="12.2" height="24.65" shape-rendering="crispEdges"/><rect fill="#0f172a" x="12.2" y="196.7" width="12.2" height="24.65" shape-rendering="crispEdges"/><rect fill="#0f172a" x="24.4" y="196.7" width="12.2" height="24.65" shape-rendering="crispEdges"/><rect fill="#0f172a" x="36.6" y="196.7" width="756.4" height="24.65" shape-rendering="crispEdges"/><rect fill="#0f172a" x="793" y="196.7" width="390.4" height="24.65" shape-rendering="crispEdges"/><rect fill="#0f172a" x="1183.4" y="196.7" width="12.2" height="24.65" shape-rendering="crispEdges"/><rect fill="#0f172a" x="1195.6" y="196.7" width="12.2" height="24.65" shape-rendering="crispEdges"/><rect fill="#0f172a" x="1207.8" y="196.7" width="12.2" height="24.65" shape-rendering="crispEdges"/><rect fill="#0f172a" x="0" y="221.1" width="12.2" height="24.65" shape-rendering="crispEdges"/><rect fill="#0f172a" x="12.2" y="221.1" width="12.2" height="24.65" shape-rendering="crispEdges"/><rect fill="#0f172a" x="24.4" y="221.1" width="12.2" height="24.65" shape-rendering="crispEdges"/><rect fill="#0f172a" x="36.6" y="221.1" width="732" height="24.65" shape-rendering="crispEdges"/><rect fill="#0f172a" x="768.6" y="221.1" width="414.8" height="24.65" shape-rendering="crispEdges"/><rect fill="#0f172a" x="1183.4" y="221.1" width="12.2" height="24.65" shape-rendering="crispEdges"/><rect fill="#0f172a" x="1195.6" y="221.1" width="12.2" height="24.65" shape-rendering="crispEdges"/><rect fill="#0f172a" x="1207.8" y="221.1" width="12.2" height="24.65" shape-rendering="crispEdges"/><rect fill="#0f172a" x="0" y="245.5" width="12.2" height="24.65" shape-rendering="crispEdges"/><rect fill="#0f172a" x="12.2" y="245.5" width="12.2" height="24.65" shape-rendering="crispEdges"/><rect fill="#0f172a" x="24.4" y="245.5" width="12.2" height="24.65" shape-rendering="crispEdges"/><rect fill="#0f172a" x="36.6" y="245.5" width="732" height="24.65" shape-rendering="crispEdges"/><rect fill="#0f172a" x="768.6" y="245.5" width="414.8" height="24.65" shape-rendering="crispEdges"/><rect fill="#0f172a" x="1183.4" y="245.5" width="12.2" height="24.65" shape-rendering="crispEdges"/><rect fill="#0f172a" x="1195.6" y="245.5" width="12.2" height="24.65" shape-rendering="crispEdges"/><rect fill="#0f172a" x="1207.8" y="245.5" width="12.2" height="24.65" shape-rendering="crispEdges"/><rect fill="#0f172a" x="0" y="269.9" width="12.2" height="24.65" shape-rendering="crispEdges"/><rect fill="#0f172a" x="12.2" y="269.9" width="12.2" height="24.65" shape-rendering="crispEdges"/><rect fill="#0f172a" x="24.4" y="269.9" width="1171.2" height="24.65" shape-rendering="crispEdges"/><rect fill="#0f172a" x="1195.6" y="269.9" width="12.2" height="24.65" shape-rendering="crispEdges"/><rect fill="#0f172a" x="1207.8" y="269.9" width="12.2" height="24.65" shape-rendering="crispEdges"/><rect fill="#0f172a" x="0" y="294.3" width="12.2" height="24.65" shape-rendering="crispEdges"/><rect fill="#0f172a" x="12.2" y="294.3" width="12.2" height="24.65" shape-rendering="crispEdges"/><rect fill="#0f172a" x="24.4" y="294.3" width="1171.2" height="24.65" shape-rendering="crispEdges"/><rect fill="#0f172a" x="1195.6" y="294.3" width="12.2" height="24.65" shape-rendering="crispEdges"/><rect fill="#0f172a" x="1207.8" y="294.3" width="12.2" height="24.65" shape-rendering="crispEdges"/><rect fill="#0f172a" x="0" y="318.7" width="12.2" height="24.65" shape-rendering="crispEdges"/><rect fill="#0f172a" x="12.2" y="318.7" width="12.2" height="24.65" shape-rendering="crispEdges"/><rect fill="#0f172a" x="24.4" y="318.7" width="1171.2" height="24.65" shape-rendering="crispEdges"/><rect fill="#0f172a" x="1195.6" y="318.7" width="12.2" height="24.65" shape-rendering="crispEdges"/><rect fill="#0f172a" x="1207.8" y="318.7" width="12.2" height="24.65" shape-rendering="crispEdges"/><rect fill="#0f172a" x="0" y="343.1" width="12.2" height="24.65" shape-rendering="crispEdges"/><rect fill="#0f172a" x="12.2" y="343.1" width="12.2" height="24.65" shape-rendering="crispEdges"/><rect fill="#0f172a" x="24.4" y="343.1" width="1171.2" height="24.65" shape-rendering="crispEdges"/><rect fill="#0f172a" x="1195.6" y="343.1" width="12.2" height="24.65" shape-rendering="crispEdges"/><rect fill="#0f172a" x="1207.8" y="343.1" width="12.2" height="24.65" shape-rendering="crispEdges"/><rect fill="#0f172a" x="0" y="367.5" width="12.2" height="24.65" shape-rendering="crispEdges"/><rect fill="#0f172a" x="12.2" y="367.5" width="12.2" height="24.65" shape-rendering="crispEdges"/><rect fill="#0f172a" x="24.4" y="367.5" width="1171.2" height="24.65" shape-rendering="crispEdges"/><rect fill="#0f172a" x="1195.6" y="367.5" width="12.2" height="24.65" shape-rendering="crispEdges"/><rect fill="#0f172a" x="1207.8" y="367.5" width="12.2" height="24.65" shape-rendering="crispEdges"/><rect fill="#0f172a" x="0" y="391.9" width="12.2" height="24.65" shape-rendering="crispEdges"/><rect fill="#0f172a" x="12.2" y="391.9" width="12.2" height="24.65" shape-rendering="crispEdges"/><rect fill="#0f172a" x="24.4" y="391.9" width="1171.2" height="24.65" shape-rendering="crispEdges"/><rect fill="#0f172a" x="1195.6" y="391.9" width="12.2" height="24.65" shape-rendering="crispEdges"/><rect fill="#0f172a" x="1207.8" y="391.9" width="12.2" height="24.65" shape-rendering="crispEdges"/><rect fill="#0f172a" x="0" y="416.3" width="12.2" height="24.65" shape-rendering="crispEdges"/><rect fill="#0f172a" x="12.2" y="416.3" width="12.2" height="24.65" shape-rendering="crispEdges"/><rect fill="#0f172a" x="24.4" y="416.3" width="1171.2" height="24.65" shape-rendering="crispEdges"/><rect fill="#0f172a" x="1195.6" y="416.3" width="12.2" height="24.65" shape-rendering="crispEdges"/><rect fill="#0f172a" x="1207.8" y="416.3" width="12.2" height="24.65" shape-rendering="crispEdges"/><rect fill="#0f172a" x="0" y="440.7" width="12.2" height="24.65" shape-rendering="crispEdges"/><rect fill="#0f172a" x="12.2" y="440.7" width="12.2" height="24.65" shape-rendering="crispEdges"/><rect fill="#0f172a" x="24.4" y="440.7" width="1171.2" height="24.65" shape-rendering="crispEdges"/><rect fill="#0f172a" x="1195.6" y="440.7" width="12.2" height="24.65" shape-rendering="crispEdges"/><rect fill="#0f172a" x="1207.8" y="440.7" width="12.2" height="24.65" shape-rendering="crispEdges"/><rect fill="#0f172a" x="0" y="465.1" width="12.2" height="24.65" shape-rendering="crispEdges"/><rect fill="#0f172a" x="12.2" y="465.1" width="12.2" height="24.65" shape-rendering="crispEdges"/><rect fill="#0f172a" x="24.4" y="465.1" width="1171.2" height="24.65" shape-rendering="crispEdges"/><rect fill="#0f172a" x="1195.6" y="465.1" width="12.2" height="24.65" shape-rendering="crispEdges"/><rect fill="#0f172a" x="1207.8" y="465.1" width="12.2" height="24.65" shape-rendering="crispEdges"/><rect fill="#0f172a" x="0" y="489.5" width="12.2" height="24.65" shape-rendering="crispEdges"/><rect fill="#0f172a" x="12.2" y="489.5" width="12.2" height="24.65" shape-rendering="crispEdges"/><rect fill="#0f172a" x="24.4" y="489.5" width="1171.2" height="24.65" shape-rendering="crispEdges"/><rect fill="#0f172a" x="1195.6" y="489.5" width="12.2" height="24.65" shape-rendering="crispEdges"/><rect fill="#0f172a" x="1207.8" y="489.5" width="12.2" height="24.65" shape-rendering="crispEdges"/><rect fill="#0f172a" x="0" y="513.9" width="12.2" height="24.65" shape-rendering="crispEdges"/><rect fill="#0f172a" x="12.2" y="513.9" width="12.2" height="24.65" shape-rendering="crispEdges"/><rect fill="#0f172a" x="24.4" y="513.9" width="1171.2" height="24.65" shape-rendering="crispEdges"/><rect fill="#0f172a" x="1195.6" y="513.9" width="12.2" height="24.65" shape-rendering="crispEdges"/><rect fill="#0f172a" x="1207.8" y="513.9" width="12.2" height="24.65" shape-rendering="crispEdges"/><rect fill="#0f172a" x="0" y="538.3" width="12.2" height="24.65" shape-rendering="crispEdges"/><rect fill="#0f172a" x="12.2" y="538.3" width="12.2" height="24.65" shape-rendering="crispEdges"/><rect fill="#0f172a" x="24.4" y="538.3" width="1171.2" height="24.65" shape-rendering="crispEdges"/><rect fill="#0f172a" x="1195.6" y="538.3" width="12.2" height="24.65" shape-rendering="crispEdges"/><rect fill="#0f172a" x="1207.8" y="538.3" width="12.2" height="24.65" shape-rendering="crispEdges"/><rect fill="#0f172a" x="0" y="562.7" width="12.2" height="24.65" shape-rendering="crispEdges"/><rect fill="#0f172a" x="12.2" y="562.7" width="12.2" height="24.65" shape-rendering="crispEdges"/><rect fill="#0f172a" x="24.4" y="562.7" width="1171.2" height="24.65" shape-rendering="crispEdges"/><rect fill="#0f172a" x="1195.6" y="562.7" width="12.2" height="24.65" shape-rendering="crispEdges"/><rect fill="#0f172a" x="1207.8" y="562.7" width="12.2" height="24.65" shape-rendering="crispEdges"/><rect fill="#0f172a" x="0" y="587.1" width="12.2" height="24.65" shape-rendering="crispEdges"/><rect fill="#0f172a" x="12.2" y="587.1" width="12.2" height="24.65" shape-rendering="crispEdges"/><rect fill="#0f172a" x="24.4" y="587.1" width="1171.2" height="24.65" shape-rendering="crispEdges"/><rect fill="#0f172a" x="1195.6" y="587.1" width="12.2" height="24.65" shape-rendering="crispEdges"/><rect fill="#0f172a" x="1207.8" y="587.1" width="12.2" height="24.65" shape-rendering="crispEdges"/><rect fill="#0f172a" x="0" y="611.5" width="12.2" height="24.65" shape-rendering="crispEdges"/><rect fill="#0f172a" x="12.2" y="611.5" width="12.2" height="24.65" shape-rendering="crispEdges"/><rect fill="#0f172a" x="24.4" y="611.5" width="1171.2" height="24.65" shape-rendering="crispEdges"/><rect fill="#0f172a" x="1195.6" y="611.5" width="12.2" height="24.65" shape-rendering="crispEdges"/><rect fill="#0f172a" x="1207.8" y="611.5" width="12.2" height="24.65" shape-rendering="crispEdges"/><rect fill="#0f172a" x="0" y="635.9" width="12.2" height="24.65" shape-rendering="crispEdges"/><rect fill="#0f172a" x="12.2" y="635.9" width="12.2" height="24.65" shape-rendering="crispEdges"/><rect fill="#0f172a" x="24.4" y="635.9" width="1171.2" height="24.65" shape-rendering="crispEdges"/><rect fill="#0f172a" x="1195.6" y="635.9" width="12.2" height="24.65" shape-rendering="crispEdges"/><rect fill="#0f172a" x="1207.8" y="635.9" width="12.2" height="24.65" shape-rendering="crispEdges"/><rect fill="#0f172a" x="0" y="660.3" width="12.2" height="24.65" shape-rendering="crispEdges"/><rect fill="#0b1220" x="12.2" y="660.3" width="1195.6" height="24.65" shape-rendering="crispEdges"/><rect fill="#0f172a" x="1207.8" y="660.3" width="12.2" height="24.65" shape-rendering="crispEdges"/><rect fill="#0f172a" x="0" y="684.7" width="12.2" height="24.65" shape-rendering="crispEdges"/><rect fill="#0b1220" x="12.2" y="684.7" width="24.4" height="24.65" shape-rendering="crispEdges"/><rect fill="#0b1220" x="36.6" y="684.7" width="1073.6" height="24.65" shape-rendering="crispEdges"/><rect fill="#0b1220" x="1110.2" y="684.7" width="73.2" height="24.65" shape-rendering="crispEdges"/><rect fill="#0b1220" x="1183.4" y="684.7" width="24.4" height="24.65" shape-rendering="crispEdges"/><rect fill="#0f172a" x="1207.8" y="684.7" width="12.2" height="24.65" shape-rendering="crispEdges"/><rect fill="#0f172a" x="0" y="709.1" width="12.2" height="24.65" shape-rendering="crispEdges"/><rect fill="#0f172a" x="12.2" y="709.1" width="1195.6" height="24.65" shape-rendering="crispEdges"/><rect fill="#0f172a" x="1207.8" y="709.1" width="12.2" height="24.65" shape-rendering="crispEdges"/>
    <g class="terminal-767544385-matrix">
    <text class="terminal-767544385-r1" x="0" y="20" textLength="12.2" clip-path="url(#terminal-767544385-line-0)">┏</text><text class="terminal-767544385-r1" x="12.2" y="20" textLength="1195.6" clip-path="url(#terminal-767544385-line-0)">━━━━━━━━━━━━━━━━━━━━━━━━━━━━━━━━━━━━━━━━━━━━━━━━━━━━━━━━━━━━━━━━━━━━━━━━━━━━━━━━━━━━━━━━━━━━━━━━━━</text><text class="terminal-767544385-r1" x="1207.8" y="20" textLength="12.2" clip-path="url(#terminal-767544385-line-0)">┓</text><text class="terminal-767544385-r2" x="1220" y="20" textLength="12.2" clip-path="url(#terminal-767544385-line-0)">
</text><text class="terminal-767544385-r1" x="0" y="44.4" textLength="12.2" clip-path="url(#terminal-767544385-line-1)">┃</text><text class="terminal-767544385-r1" x="1207.8" y="44.4" textLength="12.2" clip-path="url(#terminal-767544385-line-1)">┃</text><text class="terminal-767544385-r2" x="1220" y="44.4" textLength="12.2" clip-path="url(#terminal-767544385-line-1)">
</text><text class="terminal-767544385-r1" x="0" y="68.8" textLength="12.2" clip-path="url(#terminal-767544385-line-2)">┃</text><text class="terminal-767544385-r3" x="36.6" y="68.8" textLength="109.8" clip-path="url(#terminal-767544385-line-2)">HoldSpeak</text><text class="terminal-767544385-r4" x="158.6" y="68.8" textLength="927.2" clip-path="url(#terminal-767544385-line-2)">━━━━━━━━━━━━━━━━━━━━━━━━━━━━━━━━━━━━━━━━━━━━━━━━━━━━━━━━━━━━━━━━━━━━━━━━━━━━</text><text class="terminal-767544385-r5" x="1110.2" y="68.8" textLength="12.2" clip-path="url(#terminal-767544385-line-2)">⚙</text><text class="terminal-767544385-r5" x="1159" y="68.8" textLength="12.2" clip-path="url(#terminal-767544385-line-2)">?</text><text class="terminal-767544385-r1" x="1207.8" y="68.8" textLength="12.2" clip-path="url(#terminal-767544385-line-2)">┃</text><text class="terminal-767544385-r2" x="1220" y="68.8" textLength="12.2" clip-path="url(#terminal-767544385-line-2)">
</text><text class="terminal-767544385-r1" x="0" y="93.2" textLength="12.2" clip-path="url(#terminal-767544385-line-3)">┃</text><text class="terminal-767544385-r1" x="12.2" y="93.2" textLength="1195.6" clip-path="url(#terminal-767544385-line-3)">──────────────────────────────────────────────────────────────────────────────────────────────────</text><text class="terminal-767544385-r1" x="1207.8" y="93.2" textLength="12.2" clip-path="url(#terminal-767544385-line-3)">┃</text><text class="terminal-767544385-r2" x="1220" y="93.2" textLength="12.2" clip-path="url(#terminal-767544385-line-3)">
</text><text class="terminal-767544385-r1" x="0" y="117.6" textLength="12.2" clip-path="url(#terminal-767544385-line-4)">┃</text><text class="terminal-767544385-r1" x="1207.8" y="117.6" textLength="12.2" clip-path="url(#terminal-767544385-line-4)">┃</text><text class="terminal-767544385-r2" x="1220" y="117.6" textLength="12.2" clip-path="url(#terminal-767544385-line-4)">
</text><text class="terminal-767544385-r1" x="0" y="142" textLength="12.2" clip-path="url(#terminal-767544385-line-5)">┃</text><text class="terminal-767544385-r6" x="36.6" y="142" textLength="12.2" clip-path="url(#terminal-767544385-line-5)">◉</text><text class="terminal-767544385-r7" x="61" y="142" textLength="48.8" clip-path="url(#terminal-767544385-line-5)">IDLE</text><text class="terminal-767544385-r8" x="134.2" y="142" textLength="890.6" clip-path="url(#terminal-767544385-line-5)">░░░░░░░░░░░░░░░░░░░░░░░░░░░░░░░░░░░░░░░░░░░░░░░░░░░░░░░░░░░░░░░░░░░░░░░░░</text><text class="terminal-767544385-r9" x="1049.2" y="142" textLength="134.2" clip-path="url(#terminal-767544385-line-5)">⌥R&#160;to&#160;speak</text><text class="terminal-767544385-r1" x="1207.8" y="142" textLength="12.2" clip-path="url(#terminal-767544385-line-5)">┃</text><text class="terminal-767544385-r2" x="1220" y="142" textLength="12.2" clip-path="url(#terminal-767544385-line-5)">
</text><text class="terminal-767544385-r1" x="0" y="166.4" textLength="12.2" clip-path="url(#terminal-767544385-line-6)">┃</text><text class="terminal-767544385-r1" x="12.2" y="166.4" textLength="1195.6" clip-path="url(#terminal-767544385-line-6)">──────────────────────────────────────────────────────────────────────────────────────────────────</text><text class="terminal-767544385-r1" x="1207.8" y="166.4" textLength="12.2" clip-path="url(#terminal-767544385-line-6)">┃</text><text class="terminal-767544385-r2" x="1220" y="166.4" textLength="12.2" clip-path="url(#terminal-767544385-line-6)">
</text><text class="terminal-767544385-r1" x="0" y="190.8" textLength="12.2" clip-path="url(#terminal-767544385-line-7)">┃</text><text class="terminal-767544385-r10" x="36.6" y="190.8" textLength="829.6" clip-path="url(#terminal-767544385-line-7)">20:28&#160;&#160;I&#160;think&#160;we&#160;should&#160;schedule&#160;a&#160;follow-up&#160;meeting&#160;for&#160;next&#160;week.</text><text class="terminal-767544385-r1" x="1207.8" y="190.8" textLength="12.2" clip-path="url(#terminal-767544385-line-7)">┃</text><text class="terminal-767544385-r2" x="1220" y="190.8" textLength="12.2" clip-path="url(#terminal-767544385-line-7)">
</text><text class="terminal-767544385-r1" x="0" y="215.2" textLength="12.2" clip-path="url(#terminal-767544385-line-8)">┃</text><text class="terminal-767544385-r10" x="36.6" y="215.2" textLength="756.4" clip-path="url(#terminal-767544385-line-8)">20:28&#160;&#160;Can&#160;you&#160;share&#160;your&#160;screen&#160;so&#160;we&#160;can&#160;review&#160;the&#160;changes?</text><text class="terminal-767544385-r1" x="1207.8" y="215.2" textLength="12.2" clip-path="url(#terminal-767544385-line-8)">┃</text><text class="terminal-767544385-r2" x="1220" y="215.2" textLength="12.2" clip-path="url(#terminal-767544385-line-8)">
</text><text class="terminal-767544385-r1" x="0" y="239.6" textLength="12.2" clip-path="url(#terminal-767544385-line-9)">┃</text><text class="terminal-767544385-r10" x="36.6" y="239.6" textLength="732" clip-path="url(#terminal-767544385-line-9)">20:28&#160;&#160;The&#160;deployment&#160;should&#160;complete&#160;in&#160;about&#160;five&#160;minutes.</text><text class="terminal-767544385-r1" x="1207.8" y="239.6" textLength="12.2" clip-path="url(#terminal-767544385-line-9)">┃</text><text class="terminal-767544385-r2" x="1220" y="239.6" textLength="12.2" clip-path="url(#terminal-767544385-line-9)">
</text><text class="terminal-767544385-r1" x="0" y="264" textLength="12.2" clip-path="url(#terminal-767544385-line-10)">┃</text><text class="terminal-767544385-r7" x="36.6" y="264" textLength="732" clip-path="url(#terminal-767544385-line-10)">20:28&#160;&#160;Let&#160;me&#160;check&#160;the&#160;documentation&#160;for&#160;that&#160;API&#160;endpoint.</text><text class="terminal-767544385-r1" x="1207.8" y="264" textLength="12.2" clip-path="url(#terminal-767544385-line-10)">┃</text><text class="terminal-767544385-r2" x="1220" y="264" textLength="12.2" clip-path="url(#terminal-767544385-line-10)">
</text><text class="terminal-767544385-r1" x="0" y="288.4" textLength="12.2" clip-path="url(#terminal-767544385-line-11)">┃</text><text class="terminal-767544385-r1" x="1207.8" y="288.4" textLength="12.2" clip-path="url(#terminal-767544385-line-11)">┃</text><text class="terminal-767544385-r2" x="1220" y="288.4" textLength="12.2" clip-path="url(#terminal-767544385-line-11)">
</text><text class="terminal-767544385-r1" x="0" y="312.8" textLength="12.2" clip-path="url(#terminal-767544385-line-12)">┃</text><text class="terminal-767544385-r1" x="1207.8" y="312.8" textLength="12.2" clip-path="url(#terminal-767544385-line-12)">┃</text><text class="terminal-767544385-r2" x="1220" y="312.8" textLength="12.2" clip-path="url(#terminal-767544385-line-12)">
</text><text class="terminal-767544385-r1" x="0" y="337.2" textLength="12.2" clip-path="url(#terminal-767544385-line-13)">┃</text><text class="terminal-767544385-r1" x="1207.8" y="337.2" textLength="12.2" clip-path="url(#terminal-767544385-line-13)">┃</text><text class="terminal-767544385-r2" x="1220" y="337.2" textLength="12.2" clip-path="url(#terminal-767544385-line-13)">
</text><text class="terminal-767544385-r1" x="0" y="361.6" textLength="12.2" clip-path="url(#terminal-767544385-line-14)">┃</text><text class="terminal-767544385-r1" x="1207.8" y="361.6" textLength="12.2" clip-path="url(#terminal-767544385-line-14)">┃</text><text class="terminal-767544385-r2" x="1220" y="361.6" textLength="12.2" clip-path="url(#terminal-767544385-line-14)">
</text><text class="terminal-767544385-r1" x="0" y="386" textLength="12.2" clip-path="url(#terminal-767544385-line-15)">┃</text><text class="terminal-767544385-r1" x="1207.8" y="386" textLength="12.2" clip-path="url(#terminal-767544385-line-15)">┃</text><text class="terminal-767544385-r2" x="1220" y="386" textLength="12.2" clip-path="url(#terminal-767544385-line-15)">
</text><text class="terminal-767544385-r1" x="0" y="410.4" textLength="12.2" clip-path="url(#terminal-767544385-line-16)">┃</text><text class="terminal-767544385-r1" x="1207.8" y="410.4" textLength="12.2" clip-path="url(#terminal-767544385-line-16)">┃</text><text class="terminal-767544385-r2" x="1220" y="410.4" textLength="12.2" clip-path="url(#terminal-767544385-line-16)">
</text><text class="terminal-767544385-r1" x="0" y="434.8" textLength="12.2" clip-path="url(#terminal-767544385-line-17)">┃</text><text class="terminal-767544385-r1" x="1207.8" y="434.8" textLength="12.2" clip-path="url(#terminal-767544385-line-17)">┃</text><text class="terminal-767544385-r2" x="1220" y="434.8" textLength="12.2" clip-path="url(#terminal-767544385-line-17)">
</text><text class="terminal-767544385-r1" x="0" y="459.2" textLength="12.2" clip-path="url(#terminal-767544385-line-18)">┃</text><text class="terminal-767544385-r1" x="1207.8" y="459.2" textLength="12.2" clip-path="url(#terminal-767544385-line-18)">┃</text><text class="terminal-767544385-r2" x="1220" y="459.2" textLength="12.2" clip-path="url(#terminal-767544385-line-18)">
</text><text class="terminal-767544385-r1" x="0" y="483.6" textLength="12.2" clip-path="url(#terminal-767544385-line-19)">┃</text><text class="terminal-767544385-r1" x="1207.8" y="483.6" textLength="12.2" clip-path="url(#terminal-767544385-line-19)">┃</text><text class="terminal-767544385-r2" x="1220" y="483.6" textLength="12.2" clip-path="url(#terminal-767544385-line-19)">
</text><text class="terminal-767544385-r1" x="0" y="508" textLength="12.2" clip-path="url(#terminal-767544385-line-20)">┃</text><text class="terminal-767544385-r1" x="1207.8" y="508" textLength="12.2" clip-path="url(#terminal-767544385-line-20)">┃</text><text class="terminal-767544385-r2" x="1220" y="508" textLength="12.2" clip-path="url(#terminal-767544385-line-20)">
</text><text class="terminal-767544385-r1" x="0" y="532.4" textLength="12.2" clip-path="url(#terminal-767544385-line-21)">┃</text><text class="terminal-767544385-r1" x="1207.8" y="532.4" textLength="12.2" clip-path="url(#terminal-767544385-line-21)">┃</text><text class="terminal-767544385-r2" x="1220" y="532.4" textLength="12.2" clip-path="url(#terminal-767544385-line-21)">
</text><text class="terminal-767544385-r1" x="0" y="556.8" textLength="12.2" clip-path="url(#terminal-767544385-line-22)">┃</text><text class="terminal-767544385-r1" x="1207.8" y="556.8" textLength="12.2" clip-path="url(#terminal-767544385-line-22)">┃</text><text class="terminal-767544385-r2" x="1220" y="556.8" textLength="12.2" clip-path="url(#terminal-767544385-line-22)">
</text><text class="terminal-767544385-r1" x="0" y="581.2" textLength="12.2" clip-path="url(#terminal-767544385-line-23)">┃</text><text class="terminal-767544385-r1" x="1207.8" y="581.2" textLength="12.2" clip-path="url(#terminal-767544385-line-23)">┃</text><text class="terminal-767544385-r2" x="1220" y="581.2" textLength="12.2" clip-path="url(#terminal-767544385-line-23)">
</text><text class="terminal-767544385-r1" x="0" y="605.6" textLength="12.2" clip-path="url(#terminal-767544385-line-24)">┃</text><text class="terminal-767544385-r1" x="1207.8" y="605.6" textLength="12.2" clip-path="url(#terminal-767544385-line-24)">┃</text><text class="terminal-767544385-r2" x="1220" y="605.6" textLength="12.2" clip-path="url(#terminal-767544385-line-24)">
</text><text class="terminal-767544385-r1" x="0" y="630" textLength="12.2" clip-path="url(#terminal-767544385-line-25)">┃</text><text class="terminal-767544385-r1" x="1207.8" y="630" textLength="12.2" clip-path="url(#terminal-767544385-line-25)">┃</text><text class="terminal-767544385-r2" x="1220" y="630" textLength="12.2" clip-path="url(#terminal-767544385-line-25)">
</text><text class="terminal-767544385-r1" x="0" y="654.4" textLength="12.2" clip-path="url(#terminal-767544385-line-26)">┃</text><text class="terminal-767544385-r1" x="1207.8" y="654.4" textLength="12.2" clip-path="url(#terminal-767544385-line-26)">┃</text><text class="terminal-767544385-r2" x="1220" y="654.4" textLength="12.2" clip-path="url(#terminal-767544385-line-26)">
</text><text class="terminal-767544385-r1" x="0" y="678.8" textLength="12.2" clip-path="url(#terminal-767544385-line-27)">┃</text><text class="terminal-767544385-r1" x="12.2" y="678.8" textLength="1195.6" clip-path="url(#terminal-767544385-line-27)">──────────────────────────────────────────────────────────────────────────────────────────────────</text><text class="terminal-767544385-r1" x="1207.8" y="678.8" textLength="12.2" clip-path="url(#terminal-767544385-line-27)">┃</text><text class="terminal-767544385-r2" x="1220" y="678.8" textLength="12.2" clip-path="url(#terminal-767544385-line-27)">
</text><text class="terminal-767544385-r1" x="0" y="703.2" textLength="12.2" clip-path="url(#terminal-767544385-line-28)">┃</text><text class="terminal-767544385-r5" x="36.6" y="703.2" textLength="1073.6" clip-path="url(#terminal-767544385-line-28)">⌥R&#160;Record&#160;&#160;│&#160;&#160;m&#160;Meeting&#160;&#160;│&#160;&#160;h&#160;History&#160;&#160;│&#160;&#160;a&#160;Actions&#160;&#160;│&#160;&#160;c&#160;Copy&#160;&#160;│&#160;&#160;s&#160;Settings&#160;&#160;│&#160;&#160;q&#160;Quit</text><text class="terminal-767544385-r1" x="1207.8" y="703.2" textLength="12.2" clip-path="url(#terminal-767544385-line-28)">┃</text><text class="terminal-767544385-r2" x="1220" y="703.2" textLength="12.2" clip-path="url(#terminal-767544385-line-28)">
</text><text class="terminal-767544385-r1" x="0" y="727.6" textLength="12.2" clip-path="url(#terminal-767544385-line-29)">┗</text><text class="terminal-767544385-r1" x="12.2" y="727.6" textLength="1195.6" clip-path="url(#terminal-767544385-line-29)">━━━━━━━━━━━━━━━━━━━━━━━━━━━━━━━━━━━━━━━━━━━━━━━━━━━━━━━━━━━━━━━━━━━━━━━━━━━━━━━━━━━━━━━━━━━━━━━━━━</text><text class="terminal-767544385-r1" x="1207.8" y="727.6" textLength="12.2" clip-path="url(#terminal-767544385-line-29)">┛</text>
    </g>
    </g>
</svg>
