<svg class="rich-terminal" viewBox="0 0 1385 830.8" xmlns="http://www.w3.org/2000/svg">
    <!-- Generated with Rich https://www.textualize.io -->
    <style>

    @font-face {
        font-family: "Fira Code";
        src: local("FiraCode-Regular"),
                url("https://cdnjs.cloudflare.com/ajax/libs/firacode/6.2.0/woff2/FiraCode-Regular.woff2") format("woff2"),
                url("https://cdnjs.cloudflare.com/ajax/libs/firacode/6.2.0/woff/FiraCode-Regular.woff") format("woff");
        font-style: normal;
        font-weight: 400;
    }
    @font-face {
        font-family: "Fira Code";
        src: local("FiraCode-Bold"),
                url("https://cdnjs.cloudflare.com/ajax/libs/firacode/6.2.0/woff2/FiraCode-Bold.woff2") format("woff2"),
                url("https://cdnjs.cloudflare.com/ajax/libs/firacode/6.2.0/woff/FiraCode-Bold.woff") format("woff");
        font-style: bold;
        font-weight: 700;
    }

    .terminal-3926873217-matrix {
        font-family: Fira Code, monospace;
        font-size: 20px;
        line-height: 24.4px;
        font-variant-east-asian: full-width;
    }

    .terminal-3926873217-title {
        font-size: 18px;
        font-weight: bold;
        font-family: arial;
    }

    .terminal-3926873217-r1 { fill: #afafaf }
.terminal-3926873217-r2 { fill: #c5c8c6 }
.terminal-3926873217-r3 { fill: #afafaf;font-weight: bold }
.terminal-3926873217-r4 { fill: #a0a0a0 }
.terminal-3926873217-r5 { fill: #131313 }
.terminal-3926873217-r6 { fill: #656565 }
.terminal-3926873217-r7 { fill: #e0e0e0 }
.terminal-3926873217-r8 { fill: #121212 }
.terminal-3926873217-r9 { fill: #191919 }
.terminal-3926873217-r10 { fill: #2d2d2d }
.terminal-3926873217-r11 { fill: #a9a9a9 }
.terminal-3926873217-r12 { fill: #e0e0e0;font-weight: bold }
.terminal-3926873217-r13 { fill: #eaeaea;font-weight: bold }
.terminal-3926873217-r14 { fill: #0d0d0d }
.terminal-3926873217-r15 { fill: #3a3a3a }
    </style>

    <defs>
    <clipPath id="terminal-3926873217-clip-terminal">
      <rect x="0" y="0" width="1365.3999999999999" height="779.8" />
    </clipPath>
    <clipPath id="terminal-3926873217-line-0">
    <rect x="0" y="1.5" width="1366.4" height="24.65"/>
            </clipPath>
<clipPath id="terminal-3926873217-line-1">
    <rect x="0" y="25.9" width="1366.4" height="24.65"/>
            </clipPath>
<clipPath id="terminal-3926873217-line-2">
    <rect x="0" y="50.3" width="1366.4" height="24.65"/>
            </clipPath>
<clipPath id="terminal-3926873217-line-3">
    <rect x="0" y="74.7" width="1366.4" height="24.65"/>
            </clipPath>
<clipPath id="terminal-3926873217-line-4">
    <rect x="0" y="99.1" width="1366.4" height="24.65"/>
            </clipPath>
<clipPath id="terminal-3926873217-line-5">
    <rect x="0" y="123.5" width="1366.4" height="24.65"/>
            </clipPath>
<clipPath id="terminal-3926873217-line-6">
    <rect x="0" y="147.9" width="1366.4" height="24.65"/>
            </clipPath>
<clipPath id="terminal-3926873217-line-7">
    <rect x="0" y="172.3" width="1366.4" height="24.65"/>
            </clipPath>
<clipPath id="terminal-3926873217-line-8">
    <rect x="0" y="196.7" width="1366.4" height="24.65"/>
            </clipPath>
<clipPath id="terminal-3926873217-line-9">
    <rect x="0" y="221.1" width="1366.4" height="24.65"/>
            </clipPath>
<clipPath id="terminal-3926873217-line-10">
    <rect x="0" y="245.5" width="1366.4" height="24.65"/>
            </clipPath>
<clipPath id="terminal-3926873217-line-11">
    <rect x="0" y="269.9" width="1366.4" height="24.65"/>
            </clipPath>
<clipPath id="terminal-3926873217-line-12">
    <rect x="0" y="294.3" width="1366.4" height="24.65"/>
            </clipPath>
<clipPath id="terminal-3926873217-line-13">
    <rect x="0" y="318.7" width="1366.4" height="24.65"/>
            </clipPath>
<clipPath id="terminal-3926873217-line-14">
    <rect x="0" y="343.1" width="1366.4" height="24.65"/>
            </clipPath>
<clipPath id="terminal-3926873217-line-15">
    <rect x="0" y="367.5" width="1366.4" height="24.65"/>
            </clipPath>
<clipPath id="terminal-3926873217-line-16">
    <rect x="0" y="391.9" width="1366.4" height="24.65"/>
            </clipPath>
<clipPath id="terminal-3926873217-line-17">
    <rect x="0" y="416.3" width="1366.4" height="24.65"/>
            </clipPath>
<clipPath id="terminal-3926873217-line-18">
    <rect x="0" y="440.7" width="1366.4" height="24.65"/>
            </clipPath>
<clipPath id="terminal-3926873217-line-19">
    <rect x="0" y="465.1" width="1366.4" height="24.65"/>
            </clipPath>
<clipPath id="terminal-3926873217-line-20">
    <rect x="0" y="489.5" width="1366.4" height="24.65"/>
            </clipPath>
<clipPath id="terminal-3926873217-line-21">
    <rect x="0" y="513.9" width="1366.4" height="24.65"/>
            </clipPath>
<clipPath id="terminal-3926873217-line-22">
    <rect x="0" y="538.3" width="1366.4" height="24.65"/>
            </clipPath>
<clipPath id="terminal-3926873217-line-23">
    <rect x="0" y="562.7" width="1366.4" height="24.65"/>
            </clipPath>
<clipPath id="terminal-3926873217-line-24">
    <rect x="0" y="587.1" width="1366.4" height="24.65"/>
            </clipPath>
<clipPath id="terminal-3926873217-line-25">
    <rect x="0" y="611.5" width="1366.4" height="24.65"/>
            </clipPath>
<clipPath id="terminal-3926873217-line-26">
    <rect x="0" y="635.9" width="1366.4" height="24.65"/>
            </clipPath>
<clipPath id="terminal-3926873217-line-27">
    <rect x="0" y="660.3" width="1366.4" height="24.65"/>
            </clipPath>
<clipPath id="terminal-3926873217-line-28">
    <rect x="0" y="684.7" width="1366.4" height="24.65"/>
            </clipPath>
<clipPath id="terminal-3926873217-line-29">
    <rect x="0" y="709.1" width="1366.4" height="24.65"/>
            </clipPath>
<clipPath id="terminal-3926873217-line-30">
    <rect x="0" y="733.5" width="1366.4" height="24.65"/>
            </clipPath>
    </defs>

    <rect fill="#292929" stroke="rgba(255,255,255,0.35)" stroke-width="1" x="1" y="1" width="1383" height="828.8" rx="8"/><text class="terminal-3926873217-title" fill="#c5c8c6" text-anchor="middle" x="691" y="27">HoldSpeakApp</text>
            <g transform="translate(26,22)">
            <circle cx="0" cy="0" r="7" fill="#ff5f57"/>
            <circle cx="22" cy="0" r="7" fill="#febc2e"/>
            <circle cx="44" cy="0" r="7" fill="#28c840"/>
            </g>
        
    <g transform="translate(9, 41)" clip-path="url(#terminal-3926873217-clip-terminal)">
    <rect fill="#131313" x="0" y="1.5" width="12.2" height="24.65" shape-rendering="crispEdges"/><rect fill="#131313" x="12.2" y="1.5" width="707.6" height="24.65" shape-rendering="crispEdges"/><rect fill="#131313" x="719.8" y="1.5" width="12.2" height="24.65" shape-rendering="crispEdges"/><rect fill="#0f0f0f" x="732" y="1.5" width="634.4" height="24.65" shape-rendering="crispEdges"/><rect fill="#131313" x="0" y="25.9" width="12.2" height="24.65" shape-rendering="crispEdges"/><rect fill="#131313" x="12.2" y="25.9" width="707.6" height="24.65" shape-rendering="crispEdges"/><rect fill="#131313" x="719.8" y="25.9" width="12.2" height="24.65" shape-rendering="crispEdges"/><rect fill="#0f0f0f" x="732" y="25.9" width="634.4" height="24.65" shape-rendering="crispEdges"/><rect fill="#131313" x="0" y="50.3" width="12.2" height="24.65" shape-rendering="crispEdges"/><rect fill="#131313" x="12.2" y="50.3" width="24.4" height="24.65" shape-rendering="crispEdges"/><rect fill="#131313" x="36.6" y="50.3" width="183" height="24.65" shape-rendering="crispEdges"/><rect fill="#131313" x="219.6" y="50.3" width="475.8" height="24.65" shape-rendering="crispEdges"/><rect fill="#131313" x="695.4" y="50.3" width="24.4" height="24.65" shape-rendering="crispEdges"/><rect fill="#131313" x="719.8" y="50.3" width="12.2" height="24.65" shape-rendering="crispEdges"/><rect fill="#0f0f0f" x="732" y="50.3" width="634.4" height="24.65" shape-rendering="crispEdges"/><rect fill="#131313" x="0" y="74.7" width="12.2" height="24.65" shape-rendering="crispEdges"/><rect fill="#131313" x="12.2" y="74.7" width="24.4" height="24.65" shape-rendering="crispEdges"/><rect fill="#131313" x="36.6" y="74.7" width="658.8" height="24.65" shape-rendering="crispEdges"/><rect fill="#131313" x="695.4" y="74.7" width="24.4" height="24.65" shape-rendering="crispEdges"/><rect fill="#131313" x="719.8" y="74.7" width="12.2" height="24.65" shape-rendering="crispEdges"/><rect fill="#0f0f0f" x="732" y="74.7" width="634.4" height="24.65" shape-rendering="crispEdges"/><rect fill="#131313" x="0" y="99.1" width="12.2" height="24.65" shape-rendering="crispEdges"/><rect fill="#131313" x="12.2" y="99.1" width="24.4" height="24.65" shape-rendering="crispEdges"/><rect fill="#131313" x="36.6" y="99.1" width="61" height="24.65" shape-rendering="crispEdges"/><rect fill="#131313" x="97.6" y="99.1" width="597.8" height="24.65" shape-rendering="crispEdges"/><rect fill="#131313" x="695.4" y="99.1" width="24.4" height="24.65" shape-rendering="crispEdges"/><rect fill="#131313" x="719.8" y="99.1" width="12.2" height="24.65" shape-rendering="crispEdges"/><rect fill="#0f0f0f" x="732" y="99.1" width="634.4" height="24.65" shape-rendering="crispEdges"/><rect fill="#131313" x="0" y="123.5" width="12.2" height="24.65" shape-rendering="crispEdges"/><rect fill="#131313" x="12.2" y="123.5" width="24.4" height="24.65" shape-rendering="crispEdges"/><rect fill="#656565" x="36.6" y="123.5" width="12.2" height="24.65" shape-rendering="crispEdges"/><rect fill="#272727" x="48.8" y="123.5" width="634.4" height="24.65" shape-rendering="crispEdges"/><rect fill="#131313" x="683.2" y="123.5" width="12.2" height="24.65" shape-rendering="crispEdges"/><rect fill="#131313" x="695.4" y="123.5" width="24.4" height="24.65" shape-rendering="crispEdges"/><rect fill="#131313" x="719.8" y="123.5" width="12.2" height="24.65" shape-rendering="crispEdges"/><rect fill="#0f0f0f" x="732" y="123.5" width="634.4" height="24.65" shape-rendering="crispEdges"/><rect fill="#131313" x="0" y="147.9" width="12.2" height="24.65" shape-rendering="crispEdges"/><rect fill="#131313" x="12.2" y="147.9" width="24.4" height="24.65" shape-rendering="crispEdges"/><rect fill="#656565" x="36.6" y="147.9" width="12.2" height="24.65" shape-rendering="crispEdges"/><rect fill="#272727" x="48.8" y="147.9" width="24.4" height="24.65" shape-rendering="crispEdges"/><rect fill="#4a4a4a" x="73.2" y="147.9" width="353.8" height="24.65" shape-rendering="crispEdges"/><rect fill="#e0e0e0" x="427" y="147.9" width="12.2" height="24.65" shape-rendering="crispEdges"/><rect fill="#272727" x="439.2" y="147.9" width="219.6" height="24.65" shape-rendering="crispEdges"/><rect fill="#272727" x="658.8" y="147.9" width="24.4" height="24.65" shape-rendering="crispEdges"/><rect fill="#131313" x="683.2" y="147.9" width="12.2" height="24.65" shape-rendering="crispEdges"/><rect fill="#131313" x="695.4" y="147.9" width="24.4" height="24.65" shape-rendering="crispEdges"/><rect fill="#131313" x="719.8" y="147.9" width="12.2" height="24.65" shape-rendering="crispEdges"/><rect fill="#0f0f0f" x="732" y="147.9" width="634.4" height="24.65" shape-rendering="crispEdges"/><rect fill="#131313" x="0" y="172.3" width="12.2" height="24.65" shape-rendering="crispEdges"/><rect fill="#131313" x="12.2" y="172.3" width="24.4" height="24.65" shape-rendering="crispEdges"/><rect fill="#656565" x="36.6" y="172.3" width="12.2" height="24.65" shape-rendering="crispEdges"/><rect fill="#272727" x="48.8" y="172.3" width="634.4" height="24.65" shape-rendering="crispEdges"/><rect fill="#131313" x="683.2" y="172.3" width="12.2" height="24.65" shape-rendering="crispEdges"/><rect fill="#131313" x="695.4" y="172.3" width="24.4" height="24.65" shape-rendering="crispEdges"/><rect fill="#131313" x="719.8" y="172.3" width="12.2" height="24.65" shape-rendering="crispEdges"/><rect fill="#0f0f0f" x="732" y="172.3" width="634.4" height="24.65" shape-rendering="crispEdges"/><rect fill="#131313" x="0" y="196.7" width="12.2" height="24.65" shape-rendering="crispEdges"/><rect fill="#131313" x="12.2" y="196.7" width="24.4" height="24.65" shape-rendering="crispEdges"/><rect fill="#131313" x="36.6" y="196.7" width="658.8" height="24.65" shape-rendering="crispEdges"/><rect fill="#131313" x="695.4" y="196.7" width="24.4" height="24.65" shape-rendering="crispEdges"/><rect fill="#131313" x="719.8" y="196.7" width="12.2" height="24.65" shape-rendering="crispEdges"/><rect fill="#0f0f0f" x="732" y="196.7" width="634.4" height="24.65" shape-rendering="crispEdges"/><rect fill="#131313" x="0" y="221.1" width="12.2" height="24.65" shape-rendering="crispEdges"/><rect fill="#131313" x="12.2" y="221.1" width="24.4" height="24.65" shape-rendering="crispEdges"/><rect fill="#131313" x="36.6" y="221.1" width="268.4" height="24.65" shape-rendering="crispEdges"/><rect fill="#131313" x="305" y="221.1" width="390.4" height="24.65" shape-rendering="crispEdges"/><rect fill="#131313" x="695.4" y="221.1" width="24.4" height="24.65" shape-rendering="crispEdges"/><rect fill="#131313" x="719.8" y="221.1" width="12.2" height="24.65" shape-rendering="crispEdges"/><rect fill="#0f0f0f" x="732" y="221.1" width="634.4" height="24.65" shape-rendering="crispEdges"/><rect fill="#131313" x="0" y="245.5" width="12.2" height="24.65" shape-rendering="crispEdges"/><rect fill="#131313" x="12.2" y="245.5" width="24.4" height="24.65" shape-rendering="crispEdges"/><rect fill="#191919" x="36.6" y="245.5" width="12.2" height="24.65" shape-rendering="crispEdges"/><rect fill="#1e1e1e" x="48.8" y="245.5" width="634.4" height="24.65" shape-rendering="crispEdges"/><rect fill="#131313" x="683.2" y="245.5" width="12.2" height="24.65" shape-rendering="crispEdges"/><rect fill="#131313" x="695.4" y="245.5" width="24.4" height="24.65" shape-rendering="crispEdges"/><rect fill="#131313" x="719.8" y="245.5" width="12.2" height="24.65" shape-rendering="crispEdges"/><rect fill="#0f0f0f" x="732" y="245.5" width="634.4" height="24.65" shape-rendering="crispEdges"/><rect fill="#131313" x="0" y="269.9" width="12.2" height="24.65" shape-rendering="crispEdges"/><rect fill="#131313" x="12.2" y="269.9" width="24.4" height="24.65" shape-rendering="crispEdges"/><rect fill="#191919" x="36.6" y="269.9" width="12.2" height="24.65" shape-rendering="crispEdges"/><rect fill="#1e1e1e" x="48.8" y="269.9" width="24.4" height="24.65" shape-rendering="crispEdges"/><rect fill="#1e1e1e" x="73.2" y="269.9" width="219.6" height="24.65" shape-rendering="crispEdges"/><rect fill="#1e1e1e" x="292.8" y="269.9" width="366" height="24.65" shape-rendering="crispEdges"/><rect fill="#1e1e1e" x="658.8" y="269.9" width="24.4" height="24.65" shape-rendering="crispEdges"/><rect fill="#131313" x="683.2" y="269.9" width="12.2" height="24.65" shape-rendering="crispEdges"/><rect fill="#131313" x="695.4" y="269.9" width="24.4" height="24.65" shape-rendering="crispEdges"/><rect fill="#131313" x="719.8" y="269.9" width="12.2" height="24.65" shape-rendering="crispEdges"/><rect fill="#0f0f0f" x="732" y="269.9" width="634.4" height="24.65" shape-rendering="crispEdges"/><rect fill="#131313" x="0" y="294.3" width="12.2" height="24.65" shape-rendering="crispEdges"/><rect fill="#131313" x="12.2" y="294.3" width="24.4" height="24.65" shape-rendering="crispEdges"/><rect fill="#191919" x="36.6" y="294.3" width="12.2" height="24.65" shape-rendering="crispEdges"/><rect fill="#1e1e1e" x="48.8" y="294.3" width="634.4" height="24.65" shape-rendering="crispEdges"/><rect fill="#131313" x="683.2" y="294.3" width="12.2" height="24.65" shape-rendering="crispEdges"/><rect fill="#131313" x="695.4" y="294.3" width="24.4" height="24.65" shape-rendering="crispEdges"/><rect fill="#131313" x="719.8" y="294.3" width="12.2" height="24.65" shape-rendering="crispEdges"/><rect fill="#0f0f0f" x="732" y="294.3" width="634.4" height="24.65" shape-rendering="crispEdges"/><rect fill="#131313" x="0" y="318.7" width="12.2" height="24.65" shape-rendering="crispEdges"/><rect fill="#131313" x="12.2" y="318.7" width="24.4" height="24.65" shape-rendering="crispEdges"/><rect fill="#131313" x="36.6" y="318.7" width="658.8" height="24.65" shape-rendering="crispEdges"/><rect fill="#131313" x="695.4" y="318.7" width="24.4" height="24.65" shape-rendering="crispEdges"/><rect fill="#131313" x="719.8" y="318.7" width="12.2" height="24.65" shape-rendering="crispEdges"/><rect fill="#0f0f0f" x="732" y="318.7" width="634.4" height="24.65" shape-rendering="crispEdges"/><rect fill="#131313" x="0" y="343.1" width="12.2" height="24.65" shape-rendering="crispEdges"/><rect fill="#131313" x="12.2" y="343.1" width="24.4" height="24.65" shape-rendering="crispEdges"/><rect fill="#131313" x="36.6" y="343.1" width="12.2" height="24.65" shape-rendering="crispEdges"/><rect fill="#1e1e1e" x="48.8" y="343.1" width="195.2" height="24.65" shape-rendering="crispEdges"/><rect fill="#131313" x="244" y="343.1" width="12.2" height="24.65" shape-rendering="crispEdges"/><rect fill="#656565" x="256.2" y="343.1" width="195.2" height="24.65" shape-rendering="crispEdges"/><rect fill="#131313" x="451.4" y="343.1" width="244" height="24.65" shape-rendering="crispEdges"/><rect fill="#131313" x="695.4" y="343.1" width="24.4" height="24.65" shape-rendering="crispEdges"/><rect fill="#131313" x="719.8" y="343.1" width="12.2" height="24.65" shape-rendering="crispEdges"/><rect fill="#0f0f0f" x="732" y="343.1" width="634.4" height="24.65" shape-rendering="crispEdges"/><rect fill="#131313" x="0" y="367.5" width="12.2" height="24.65" shape-rendering="crispEdges"/><rect fill="#131313" x="12.2" y="367.5" width="24.4" height="24.65" shape-rendering="crispEdges"/><rect fill="#131313" x="36.6" y="367.5" width="12.2" height="24.65" shape-rendering="crispEdges"/><rect fill="#1e1e1e" x="48.8" y="367.5" width="48.8" height="24.65" shape-rendering="crispEdges"/><rect fill="#1e1e1e" x="97.6" y="367.5" width="97.6" height="24.65" shape-rendering="crispEdges"/><rect fill="#1e1e1e" x="195.2" y="367.5" width="48.8" height="24.65" shape-rendering="crispEdges"/><rect fill="#131313" x="244" y="367.5" width="12.2" height="24.65" shape-rendering="crispEdges"/><rect fill="#656565" x="256.2" y="367.5" width="61" height="24.65" shape-rendering="crispEdges"/><rect fill="#656565" x="317.2" y="367.5" width="73.2" height="24.65" shape-rendering="crispEdges"/><rect fill="#656565" x="390.4" y="367.5" width="61" height="24.65" shape-rendering="crispEdges"/><rect fill="#131313" x="451.4" y="367.5" width="244" height="24.65" shape-rendering="crispEdges"/><rect fill="#131313" x="695.4" y="367.5" width="24.4" height="24.65" shape-rendering="crispEdges"/><rect fill="#131313" x="719.8" y="367.5" width="12.2" height="24.65" shape-rendering="crispEdges"/><rect fill="#0f0f0f" x="732" y="367.5" width="634.4" height="24.65" shape-rendering="crispEdges"/><rect fill="#131313" x="0" y="391.9" width="12.2" height="24.65" shape-rendering="crispEdges"/><rect fill="#131313" x="12.2" y="391.9" width="24.4" height="24.65" shape-rendering="crispEdges"/><rect fill="#131313" x="36.6" y="391.9" width="12.2" height="24.65" shape-rendering="crispEdges"/><rect fill="#1e1e1e" x="48.8" y="391.9" width="195.2" height="24.65" shape-rendering="crispEdges"/><rect fill="#131313" x="244" y="391.9" width="12.2" height="24.65" shape-rendering="crispEdges"/><rect fill="#656565" x="256.2" y="391.9" width="195.2" height="24.65" shape-rendering="crispEdges"/><rect fill="#131313" x="451.4" y="391.9" width="244" height="24.65" shape-rendering="crispEdges"/><rect fill="#131313" x="695.4" y="391.9" width="24.4" height="24.65" shape-rendering="crispEdges"/><rect fill="#131313" x="719.8" y="391.9" width="12.2" height="24.65" shape-rendering="crispEdges"/><rect fill="#0f0f0f" x="732" y="391.9" width="634.4" height="24.65" shape-rendering="crispEdges"/><rect fill="#131313" x="0" y="416.3" width="12.2" height="24.65" shape-rendering="crispEdges"/><rect fill="#131313" x="12.2" y="416.3" width="24.4" height="24.65" shape-rendering="crispEdges"/><rect fill="#131313" x="36.6" y="416.3" width="658.8" height="24.65" shape-rendering="crispEdges"/><rect fill="#131313" x="695.4" y="416.3" width="24.4" height="24.65" shape-rendering="crispEdges"/><rect fill="#131313" x="719.8" y="416.3" width="12.2" height="24.65" shape-rendering="crispEdges"/><rect fill="#0f0f0f" x="732" y="416.3" width="634.4" height="24.65" shape-rendering="crispEdges"/><rect fill="#131313" x="0" y="440.7" width="12.2" height="24.65" shape-rendering="crispEdges"/><rect fill="#131313" x="12.2" y="440.7" width="24.4" height="24.65" shape-rendering="crispEdges"/><rect fill="#131313" x="36.6" y="440.7" width="658.8" height="24.65" shape-rendering="crispEdges"/><rect fill="#131313" x="695.4" y="440.7" width="24.4" height="24.65" shape-rendering="crispEdges"/><rect fill="#131313" x="719.8" y="440.7" width="12.2" height="24.65" shape-rendering="crispEdges"/><rect fill="#0f0f0f" x="732" y="440.7" width="634.4" height="24.65" shape-rendering="crispEdges"/><rect fill="#131313" x="0" y="465.1" width="12.2" height="24.65" shape-rendering="crispEdges"/><rect fill="#131313" x="12.2" y="465.1" width="24.4" height="24.65" shape-rendering="crispEdges"/><rect fill="#131313" x="36.6" y="465.1" width="658.8" height="24.65" shape-rendering="crispEdges"/><rect fill="#131313" x="695.4" y="465.1" width="24.4" height="24.65" shape-rendering="crispEdges"/><rect fill="#131313" x="719.8" y="465.1" width="12.2" height="24.65" shape-rendering="crispEdges"/><rect fill="#0f0f0f" x="732" y="465.1" width="634.4" height="24.65" shape-rendering="crispEdges"/><rect fill="#131313" x="0" y="489.5" width="12.2" height="24.65" shape-rendering="crispEdges"/><rect fill="#131313" x="12.2" y="489.5" width="24.4" height="24.65" shape-rendering="crispEdges"/><rect fill="#131313" x="36.6" y="489.5" width="658.8" height="24.65" shape-rendering="crispEdges"/><rect fill="#131313" x="695.4" y="489.5" width="24.4" height="24.65" shape-rendering="crispEdges"/><rect fill="#131313" x="719.8" y="489.5" width="12.2" height="24.65" shape-rendering="crispEdges"/><rect fill="#0f0f0f" x="732" y="489.5" width="634.4" height="24.65" shape-rendering="crispEdges"/><rect fill="#131313" x="0" y="513.9" width="12.2" height="24.65" shape-rendering="crispEdges"/><rect fill="#131313" x="12.2" y="513.9" width="24.4" height="24.65" shape-rendering="crispEdges"/><rect fill="#131313" x="36.6" y="513.9" width="658.8" height="24.65" shape-rendering="crispEdges"/><rect fill="#131313" x="695.4" y="513.9" width="24.4" height="24.65" shape-rendering="crispEdges"/><rect fill="#131313" x="719.8" y="513.9" width="12.2" height="24.65" shape-rendering="crispEdges"/><rect fill="#0f0f0f" x="732" y="513.9" width="634.4" height="24.65" shape-rendering="crispEdges"/><rect fill="#131313" x="0" y="538.3" width="12.2" height="24.65" shape-rendering="crispEdges"/><rect fill="#131313" x="12.2" y="538.3" width="24.4" height="24.65" shape-rendering="crispEdges"/><rect fill="#131313" x="36.6" y="538.3" width="658.8" height="24.65" shape-rendering="crispEdges"/><rect fill="#131313" x="695.4" y="538.3" width="24.4" height="24.65" shape-rendering="crispEdges"/><rect fill="#131313" x="719.8" y="538.3" width="12.2" height="24.65" shape-rendering="crispEdges"/><rect fill="#0f0f0f" x="732" y="538.3" width="634.4" height="24.65" shape-rendering="crispEdges"/><rect fill="#131313" x="0" y="562.7" width="12.2" height="24.65" shape-rendering="crispEdges"/><rect fill="#131313" x="12.2" y="562.7" width="24.4" height="24.65" shape-rendering="crispEdges"/><rect fill="#131313" x="36.6" y="562.7" width="658.8" height="24.65" shape-rendering="crispEdges"/><rect fill="#131313" x="695.4" y="562.7" width="24.4" height="24.65" shape-rendering="crispEdges"/><rect fill="#131313" x="719.8" y="562.7" width="12.2" height="24.65" shape-rendering="crispEdges"/><rect fill="#0f0f0f" x="732" y="562.7" width="634.4" height="24.65" shape-rendering="crispEdges"/><rect fill="#131313" x="0" y="587.1" width="12.2" height="24.65" shape-rendering="crispEdges"/><rect fill="#131313" x="12.2" y="587.1" width="24.4" height="24.65" shape-rendering="crispEdges"/><rect fill="#131313" x="36.6" y="587.1" width="658.8" height="24.65" shape-rendering="crispEdges"/><rect fill="#131313" x="695.4" y="587.1" width="24.4" height="24.65" shape-rendering="crispEdges"/><rect fill="#131313" x="719.8" y="587.1" width="12.2" height="24.65" shape-rendering="crispEdges"/><rect fill="#0f0f0f" x="732" y="587.1" width="634.4" height="24.65" shape-rendering="crispEdges"/><rect fill="#131313" x="0" y="611.5" width="12.2" height="24.65" shape-rendering="crispEdges"/><rect fill="#131313" x="12.2" y="611.5" width="24.4" height="24.65" shape-rendering="crispEdges"/><rect fill="#131313" x="36.6" y="611.5" width="658.8" height="24.65" shape-rendering="crispEdges"/><rect fill="#131313" x="695.4" y="611.5" width="24.4" height="24.65" shape-rendering="crispEdges"/><rect fill="#131313" x="719.8" y="611.5" width="12.2" height="24.65" shape-rendering="crispEdges"/><rect fill="#0f0f0f" x="732" y="611.5" width="634.4" height="24.65" shape-rendering="crispEdges"/><rect fill="#131313" x="0" y="635.9" width="12.2" height="24.65" shape-rendering="crispEdges"/><rect fill="#131313" x="12.2" y="635.9" width="24.4" height="24.65" shape-rendering="crispEdges"/><rect fill="#131313" x="36.6" y="635.9" width="658.8" height="24.65" shape-rendering="crispEdges"/><rect fill="#131313" x="695.4" y="635.9" width="24.4" height="24.65" shape-rendering="crispEdges"/><rect fill="#131313" x="719.8" y="635.9" width="12.2" height="24.65" shape-rendering="crispEdges"/><rect fill="#0f0f0f" x="732" y="635.9" width="634.4" height="24.65" shape-rendering="crispEdges"/><rect fill="#131313" x="0" y="660.3" width="12.2" height="24.65" shape-rendering="crispEdges"/><rect fill="#131313" x="12.2" y="660.3" width="24.4" height="24.65" shape-rendering="crispEdges"/><rect fill="#131313" x="36.6" y="660.3" width="658.8" height="24.65" shape-rendering="crispEdges"/><rect fill="#131313" x="695.4" y="660.3" width="24.4" height="24.65" shape-rendering="crispEdges"/><rect fill="#131313" x="719.8" y="660.3" width="12.2" height="24.65" shape-rendering="crispEdges"/><rect fill="#0f0f0f" x="732" y="660.3" width="634.4" height="24.65" shape-rendering="crispEdges"/><rect fill="#131313" x="0" y="684.7" width="12.2" height="24.65" shape-rendering="crispEdges"/><rect fill="#131313" x="12.2" y="684.7" width="24.4" height="24.65" shape-rendering="crispEdges"/><rect fill="#131313" x="36.6" y="684.7" width="658.8" height="24.65" shape-rendering="crispEdges"/><rect fill="#131313" x="695.4" y="684.7" width="24.4" height="24.65" shape-rendering="crispEdges"/><rect fill="#131313" x="719.8" y="684.7" width="12.2" height="24.65" shape-rendering="crispEdges"/><rect fill="#0f0f0f" x="732" y="684.7" width="634.4" height="24.65" shape-rendering="crispEdges"/><rect fill="#131313" x="0" y="709.1" width="12.2" height="24.65" shape-rendering="crispEdges"/><rect fill="#131313" x="12.2" y="709.1" width="24.4" height="24.65" shape-rendering="crispEdges"/><rect fill="#131313" x="36.6" y="709.1" width="658.8" height="24.65" shape-rendering="crispEdges"/><rect fill="#131313" x="695.4" y="709.1" width="24.4" height="24.65" shape-rendering="crispEdges"/><rect fill="#131313" x="719.8" y="709.1" width="12.2" height="24.65" shape-rendering="crispEdges"/><rect fill="#0f0f0f" x="732" y="709.1" width="634.4" height="24.65" shape-rendering="crispEdges"/><rect fill="#131313" x="0" y="733.5" width="12.2" height="24.65" shape-rendering="crispEdges"/><rect fill="#131313" x="12.2" y="733.5" width="707.6" height="24.65" shape-rendering="crispEdges"/><rect fill="#131313" x="719.8" y="733.5" width="12.2" height="24.65" shape-rendering="crispEdges"/><rect fill="#0f0f0f" x="732" y="733.5" width="634.4" height="24.65" shape-rendering="crispEdges"/><rect fill="#131313" x="0" y="757.9" width="12.2" height="24.65" shape-rendering="crispEdges"/><rect fill="#131313" x="12.2" y="757.9" width="707.6" height="24.65" shape-rendering="crispEdges"/><rect fill="#131313" x="719.8" y="757.9" width="12.2" height="24.65" shape-rendering="crispEdges"/><rect fill="#0f0f0f" x="732" y="757.9" width="634.4" height="24.65" shape-rendering="crispEdges"/>
    <g class="terminal-3926873217-matrix">
    <text class="terminal-3926873217-r1" x="0" y="20" textLength="12.2" clip-path="url(#terminal-3926873217-line-0)">╭</text><text class="terminal-3926873217-r1" x="12.2" y="20" textLength="707.6" clip-path="url(#terminal-3926873217-line-0)">──────────────────────────────────────────────────────────</text><text class="terminal-3926873217-r1" x="719.8" y="20" textLength="12.2" clip-path="url(#terminal-3926873217-line-0)">╮</text><text class="terminal-3926873217-r2" x="1366.4" y="20" textLength="12.2" clip-path="url(#terminal-3926873217-line-0)">
</text><text class="terminal-3926873217-r1" x="0" y="44.4" textLength="12.2" clip-path="url(#terminal-3926873217-line-1)">│</text><text class="terminal-3926873217-r1" x="719.8" y="44.4" textLength="12.2" clip-path="url(#terminal-3926873217-line-1)">│</text><text class="terminal-3926873217-r2" x="1366.4" y="44.4" textLength="12.2" clip-path="url(#terminal-3926873217-line-1)">
</text><text class="terminal-3926873217-r1" x="0" y="68.8" textLength="12.2" clip-path="url(#terminal-3926873217-line-2)">│</text><text class="terminal-3926873217-r3" x="36.6" y="68.8" textLength="183" clip-path="url(#terminal-3926873217-line-2)">Meeting&#160;Details</text><text class="terminal-3926873217-r1" x="719.8" y="68.8" textLength="12.2" clip-path="url(#terminal-3926873217-line-2)">│</text><text class="terminal-3926873217-r2" x="1366.4" y="68.8" textLength="12.2" clip-path="url(#terminal-3926873217-line-2)">
</text><text class="terminal-3926873217-r1" x="0" y="93.2" textLength="12.2" clip-path="url(#terminal-3926873217-line-3)">│</text><text class="terminal-3926873217-r1" x="719.8" y="93.2" textLength="12.2" clip-path="url(#terminal-3926873217-line-3)">│</text><text class="terminal-3926873217-r2" x="1366.4" y="93.2" textLength="12.2" clip-path="url(#terminal-3926873217-line-3)">
</text><text class="terminal-3926873217-r1" x="0" y="117.6" textLength="12.2" clip-path="url(#terminal-3926873217-line-4)">│</text><text class="terminal-3926873217-r4" x="36.6" y="117.6" textLength="61" clip-path="url(#terminal-3926873217-line-4)">Title</text><text class="terminal-3926873217-r1" x="719.8" y="117.6" textLength="12.2" clip-path="url(#terminal-3926873217-line-4)">│</text><text class="terminal-3926873217-r2" x="1366.4" y="117.6" textLength="12.2" clip-path="url(#terminal-3926873217-line-4)">
</text><text class="terminal-3926873217-r1" x="0" y="142" textLength="12.2" clip-path="url(#terminal-3926873217-line-5)">│</text><text class="terminal-3926873217-r5" x="36.6" y="142" textLength="12.2" clip-path="url(#terminal-3926873217-line-5)">▊</text><text class="terminal-3926873217-r6" x="48.8" y="142" textLength="634.4" clip-path="url(#terminal-3926873217-line-5)">▔▔▔▔▔▔▔▔▔▔▔▔▔▔▔▔▔▔▔▔▔▔▔▔▔▔▔▔▔▔▔▔▔▔▔▔▔▔▔▔▔▔▔▔▔▔▔▔▔▔▔▔</text><text class="terminal-3926873217-r6" x="683.2" y="142" textLength="12.2" clip-path="url(#terminal-3926873217-line-5)">▎</text><text class="terminal-3926873217-r1" x="719.8" y="142" textLength="12.2" clip-path="url(#terminal-3926873217-line-5)">│</text><text class="terminal-3926873217-r2" x="1366.4" y="142" textLength="12.2" clip-path="url(#terminal-3926873217-line-5)">
</text><text class="terminal-3926873217-r1" x="0" y="166.4" textLength="12.2" clip-path="url(#terminal-3926873217-line-6)">│</text><text class="terminal-3926873217-r5" x="36.6" y="166.4" textLength="12.2" clip-path="url(#terminal-3926873217-line-6)">▊</text><text class="terminal-3926873217-r7" x="73.2" y="166.4" textLength="353.8" clip-path="url(#terminal-3926873217-line-6)">Q1&#160;Planning&#160;&amp;&#160;Auth&#160;Discussion</text><text class="terminal-3926873217-r6" x="683.2" y="166.4" textLength="12.2" clip-path="url(#terminal-3926873217-line-6)">▎</text><text class="terminal-3926873217-r1" x="719.8" y="166.4" textLength="12.2" clip-path="url(#terminal-3926873217-line-6)">│</text><text class="terminal-3926873217-r2" x="1366.4" y="166.4" textLength="12.2" clip-path="url(#terminal-3926873217-line-6)">
</text><text class="terminal-3926873217-r1" x="0" y="190.8" textLength="12.2" clip-path="url(#terminal-3926873217-line-7)">│</text><text class="terminal-3926873217-r5" x="36.6" y="190.8" textLength="12.2" clip-path="url(#terminal-3926873217-line-7)">▊</text><text class="terminal-3926873217-r6" x="48.8" y="190.8" textLength="634.4" clip-path="url(#terminal-3926873217-line-7)">▁▁▁▁▁▁▁▁▁▁▁▁▁▁▁▁▁▁▁▁▁▁▁▁▁▁▁▁▁▁▁▁▁▁▁▁▁▁▁▁▁▁▁▁▁▁▁▁▁▁▁▁</text><text class="terminal-3926873217-r6" x="683.2" y="190.8" textLength="12.2" clip-path="url(#terminal-3926873217-line-7)">▎</text><text class="terminal-3926873217-r1" x="719.8" y="190.8" textLength="12.2" clip-path="url(#terminal-3926873217-line-7)">│</text><text class="terminal-3926873217-r2" x="1366.4" y="190.8" textLength="12.2" clip-path="url(#terminal-3926873217-line-7)">
</text><text class="terminal-3926873217-r1" x="0" y="215.2" textLength="12.2" clip-path="url(#terminal-3926873217-line-8)">│</text><text class="terminal-3926873217-r1" x="719.8" y="215.2" textLength="12.2" clip-path="url(#terminal-3926873217-line-8)">│</text><text class="terminal-3926873217-r2" x="1366.4" y="215.2" textLength="12.2" clip-path="url(#terminal-3926873217-line-8)">
</text><text class="terminal-3926873217-r1" x="0" y="239.6" textLength="12.2" clip-path="url(#terminal-3926873217-line-9)">│</text><text class="terminal-3926873217-r4" x="36.6" y="239.6" textLength="268.4" clip-path="url(#terminal-3926873217-line-9)">Tags&#160;(comma-separated)</text><text class="terminal-3926873217-r1" x="719.8" y="239.6" textLength="12.2" clip-path="url(#terminal-3926873217-line-9)">│</text><text class="terminal-3926873217-r2" x="1366.4" y="239.6" textLength="12.2" clip-path="url(#terminal-3926873217-line-9)">
</text><text class="terminal-3926873217-r1" x="0" y="264" textLength="12.2" clip-path="url(#terminal-3926873217-line-10)">│</text><text class="terminal-3926873217-r5" x="36.6" y="264" textLength="12.2" clip-path="url(#terminal-3926873217-line-10)">▊</text><text class="terminal-3926873217-r9" x="48.8" y="264" textLength="634.4" clip-path="url(#terminal-3926873217-line-10)">▔▔▔▔▔▔▔▔▔▔▔▔▔▔▔▔▔▔▔▔▔▔▔▔▔▔▔▔▔▔▔▔▔▔▔▔▔▔▔▔▔▔▔▔▔▔▔▔▔▔▔▔</text><text class="terminal-3926873217-r9" x="683.2" y="264" textLength="12.2" clip-path="url(#terminal-3926873217-line-10)">▎</text><text class="terminal-3926873217-r1" x="719.8" y="264" textLength="12.2" clip-path="url(#terminal-3926873217-line-10)">│</text><text class="terminal-3926873217-r2" x="1366.4" y="264" textLength="12.2" clip-path="url(#terminal-3926873217-line-10)">
</text><text class="terminal-3926873217-r1" x="0" y="288.4" textLength="12.2" clip-path="url(#terminal-3926873217-line-11)">│</text><text class="terminal-3926873217-r5" x="36.6" y="288.4" textLength="12.2" clip-path="url(#terminal-3926873217-line-11)">▊</text><text class="terminal-3926873217-r7" x="73.2" y="288.4" textLength="219.6" clip-path="url(#terminal-3926873217-line-11)">planning,&#160;auth,&#160;q1</text><text class="terminal-3926873217-r9" x="683.2" y="288.4" textLength="12.2" clip-path="url(#terminal-3926873217-line-11)">▎</text><text class="terminal-3926873217-r1" x="719.8" y="288.4" textLength="12.2" clip-path="url(#terminal-3926873217-line-11)">│</text><text class="terminal-3926873217-r2" x="1366.4" y="288.4" textLength="12.2" clip-path="url(#terminal-3926873217-line-11)">
</text><text class="terminal-3926873217-r1" x="0" y="312.8" textLength="12.2" clip-path="url(#terminal-3926873217-line-12)">│</text><text class="terminal-3926873217-r5" x="36.6" y="312.8" textLength="12.2" clip-path="url(#terminal-3926873217-line-12)">▊</text><text class="terminal-3926873217-r9" x="48.8" y="312.8" textLength="634.4" clip-path="url(#terminal-3926873217-line-12)">▁▁▁▁▁▁▁▁▁▁▁▁▁▁▁▁▁▁▁▁▁▁▁▁▁▁▁▁▁▁▁▁▁▁▁▁▁▁▁▁▁▁▁▁▁▁▁▁▁▁▁▁</text><text class="terminal-3926873217-r9" x="683.2" y="312.8" textLength="12.2" clip-path="url(#terminal-3926873217-line-12)">▎</text><text class="terminal-3926873217-r1" x="719.8" y="312.8" textLength="12.2" clip-path="url(#terminal-3926873217-line-12)">│</text><text class="terminal-3926873217-r2" x="1366.4" y="312.8" textLength="12.2" clip-path="url(#terminal-3926873217-line-12)">
</text><text class="terminal-3926873217-r1" x="0" y="337.2" textLength="12.2" clip-path="url(#terminal-3926873217-line-13)">│</text><text class="terminal-3926873217-r1" x="719.8" y="337.2" textLength="12.2" clip-path="url(#terminal-3926873217-line-13)">│</text><text class="terminal-3926873217-r2" x="1366.4" y="337.2" textLength="12.2" clip-path="url(#terminal-3926873217-line-13)">
</text><text class="terminal-3926873217-r1" x="0" y="361.6" textLength="12.2" clip-path="url(#terminal-3926873217-line-14)">│</text><text class="terminal-3926873217-r10" x="48.8" y="361.6" textLength="195.2" clip-path="url(#terminal-3926873217-line-14)">▔▔▔▔▔▔▔▔▔▔▔▔▔▔▔▔</text><text class="terminal-3926873217-r11" x="256.2" y="361.6" textLength="195.2" clip-path="url(#terminal-3926873217-line-14)">▔▔▔▔▔▔▔▔▔▔▔▔▔▔▔▔</text><text class="terminal-3926873217-r1" x="719.8" y="361.6" textLength="12.2" clip-path="url(#terminal-3926873217-line-14)">│</text><text class="terminal-3926873217-r2" x="1366.4" y="361.6" textLength="12.2" clip-path="url(#terminal-3926873217-line-14)">
</text><text class="terminal-3926873217-r1" x="0" y="386" textLength="12.2" clip-path="url(#terminal-3926873217-line-15)">│</text><text class="terminal-3926873217-r12" x="97.6" y="386" textLength="97.6" clip-path="url(#terminal-3926873217-line-15)">&#160;Cancel&#160;</text><text class="terminal-3926873217-r13" x="317.2" y="386" textLength="73.2" clip-path="url(#terminal-3926873217-line-15)">&#160;Save&#160;</text><text class="terminal-3926873217-r1" x="719.8" y="386" textLength="12.2" clip-path="url(#terminal-3926873217-line-15)">│</text><text class="terminal-3926873217-r2" x="1366.4" y="386" textLength="12.2" clip-path="url(#terminal-3926873217-line-15)">
</text><text class="terminal-3926873217-r1" x="0" y="410.4" textLength="12.2" clip-path="url(#terminal-3926873217-line-16)">│</text><text class="terminal-3926873217-r14" x="48.8" y="410.4" textLength="195.2" clip-path="url(#terminal-3926873217-line-16)">▁▁▁▁▁▁▁▁▁▁▁▁▁▁▁▁</text><text class="terminal-3926873217-r15" x="256.2" y="410.4" textLength="195.2" clip-path="url(#terminal-3926873217-line-16)">▁▁▁▁▁▁▁▁▁▁▁▁▁▁▁▁</text><text class="terminal-3926873217-r1" x="719.8" y="410.4" textLength="12.2" clip-path="url(#terminal-3926873217-line-16)">│</text><text class="terminal-3926873217-r2" x="1366.4" y="410.4" textLength="12.2" clip-path="url(#terminal-3926873217-line-16)">
</text><text class="terminal-3926873217-r1" x="0" y="434.8" textLength="12.2" clip-path="url(#terminal-3926873217-line-17)">│</text><text class="terminal-3926873217-r1" x="719.8" y="434.8" textLength="12.2" clip-path="url(#terminal-3926873217-line-17)">│</text><text class="terminal-3926873217-r2" x="1366.4" y="434.8" textLength="12.2" clip-path="url(#terminal-3926873217-line-17)">
</text><text class="terminal-3926873217-r1" x="0" y="459.2" textLength="12.2" clip-path="url(#terminal-3926873217-line-18)">│</text><text class="terminal-3926873217-r1" x="719.8" y="459.2" textLength="12.2" clip-path="url(#terminal-3926873217-line-18)">│</text><text class="terminal-3926873217-r2" x="1366.4" y="459.2" textLength="12.2" clip-path="url(#terminal-3926873217-line-18)">
</text><text class="terminal-3926873217-r1" x="0" y="483.6" textLength="12.2" clip-path="url(#terminal-3926873217-line-19)">│</text><text class="terminal-3926873217-r1" x="719.8" y="483.6" textLength="12.2" clip-path="url(#terminal-3926873217-line-19)">│</text><text class="terminal-3926873217-r2" x="1366.4" y="483.6" textLength="12.2" clip-path="url(#terminal-3926873217-line-19)">
</text><text class="terminal-3926873217-r1" x="0" y="508" textLength="12.2" clip-path="url(#terminal-3926873217-line-20)">│</text><text class="terminal-3926873217-r1" x="719.8" y="508" textLength="12.2" clip-path="url(#terminal-3926873217-line-20)">│</text><text class="terminal-3926873217-r2" x="1366.4" y="508" textLength="12.2" clip-path="url(#terminal-3926873217-line-20)">
</text><text class="terminal-3926873217-r1" x="0" y="532.4" textLength="12.2" clip-path="url(#terminal-3926873217-line-21)">│</text><text class="terminal-3926873217-r1" x="719.8" y="532.4" textLength="12.2" clip-path="url(#terminal-3926873217-line-21)">│</text><text class="terminal-3926873217-r2" x="1366.4" y="532.4" textLength="12.2" clip-path="url(#terminal-3926873217-line-21)">
</text><text class="terminal-3926873217-r1" x="0" y="556.8" textLength="12.2" clip-path="url(#terminal-3926873217-line-22)">│</text><text class="terminal-3926873217-r1" x="719.8" y="556.8" textLength="12.2" clip-path="url(#terminal-3926873217-line-22)">│</text><text class="terminal-3926873217-r2" x="1366.4" y="556.8" textLength="12.2" clip-path="url(#terminal-3926873217-line-22)">
</text><text class="terminal-3926873217-r1" x="0" y="581.2" textLength="12.2" clip-path="url(#terminal-3926873217-line-23)">│</text><text class="terminal-3926873217-r1" x="719.8" y="581.2" textLength="12.2" clip-path="url(#terminal-3926873217-line-23)">│</text><text class="terminal-3926873217-r2" x="1366.4" y="581.2" textLength="12.2" clip-path="url(#terminal-3926873217-line-23)">
</text><text class="terminal-3926873217-r1" x="0" y="605.6" textLength="12.2" clip-path="url(#terminal-3926873217-line-24)">│</text><text class="terminal-3926873217-r1" x="719.8" y="605.6" textLength="12.2" clip-path="url(#terminal-3926873217-line-24)">│</text><text class="terminal-3926873217-r2" x="1366.4" y="605.6" textLength="12.2" clip-path="url(#terminal-3926873217-line-24)">
</text><text class="terminal-3926873217-r1" x="0" y="630" textLength="12.2" clip-path="url(#terminal-3926873217-line-25)">│</text><text class="terminal-3926873217-r1" x="719.8" y="630" textLength="12.2" clip-path="url(#terminal-3926873217-line-25)">│</text><text class="terminal-3926873217-r2" x="1366.4" y="630" textLength="12.2" clip-path="url(#terminal-3926873217-line-25)">
</text><text class="terminal-3926873217-r1" x="0" y="654.4" textLength="12.2" clip-path="url(#terminal-3926873217-line-26)">│</text><text class="terminal-3926873217-r1" x="719.8" y="654.4" textLength="12.2" clip-path="url(#terminal-3926873217-line-26)">│</text><text class="terminal-3926873217-r2" x="1366.4" y="654.4" textLength="12.2" clip-path="url(#terminal-3926873217-line-26)">
</text><text class="terminal-3926873217-r1" x="0" y="678.8" textLength="12.2" clip-path="url(#terminal-3926873217-line-27)">│</text><text class="terminal-3926873217-r1" x="719.8" y="678.8" textLength="12.2" clip-path="url(#terminal-3926873217-line-27)">│</text><text class="terminal-3926873217-r2" x="1366.4" y="678.8" textLength="12.2" clip-path="url(#terminal-3926873217-line-27)">
</text><text class="terminal-3926873217-r1" x="0" y="703.2" textLength="12.2" clip-path="url(#terminal-3926873217-line-28)">│</text><text class="terminal-3926873217-r1" x="719.8" y="703.2" textLength="12.2" clip-path="url(#terminal-3926873217-line-28)">│</text><text class="terminal-3926873217-r2" x="1366.4" y="703.2" textLength="12.2" clip-path="url(#terminal-3926873217-line-28)">
</text><text class="terminal-3926873217-r1" x="0" y="727.6" textLength="12.2" clip-path="url(#terminal-3926873217-line-29)">│</text><text class="terminal-3926873217-r1" x="719.8" y="727.6" textLength="12.2" clip-path="url(#terminal-3926873217-line-29)">│</text><text class="terminal-3926873217-r2" x="1366.4" y="727.6" textLength="12.2" clip-path="url(#terminal-3926873217-line-29)">
</text><text class="terminal-3926873217-r1" x="0" y="752" textLength="12.2" clip-path="url(#terminal-3926873217-line-30)">│</text><text class="terminal-3926873217-r1" x="719.8" y="752" textLength="12.2" clip-path="url(#terminal-3926873217-line-30)">│</text><text class="terminal-3926873217-r2" x="1366.4" y="752" textLength="12.2" clip-path="url(#terminal-3926873217-line-30)">
</text><text class="terminal-3926873217-r1" x="0" y="776.4" textLength="12.2" clip-path="url(#terminal-3926873217-line-31)">╰</text><text class="terminal-3926873217-r1" x="12.2" y="776.4" textLength="707.6" clip-path="url(#terminal-3926873217-line-31)">──────────────────────────────────────────────────────────</text><text class="terminal-3926873217-r1" x="719.8" y="776.4" textLength="12.2" clip-path="url(#terminal-3926873217-line-31)">╯</text>
    </g>
    </g>
</svg>
