<svg class="rich-terminal" viewBox="0 0 1385 782.0" xmlns="http://www.w3.org/2000/svg">
    <!-- Generated with Rich https://www.textualize.io -->
    <style>

    @font-face {
        font-family: "Fira Code";
        src: local("FiraCode-Regular"),
                url("https://cdnjs.cloudflare.com/ajax/libs/firacode/6.2.0/woff2/FiraCode-Regular.woff2") format("woff2"),
                url("https://cdnjs.cloudflare.com/ajax/libs/firacode/6.2.0/woff/FiraCode-Regular.woff") format("woff");
        font-style: normal;
        font-weight: 400;
    }
    @font-face {
        font-family: "Fira Code";
        src: local("FiraCode-Bold"),
                url("https://cdnjs.cloudflare.com/ajax/libs/firacode/6.2.0/woff2/FiraCode-Bold.woff2") format("woff2"),
                url("https://cdnjs.cloudflare.com/ajax/libs/firacode/6.2.0/woff/FiraCode-Bold.woff") format("woff");
        font-style: bold;
        font-weight: 700;
    }

    .terminal-2350340225-matrix {
        font-family: Fira Code, monospace;
        font-size: 20px;
        line-height: 24.4px;
        font-variant-east-asian: full-width;
    }

    .terminal-2350340225-title {
        font-size: 18px;
        font-weight: bold;
        font-family: arial;
    }

    .terminal-2350340225-r1 { fill: #2f2f2f }
.terminal-2350340225-r2 { fill: #c5c8c6 }
.terminal-2350340225-r3 { fill: #afafaf;font-weight: bold }
.terminal-2350340225-r4 { fill: #e7e7e7 }
.terminal-2350340225-r5 { fill: #cecece }
.terminal-2350340225-r6 { fill: #e7e7e7;font-weight: bold }
.terminal-2350340225-r7 { fill: #282828 }
.terminal-2350340225-r8 { fill: #a0a0a0 }
.terminal-2350340225-r9 { fill: #afafaf }
.terminal-2350340225-r10 { fill: #9f9f9f }
    </style>

    <defs>
    <clipPath id="terminal-2350340225-clip-terminal">
      <rect x="0" y="0" width="1365.3999999999999" height="731.0" />
    </clipPath>
    <clipPath id="terminal-2350340225-line-0">
    <rect x="0" y="1.5" width="1366.4" height="24.65"/>
            </clipPath>
<clipPath id="terminal-2350340225-line-1">
    <rect x="0" y="25.9" width="1366.4" height="24.65"/>
            </clipPath>
<clipPath id="terminal-2350340225-line-2">
    <rect x="0" y="50.3" width="1366.4" height="24.65"/>
            </clipPath>
<clipPath id="terminal-2350340225-line-3">
    <rect x="0" y="74.7" width="1366.4" height="24.65"/>
            </clipPath>
<clipPath id="terminal-2350340225-line-4">
    <rect x="0" y="99.1" width="1366.4" height="24.65"/>
            </clipPath>
<clipPath id="terminal-2350340225-line-5">
    <rect x="0" y="123.5" width="1366.4" height="24.65"/>
            </clipPath>
<clipPath id="terminal-2350340225-line-6">
    <rect x="0" y="147.9" width="1366.4" height="24.65"/>
            </clipPath>
<clipPath id="terminal-2350340225-line-7">
    <rect x="0" y="172.3" width="1366.4" height="24.65"/>
            </clipPath>
<clipPath id="terminal-2350340225-line-8">
    <rect x="0" y="196.7" width="1366.4" height="24.65"/>
            </clipPath>
<clipPath id="terminal-2350340225-line-9">
    <rect x="0" y="221.1" width="1366.4" height="24.65"/>
            </clipPath>
<clipPath id="terminal-2350340225-line-10">
    <rect x="0" y="245.5" width="1366.4" height="24.65"/>
            </clipPath>
<clipPath id="terminal-2350340225-line-11">
    <rect x="0" y="269.9" width="1366.4" height="24.65"/>
            </clipPath>
<clipPath id="terminal-2350340225-line-12">
    <rect x="0" y="294.3" width="1366.4" height="24.65"/>
            </clipPath>
<clipPath id="terminal-2350340225-line-13">
    <rect x="0" y="318.7" width="1366.4" height="24.65"/>
            </clipPath>
<clipPath id="terminal-2350340225-line-14">
    <rect x="0" y="343.1" width="1366.4" height="24.65"/>
            </clipPath>
<clipPath id="terminal-2350340225-line-15">
    <rect x="0" y="367.5" width="1366.4" height="24.65"/>
            </clipPath>
<clipPath id="terminal-2350340225-line-16">
    <rect x="0" y="391.9" width="1366.4" height="24.65"/>
            </clipPath>
<clipPath id="terminal-2350340225-line-17">
    <rect x="0" y="416.3" width="1366.4" height="24.65"/>
            </clipPath>
<clipPath id="terminal-2350340225-line-18">
    <rect x="0" y="440.7" width="1366.4" height="24.65"/>
            </clipPath>
<clipPath id="terminal-2350340225-line-19">
    <rect x="0" y="465.1" width="1366.4" height="24.65"/>
            </clipPath>
<clipPath id="terminal-2350340225-line-20">
    <rect x="0" y="489.5" width="1366.4" height="24.65"/>
            </clipPath>
<clipPath id="terminal-2350340225-line-21">
    <rect x="0" y="513.9" width="1366.4" height="24.65"/>
            </clipPath>
<clipPath id="terminal-2350340225-line-22">
    <rect x="0" y="538.3" width="1366.4" height="24.65"/>
            </clipPath>
<clipPath id="terminal-2350340225-line-23">
    <rect x="0" y="562.7" width="1366.4" height="24.65"/>
            </clipPath>
<clipPath id="terminal-2350340225-line-24">
    <rect x="0" y="587.1" width="1366.4" height="24.65"/>
            </clipPath>
<clipPath id="terminal-2350340225-line-25">
    <rect x="0" y="611.5" width="1366.4" height="24.65"/>
            </clipPath>
<clipPath id="terminal-2350340225-line-26">
    <rect x="0" y="635.9" width="1366.4" height="24.65"/>
            </clipPath>
<clipPath id="terminal-2350340225-line-27">
    <rect x="0" y="660.3" width="1366.4" height="24.65"/>
            </clipPath>
<clipPath id="terminal-2350340225-line-28">
    <rect x="0" y="684.7" width="1366.4" height="24.65"/>
            </clipPath>
    </defs>

    <rect fill="#292929" stroke="rgba(255,255,255,0.35)" stroke-width="1" x="1" y="1" width="1383" height="780" rx="8"/><text class="terminal-2350340225-title" fill="#c5c8c6" text-anchor="middle" x="691" y="27">HoldSpeakApp</text>
            <g transform="translate(26,22)">
            <circle cx="0" cy="0" r="7" fill="#ff5f57"/>
            <circle cx="22" cy="0" r="7" fill="#febc2e"/>
            <circle cx="44" cy="0" r="7" fill="#28c840"/>
            </g>
        
    <g transform="translate(9, 41)" clip-path="url(#terminal-2350340225-clip-terminal)">
    <rect fill="#131313" x="0" y="1.5" width="12.2" height="24.65" shape-rendering="crispEdges"/><rect fill="#131313" x="12.2" y="1.5" width="1342" height="24.65" shape-rendering="crispEdges"/><rect fill="#131313" x="1354.2" y="1.5" width="12.2" height="24.65" shape-rendering="crispEdges"/><rect fill="#131313" x="0" y="25.9" width="12.2" height="24.65" shape-rendering="crispEdges"/><rect fill="#101010" x="12.2" y="25.9" width="24.4" height="24.65" shape-rendering="crispEdges"/><rect fill="#101010" x="36.6" y="25.9" width="109.8" height="24.65" shape-rendering="crispEdges"/><rect fill="#101010" x="146.4" y="25.9" width="0" height="24.65" shape-rendering="crispEdges"/><rect fill="#101010" x="146.4" y="25.9" width="305" height="24.65" shape-rendering="crispEdges"/><rect fill="#afafaf" x="451.4" y="25.9" width="12.2" height="24.65" shape-rendering="crispEdges"/><rect fill="#afafaf" x="463.6" y="25.9" width="158.6" height="24.65" shape-rendering="crispEdges"/><rect fill="#afafaf" x="622.2" y="25.9" width="12.2" height="24.65" shape-rendering="crispEdges"/><rect fill="#101010" x="634.4" y="25.9" width="12.2" height="24.65" shape-rendering="crispEdges"/><rect fill="#131313" x="646.6" y="25.9" width="12.2" height="24.65" shape-rendering="crispEdges"/><rect fill="#131313" x="658.8" y="25.9" width="195.2" height="24.65" shape-rendering="crispEdges"/><rect fill="#131313" x="854" y="25.9" width="12.2" height="24.65" shape-rendering="crispEdges"/><rect fill="#101010" x="866.2" y="25.9" width="12.2" height="24.65" shape-rendering="crispEdges"/><rect fill="#101010" x="878.4" y="25.9" width="0" height="24.65" shape-rendering="crispEdges"/><rect fill="#101010" x="878.4" y="25.9" width="305" height="24.65" shape-rendering="crispEdges"/><rect fill="#101010" x="1183.4" y="25.9" width="12.2" height="24.65" shape-rendering="crispEdges"/><rect fill="#131313" x="1195.6" y="25.9" width="12.2" height="24.65" shape-rendering="crispEdges"/><rect fill="#131313" x="1207.8" y="25.9" width="36.6" height="24.65" shape-rendering="crispEdges"/><rect fill="#131313" x="1244.4" y="25.9" width="12.2" height="24.65" shape-rendering="crispEdges"/><rect fill="#101010" x="1256.6" y="25.9" width="12.2" height="24.65" shape-rendering="crispEdges"/><rect fill="#131313" x="1268.8" y="25.9" width="12.2" height="24.65" shape-rendering="crispEdges"/><rect fill="#131313" x="1281" y="25.9" width="36.6" height="24.65" shape-rendering="crispEdges"/><rect fill="#131313" x="1317.6" y="25.9" width="12.2" height="24.65" shape-rendering="crispEdges"/><rect fill="#101010" x="1329.8" y="25.9" width="24.4" height="24.65" shape-rendering="crispEdges"/><rect fill="#131313" x="1354.2" y="25.9" width="12.2" height="24.65" shape-rendering="crispEdges"/><rect fill="#131313" x="0" y="50.3" width="12.2" height="24.65" shape-rendering="crispEdges"/><rect fill="#101010" x="12.2" y="50.3" width="1342" height="24.65" shape-rendering="crispEdges"/><rect fill="#131313" x="1354.2" y="50.3" width="12.2" height="24.65" shape-rendering="crispEdges"/><rect fill="#131313" x="0" y="74.7" width="12.2" height="24.65" shape-rendering="crispEdges"/><rect fill="#131313" x="12.2" y="74.7" width="24.4" height="24.65" shape-rendering="crispEdges"/><rect fill="#131313" x="36.6" y="74.7" width="1293.2" height="24.65" shape-rendering="crispEdges"/><rect fill="#131313" x="1329.8" y="74.7" width="24.4" height="24.65" shape-rendering="crispEdges"/><rect fill="#131313" x="1354.2" y="74.7" width="12.2" height="24.65" shape-rendering="crispEdges"/><rect fill="#131313" x="0" y="99.1" width="12.2" height="24.65" shape-rendering="crispEdges"/><rect fill="#131313" x="12.2" y="99.1" width="24.4" height="24.65" shape-rendering="crispEdges"/><rect fill="#131313" x="36.6" y="99.1" width="12.2" height="24.65" shape-rendering="crispEdges"/><rect fill="#131313" x="48.8" y="99.1" width="12.2" height="24.65" shape-rendering="crispEdges"/><rect fill="#131313" x="61" y="99.1" width="48.8" height="24.65" shape-rendering="crispEdges"/><rect fill="#131313" x="109.8" y="99.1" width="24.4" height="24.65" shape-rendering="crispEdges"/><rect fill="#131313" x="134.2" y="99.1" width="1037" height="24.65" shape-rendering="crispEdges"/><rect fill="#131313" x="1171.2" y="99.1" width="24.4" height="24.65" shape-rendering="crispEdges"/><rect fill="#131313" x="1195.6" y="99.1" width="134.2" height="24.65" shape-rendering="crispEdges"/><rect fill="#131313" x="1329.8" y="99.1" width="24.4" height="24.65" shape-rendering="crispEdges"/><rect fill="#131313" x="1354.2" y="99.1" width="12.2" height="24.65" shape-rendering="crispEdges"/><rect fill="#131313" x="0" y="123.5" width="12.2" height="24.65" shape-rendering="crispEdges"/><rect fill="#131313" x="12.2" y="123.5" width="1342" height="24.65" shape-rendering="crispEdges"/><rect fill="#131313" x="1354.2" y="123.5" width="12.2" height="24.65" shape-rendering="crispEdges"/><rect fill="#131313" x="0" y="147.9" width="12.2" height="24.65" shape-rendering="crispEdges"/><rect fill="#131313" x="12.2" y="147.9" width="12.2" height="24.65" shape-rendering="crispEdges"/><rect fill="#131313" x="24.4" y="147.9" width="12.2" height="24.65" shape-rendering="crispEdges"/><rect fill="#131313" x="36.6" y="147.9" width="829.6" height="24.65" shape-rendering="crispEdges"/><rect fill="#131313" x="866.2" y="147.9" width="463.6" height="24.65" shape-rendering="crispEdges"/><rect fill="#131313" x="1329.8" y="147.9" width="12.2" height="24.65" shape-rendering="crispEdges"/><rect fill="#131313" x="1342" y="147.9" width="12.2" height="24.65" shape-rendering="crispEdges"/><rect fill="#131313" x="1354.2" y="147.9" width="12.2" height="24.65" shape-rendering="crispEdges"/><rect fill="#131313" x="0" y="172.3" width="12.2" height="24.65" shape-rendering="crispEdges"/><rect fill="#131313" x="12.2" y="172.3" width="12.2" height="24.65" shape-rendering="crispEdges"/><rect fill="#131313" x="24.4" y="172.3" width="12.2" height="24.65" shape-rendering="crispEdges"/><rect fill="#131313" x="36.6" y="172.3" width="756.4" height="24.65" shape-rendering="crispEdges"/><rect fill="#131313" x="793" y="172.3" width="536.8" height="24.65" shape-rendering="crispEdges"/><rect fill="#131313" x="1329.8" y="172.3" width="12.2" height="24.65" shape-rendering="crispEdges"/><rect fill="#131313" x="1342" y="172.3" width="12.2" height="24.65" shape-rendering="crispEdges"/><rect fill="#131313" x="1354.2" y="172.3" width="12.2" height="24.65" shape-rendering="crispEdges"/><rect fill="#131313" x="0" y="196.7" width="12.2" height="24.65" shape-rendering="crispEdges"/><rect fill="#131313" x="12.2" y="196.7" width="12.2" height="24.65" shape-rendering="crispEdges"/><rect fill="#131313" x="24.4" y="196.7" width="12.2" height="24.65" shape-rendering="crispEdges"/><rect fill="#131313" x="36.6" y="196.7" width="732" height="24.65" shape-rendering="crispEdges"/><rect fill="#131313" x="768.6" y="196.7" width="561.2" height="24.65" shape-rendering="crispEdges"/><rect fill="#131313" x="1329.8" y="196.7" width="12.2" height="24.65" shape-rendering="crispEdges"/><rect fill="#131313" x="1342" y="196.7" width="12.2" height="24.65" shape-rendering="crispEdges"/><rect fill="#131313" x="1354.2" y="196.7" width="12.2" height="24.65" shape-rendering="crispEdges"/><rect fill="#131313" x="0" y="221.1" width="12.2" height="24.65" shape-rendering="crispEdges"/><rect fill="#131313" x="12.2" y="221.1" width="12.2" height="24.65" shape-rendering="crispEdges"/><rect fill="#131313" x="24.4" y="221.1" width="12.2" height="24.65" shape-rendering="crispEdges"/><rect fill="#131313" x="36.6" y="221.1" width="732" height="24.65" shape-rendering="crispEdges"/><rect fill="#131313" x="768.6" y="221.1" width="561.2" height="24.65" shape-rendering="crispEdges"/><rect fill="#131313" x="1329.8" y="221.1" width="12.2" height="24.65" shape-rendering="crispEdges"/><rect fill="#131313" x="1342" y="221.1" width="12.2" height="24.65" shape-rendering="crispEdges"/><rect fill="#131313" x="1354.2" y="221.1" width="12.2" height="24.65" shape-rendering="crispEdges"/><rect fill="#131313" x="0" y="245.5" width="12.2" height="24.65" shape-rendering="crispEdges"/><rect fill="#131313" x="12.2" y="245.5" width="12.2" height="24.65" shape-rendering="crispEdges"/><rect fill="#131313" x="24.4" y="245.5" width="1317.6" height="24.65" shape-rendering="crispEdges"/><rect fill="#131313" x="1342" y="245.5" width="12.2" height="24.65" shape-rendering="crispEdges"/><rect fill="#131313" x="1354.2" y="245.5" width="12.2" height="24.65" shape-rendering="crispEdges"/><rect fill="#131313" x="0" y="269.9" width="12.2" height="24.65" shape-rendering="crispEdges"/><rect fill="#131313" x="12.2" y="269.9" width="12.2" height="24.65" shape-rendering="crispEdges"/><rect fill="#131313" x="24.4" y="269.9" width="1317.6" height="24.65" shape-rendering="crispEdges"/><rect fill="#131313" x="1342" y="269.9" width="12.2" height="24.65" shape-rendering="crispEdges"/><rect fill="#131313" x="1354.2" y="269.9" width="12.2" height="24.65" shape-rendering="crispEdges"/><rect fill="#131313" x="0" y="294.3" width="12.2" height="24.65" shape-rendering="crispEdges"/><rect fill="#131313" x="12.2" y="294.3" width="12.2" height="24.65" shape-rendering="crispEdges"/><rect fill="#131313" x="24.4" y="294.3" width="1317.6" height="24.65" shape-rendering="crispEdges"/><rect fill="#131313" x="1342" y="294.3" width="12.2" height="24.65" shape-rendering="crispEdges"/><rect fill="#131313" x="1354.2" y="294.3" width="12.2" height="24.65" shape-rendering="crispEdges"/><rect fill="#131313" x="0" y="318.7" width="12.2" height="24.65" shape-rendering="crispEdges"/><rect fill="#131313" x="12.2" y="318.7" width="12.2" height="24.65" shape-rendering="crispEdges"/><rect fill="#131313" x="24.4" y="318.7" width="1317.6" height="24.65" shape-rendering="crispEdges"/><rect fill="#131313" x="1342" y="318.7" width="12.2" height="24.65" shape-rendering="crispEdges"/><rect fill="#131313" x="1354.2" y="318.7" width="12.2" height="24.65" shape-rendering="crispEdges"/><rect fill="#131313" x="0" y="343.1" width="12.2" height="24.65" shape-rendering="crispEdges"/><rect fill="#131313" x="12.2" y="343.1" width="12.2" height="24.65" shape-rendering="crispEdges"/><rect fill="#131313" x="24.4" y="343.1" width="1317.6" height="24.65" shape-rendering="crispEdges"/><rect fill="#131313" x="1342" y="343.1" width="12.2" height="24.65" shape-rendering="crispEdges"/><rect fill="#131313" x="1354.2" y="343.1" width="12.2" height="24.65" shape-rendering="crispEdges"/><rect fill="#131313" x="0" y="367.5" width="12.2" height="24.65" shape-rendering="crispEdges"/><rect fill="#131313" x="12.2" y="367.5" width="12.2" height="24.65" shape-rendering="crispEdges"/><rect fill="#131313" x="24.4" y="367.5" width="1317.6" height="24.65" shape-rendering="crispEdges"/><rect fill="#131313" x="1342" y="367.5" width="12.2" height="24.65" shape-rendering="crispEdges"/><rect fill="#131313" x="1354.2" y="367.5" width="12.2" height="24.65" shape-rendering="crispEdges"/><rect fill="#131313" x="0" y="391.9" width="12.2" height="24.65" shape-rendering="crispEdges"/><rect fill="#131313" x="12.2" y="391.9" width="12.2" height="24.65" shape-rendering="crispEdges"/><rect fill="#131313" x="24.4" y="391.9" width="1317.6" height="24.65" shape-rendering="crispEdges"/><rect fill="#131313" x="1342" y="391.9" width="12.2" height="24.65" shape-rendering="crispEdges"/><rect fill="#131313" x="1354.2" y="391.9" width="12.2" height="24.65" shape-rendering="crispEdges"/><rect fill="#131313" x="0" y="416.3" width="12.2" height="24.65" shape-rendering="crispEdges"/><rect fill="#131313" x="12.2" y="416.3" width="12.2" height="24.65" shape-rendering="crispEdges"/><rect fill="#131313" x="24.4" y="416.3" width="1317.6" height="24.65" shape-rendering="crispEdges"/><rect fill="#131313" x="1342" y="416.3" width="12.2" height="24.65" shape-rendering="crispEdges"/><rect fill="#131313" x="1354.2" y="416.3" width="12.2" height="24.65" shape-rendering="crispEdges"/><rect fill="#131313" x="0" y="440.7" width="12.2" height="24.65" shape-rendering="crispEdges"/><rect fill="#131313" x="12.2" y="440.7" width="12.2" height="24.65" shape-rendering="crispEdges"/><rect fill="#131313" x="24.4" y="440.7" width="1317.6" height="24.65" shape-rendering="crispEdges"/><rect fill="#131313" x="1342" y="440.7" width="12.2" height="24.65" shape-rendering="crispEdges"/><rect fill="#131313" x="1354.2" y="440.7" width="12.2" height="24.65" shape-rendering="crispEdges"/><rect fill="#131313" x="0" y="465.1" width="12.2" height="24.65" shape-rendering="crispEdges"/><rect fill="#131313" x="12.2" y="465.1" width="12.2" height="24.65" shape-rendering="crispEdges"/><rect fill="#131313" x="24.4" y="465.1" width="1317.6" height="24.65" shape-rendering="crispEdges"/><rect fill="#131313" x="1342" y="465.1" width="12.2" height="24.65" shape-rendering="crispEdges"/><rect fill="#131313" x="1354.2" y="465.1" width="12.2" height="24.65" shape-rendering="crispEdges"/><rect fill="#131313" x="0" y="489.5" width="12.2" height="24.65" shape-rendering="crispEdges"/><rect fill="#131313" x="12.2" y="489.5" width="12.2" height="24.65" shape-rendering="crispEdges"/><rect fill="#131313" x="24.4" y="489.5" width="1317.6" height="24.65" shape-rendering="crispEdges"/><rect fill="#131313" x="1342" y="489.5" width="12.2" height="24.65" shape-rendering="crispEdges"/><rect fill="#131313" x="1354.2" y="489.5" width="12.2" height="24.65" shape-rendering="crispEdges"/><rect fill="#131313" x="0" y="513.9" width="12.2" height="24.65" shape-rendering="crispEdges"/><rect fill="#131313" x="12.2" y="513.9" width="12.2" height="24.65" shape-rendering="crispEdges"/><rect fill="#131313" x="24.4" y="513.9" width="1317.6" height="24.65" shape-rendering="crispEdges"/><rect fill="#131313" x="1342" y="513.9" width="12.2" height="24.65" shape-rendering="crispEdges"/><rect fill="#131313" x="1354.2" y="513.9" width="12.2" height="24.65" shape-rendering="crispEdges"/><rect fill="#131313" x="0" y="538.3" width="12.2" height="24.65" shape-rendering="crispEdges"/><rect fill="#131313" x="12.2" y="538.3" width="12.2" height="24.65" shape-rendering="crispEdges"/><rect fill="#131313" x="24.4" y="538.3" width="1317.6" height="24.65" shape-rendering="crispEdges"/><rect fill="#131313" x="1342" y="538.3" width="12.2" height="24.65" shape-rendering="crispEdges"/><rect fill="#131313" x="1354.2" y="538.3" width="12.2" height="24.65" shape-rendering="crispEdges"/><rect fill="#131313" x="0" y="562.7" width="12.2" height="24.65" shape-rendering="crispEdges"/><rect fill="#131313" x="12.2" y="562.7" width="12.2" height="24.65" shape-rendering="crispEdges"/><rect fill="#131313" x="24.4" y="562.7" width="1317.6" height="24.65" shape-rendering="crispEdges"/><rect fill="#131313" x="1342" y="562.7" width="12.2" height="24.65" shape-rendering="crispEdges"/><rect fill="#131313" x="1354.2" y="562.7" width="12.2" height="24.65" shape-rendering="crispEdges"/><rect fill="#131313" x="0" y="587.1" width="12.2" height="24.65" shape-rendering="crispEdges"/><rect fill="#131313" x="12.2" y="587.1" width="12.2" height="24.65" shape-rendering="crispEdges"/><rect fill="#131313" x="24.4" y="587.1" width="1317.6" height="24.65" shape-rendering="crispEdges"/><rect fill="#131313" x="1342" y="587.1" width="12.2" height="24.65" shape-rendering="crispEdges"/><rect fill="#131313" x="1354.2" y="587.1" width="12.2" height="24.65" shape-rendering="crispEdges"/><rect fill="#131313" x="0" y="611.5" width="12.2" height="24.65" shape-rendering="crispEdges"/><rect fill="#131313" x="12.2" y="611.5" width="12.2" height="24.65" shape-rendering="crispEdges"/><rect fill="#131313" x="24.4" y="611.5" width="1317.6" height="24.65" shape-rendering="crispEdges"/><rect fill="#131313" x="1342" y="611.5" width="12.2" height="24.65" shape-rendering="crispEdges"/><rect fill="#131313" x="1354.2" y="611.5" width="12.2" height="24.65" shape-rendering="crispEdges"/><rect fill="#131313" x="0" y="635.9" width="12.2" height="24.65" shape-rendering="crispEdges"/><rect fill="#131313" x="12.2" y="635.9" width="12.2" height="24.65" shape-rendering="crispEdges"/><rect fill="#131313" x="24.4" y="635.9" width="1317.6" height="24.65" shape-rendering="crispEdges"/><rect fill="#131313" x="1342" y="635.9" width="12.2" height="24.65" shape-rendering="crispEdges"/><rect fill="#131313" x="1354.2" y="635.9" width="12.2" height="24.65" shape-rendering="crispEdges"/><rect fill="#131313" x="0" y="660.3" width="12.2" height="24.65" shape-rendering="crispEdges"/><rect fill="#101010" x="12.2" y="660.3" width="1342" height="24.65" shape-rendering="crispEdges"/><rect fill="#131313" x="1354.2" y="660.3" width="12.2" height="24.65" shape-rendering="crispEdges"/><rect fill="#131313" x="0" y="684.7" width="12.2" height="24.65" shape-rendering="crispEdges"/><rect fill="#101010" x="12.2" y="684.7" width="24.4" height="24.65" shape-rendering="crispEdges"/><rect fill="#101010" x="36.6" y="684.7" width="1134.6" height="24.65" shape-rendering="crispEdges"/><rect fill="#101010" x="1171.2" y="684.7" width="158.6" height="24.65" shape-rendering="crispEdges"/><rect fill="#101010" x="1329.8" y="684.7" width="24.4" height="24.65" shape-rendering="crispEdges"/><rect fill="#131313" x="1354.2" y="684.7" width="12.2" height="24.65" shape-rendering="crispEdges"/><rect fill="#131313" x="0" y="709.1" width="12.2" height="24.65" shape-rendering="crispEdges"/><rect fill="#131313" x="12.2" y="709.1" width="1342" height="24.65" shape-rendering="crispEdges"/><rect fill="#131313" x="1354.2" y="709.1" width="12.2" height="24.65" shape-rendering="crispEdges"/>
    <g class="terminal-2350340225-matrix">
    <text class="terminal-2350340225-r1" x="0" y="20" textLength="12.2" clip-path="url(#terminal-2350340225-line-0)">┏</text><text class="terminal-2350340225-r1" x="12.2" y="20" textLength="1342" clip-path="url(#terminal-2350340225-line-0)">━━━━━━━━━━━━━━━━━━━━━━━━━━━━━━━━━━━━━━━━━━━━━━━━━━━━━━━━━━━━━━━━━━━━━━━━━━━━━━━━━━━━━━━━━━━━━━━━━━━━━━━━━━━━━━</text><text class="terminal-2350340225-r1" x="1354.2" y="20" textLength="12.2" clip-path="url(#terminal-2350340225-line-0)">┓</text><text class="terminal-2350340225-r2" x="1366.4" y="20" textLength="12.2" clip-path="url(#terminal-2350340225-line-0)">
</text><text class="terminal-2350340225-r1" x="0" y="44.4" textLength="12.2" clip-path="url(#terminal-2350340225-line-1)">┃</text><text class="terminal-2350340225-r3" x="36.6" y="44.4" textLength="109.8" clip-path="url(#terminal-2350340225-line-1)">HOLDSPEAK</text><text class="terminal-2350340225-r5" x="451.4" y="44.4" textLength="12.2" clip-path="url(#terminal-2350340225-line-1)">┌</text><text class="terminal-2350340225-r5" x="463.6" y="44.4" textLength="158.6" clip-path="url(#terminal-2350340225-line-1)">─────────────</text><text class="terminal-2350340225-r5" x="622.2" y="44.4" textLength="12.2" clip-path="url(#terminal-2350340225-line-1)">┐</text><text class="terminal-2350340225-r1" x="646.6" y="44.4" textLength="12.2" clip-path="url(#terminal-2350340225-line-1)">┌</text><text class="terminal-2350340225-r1" x="658.8" y="44.4" textLength="195.2" clip-path="url(#terminal-2350340225-line-1)">────────────────</text><text class="terminal-2350340225-r1" x="854" y="44.4" textLength="12.2" clip-path="url(#terminal-2350340225-line-1)">┐</text><text class="terminal-2350340225-r1" x="1195.6" y="44.4" textLength="12.2" clip-path="url(#terminal-2350340225-line-1)">┌</text><text class="terminal-2350340225-r1" x="1207.8" y="44.4" textLength="36.6" clip-path="url(#terminal-2350340225-line-1)">───</text><text class="terminal-2350340225-r1" x="1244.4" y="44.4" textLength="12.2" clip-path="url(#terminal-2350340225-line-1)">┐</text><text class="terminal-2350340225-r1" x="1268.8" y="44.4" textLength="12.2" clip-path="url(#terminal-2350340225-line-1)">┌</text><text class="terminal-2350340225-r1" x="1281" y="44.4" textLength="36.6" clip-path="url(#terminal-2350340225-line-1)">───</text><text class="terminal-2350340225-r1" x="1317.6" y="44.4" textLength="12.2" clip-path="url(#terminal-2350340225-line-1)">┐</text><text class="terminal-2350340225-r1" x="1354.2" y="44.4" textLength="12.2" clip-path="url(#terminal-2350340225-line-1)">┃</text><text class="terminal-2350340225-r2" x="1366.4" y="44.4" textLength="12.2" clip-path="url(#terminal-2350340225-line-1)">
</text><text class="terminal-2350340225-r1" x="0" y="68.8" textLength="12.2" clip-path="url(#terminal-2350340225-line-2)">┃</text><text class="terminal-2350340225-r1" x="12.2" y="68.8" textLength="1342" clip-path="url(#terminal-2350340225-line-2)">──────────────────────────────────────────────────────────────────────────────────────────────────────────────</text><text class="terminal-2350340225-r1" x="1354.2" y="68.8" textLength="12.2" clip-path="url(#terminal-2350340225-line-2)">┃</text><text class="terminal-2350340225-r2" x="1366.4" y="68.8" textLength="12.2" clip-path="url(#terminal-2350340225-line-2)">
</text><text class="terminal-2350340225-r1" x="0" y="93.2" textLength="12.2" clip-path="url(#terminal-2350340225-line-3)">┃</text><text class="terminal-2350340225-r1" x="1354.2" y="93.2" textLength="12.2" clip-path="url(#terminal-2350340225-line-3)">┃</text><text class="terminal-2350340225-r2" x="1366.4" y="93.2" textLength="12.2" clip-path="url(#terminal-2350340225-line-3)">
</text><text class="terminal-2350340225-r1" x="0" y="117.6" textLength="12.2" clip-path="url(#terminal-2350340225-line-4)">┃</text><text class="terminal-2350340225-r5" x="36.6" y="117.6" textLength="12.2" clip-path="url(#terminal-2350340225-line-4)">◉</text><text class="terminal-2350340225-r6" x="61" y="117.6" textLength="48.8" clip-path="url(#terminal-2350340225-line-4)">IDLE</text><text class="terminal-2350340225-r7" x="134.2" y="117.6" textLength="1037" clip-path="url(#terminal-2350340225-line-4)">░░░░░░░░░░░░░░░░░░░░░░░░░░░░░░░░░░░░░░░░░░░░░░░░░░░░░░░░░░░░░░░░░░░░░░░░░░░░░░░░░░░░░</text><text class="terminal-2350340225-r8" x="1195.6" y="117.6" textLength="134.2" clip-path="url(#terminal-2350340225-line-4)">⌥R&#160;to&#160;speak</text><text class="terminal-2350340225-r1" x="1354.2" y="117.6" textLength="12.2" clip-path="url(#terminal-2350340225-line-4)">┃</text><text class="terminal-2350340225-r2" x="1366.4" y="117.6" textLength="12.2" clip-path="url(#terminal-2350340225-line-4)">
</text><text class="terminal-2350340225-r1" x="0" y="142" textLength="12.2" clip-path="url(#terminal-2350340225-line-5)">┃</text><text class="terminal-2350340225-r1" x="12.2" y="142" textLength="1342" clip-path="url(#terminal-2350340225-line-5)">──────────────────────────────────────────────────────────────────────────────────────────────────────────────</text><text class="terminal-2350340225-r1" x="1354.2" y="142" textLength="12.2" clip-path="url(#terminal-2350340225-line-5)">┃</text><text class="terminal-2350340225-r2" x="1366.4" y="142" textLength="12.2" clip-path="url(#terminal-2350340225-line-5)">
</text><text class="terminal-2350340225-r1" x="0" y="166.4" textLength="12.2" clip-path="url(#terminal-2350340225-line-6)">┃</text><text class="terminal-2350340225-r4" x="36.6" y="166.4" textLength="829.6" clip-path="url(#terminal-2350340225-line-6)">23:50&#160;&#160;I&#160;think&#160;we&#160;should&#160;schedule&#160;a&#160;follow-up&#160;meeting&#160;for&#160;next&#160;week.</text><text class="terminal-2350340225-r1" x="1354.2" y="166.4" textLength="12.2" clip-path="url(#terminal-2350340225-line-6)">┃</text><text class="terminal-2350340225-r2" x="1366.4" y="166.4" textLength="12.2" clip-path="url(#terminal-2350340225-line-6)">
</text><text class="terminal-2350340225-r1" x="0" y="190.8" textLength="12.2" clip-path="url(#terminal-2350340225-line-7)">┃</text><text class="terminal-2350340225-r4" x="36.6" y="190.8" textLength="756.4" clip-path="url(#terminal-2350340225-line-7)">23:50&#160;&#160;Can&#160;you&#160;share&#160;your&#160;screen&#160;so&#160;we&#160;can&#160;review&#160;the&#160;changes?</text><text class="terminal-2350340225-r1" x="1354.2" y="190.8" textLength="12.2" clip-path="url(#terminal-2350340225-line-7)">┃</text><text class="terminal-2350340225-r2" x="1366.4" y="190.8" textLength="12.2" clip-path="url(#terminal-2350340225-line-7)">
</text><text class="terminal-2350340225-r1" x="0" y="215.2" textLength="12.2" clip-path="url(#terminal-2350340225-line-8)">┃</text><text class="terminal-2350340225-r4" x="36.6" y="215.2" textLength="732" clip-path="url(#terminal-2350340225-line-8)">23:50&#160;&#160;The&#160;deployment&#160;should&#160;complete&#160;in&#160;about&#160;five&#160;minutes.</text><text class="terminal-2350340225-r1" x="1354.2" y="215.2" textLength="12.2" clip-path="url(#terminal-2350340225-line-8)">┃</text><text class="terminal-2350340225-r2" x="1366.4" y="215.2" textLength="12.2" clip-path="url(#terminal-2350340225-line-8)">
</text><text class="terminal-2350340225-r1" x="0" y="239.6" textLength="12.2" clip-path="url(#terminal-2350340225-line-9)">┃</text><text class="terminal-2350340225-r6" x="36.6" y="239.6" textLength="732" clip-path="url(#terminal-2350340225-line-9)">23:50&#160;&#160;Let&#160;me&#160;check&#160;the&#160;documentation&#160;for&#160;that&#160;API&#160;endpoint.</text><text class="terminal-2350340225-r1" x="1354.2" y="239.6" textLength="12.2" clip-path="url(#terminal-2350340225-line-9)">┃</text><text class="terminal-2350340225-r2" x="1366.4" y="239.6" textLength="12.2" clip-path="url(#terminal-2350340225-line-9)">
</text><text class="terminal-2350340225-r1" x="0" y="264" textLength="12.2" clip-path="url(#terminal-2350340225-line-10)">┃</text><text class="terminal-2350340225-r1" x="1354.2" y="264" textLength="12.2" clip-path="url(#terminal-2350340225-line-10)">┃</text><text class="terminal-2350340225-r2" x="1366.4" y="264" textLength="12.2" clip-path="url(#terminal-2350340225-line-10)">
</text><text class="terminal-2350340225-r1" x="0" y="288.4" textLength="12.2" clip-path="url(#terminal-2350340225-line-11)">┃</text><text class="terminal-2350340225-r1" x="1354.2" y="288.4" textLength="12.2" clip-path="url(#terminal-2350340225-line-11)">┃</text><text class="terminal-2350340225-r2" x="1366.4" y="288.4" textLength="12.2" clip-path="url(#terminal-2350340225-line-11)">
</text><text class="terminal-2350340225-r1" x="0" y="312.8" textLength="12.2" clip-path="url(#terminal-2350340225-line-12)">┃</text><text class="terminal-2350340225-r1" x="1354.2" y="312.8" textLength="12.2" clip-path="url(#terminal-2350340225-line-12)">┃</text><text class="terminal-2350340225-r2" x="1366.4" y="312.8" textLength="12.2" clip-path="url(#terminal-2350340225-line-12)">
</text><text class="terminal-2350340225-r1" x="0" y="337.2" textLength="12.2" clip-path="url(#terminal-2350340225-line-13)">┃</text><text class="terminal-2350340225-r1" x="1354.2" y="337.2" textLength="12.2" clip-path="url(#terminal-2350340225-line-13)">┃</text><text class="terminal-2350340225-r2" x="1366.4" y="337.2" textLength="12.2" clip-path="url(#terminal-2350340225-line-13)">
</text><text class="terminal-2350340225-r1" x="0" y="361.6" textLength="12.2" clip-path="url(#terminal-2350340225-line-14)">┃</text><text class="terminal-2350340225-r1" x="1354.2" y="361.6" textLength="12.2" clip-path="url(#terminal-2350340225-line-14)">┃</text><text class="terminal-2350340225-r2" x="1366.4" y="361.6" textLength="12.2" clip-path="url(#terminal-2350340225-line-14)">
</text><text class="terminal-2350340225-r1" x="0" y="386" textLength="12.2" clip-path="url(#terminal-2350340225-line-15)">┃</text><text class="terminal-2350340225-r1" x="1354.2" y="386" textLength="12.2" clip-path="url(#terminal-2350340225-line-15)">┃</text><text class="terminal-2350340225-r2" x="1366.4" y="386" textLength="12.2" clip-path="url(#terminal-2350340225-line-15)">
</text><text class="terminal-2350340225-r1" x="0" y="410.4" textLength="12.2" clip-path="url(#terminal-2350340225-line-16)">┃</text><text class="terminal-2350340225-r1" x="1354.2" y="410.4" textLength="12.2" clip-path="url(#terminal-2350340225-line-16)">┃</text><text class="terminal-2350340225-r2" x="1366.4" y="410.4" textLength="12.2" clip-path="url(#terminal-2350340225-line-16)">
</text><text class="terminal-2350340225-r1" x="0" y="434.8" textLength="12.2" clip-path="url(#terminal-2350340225-line-17)">┃</text><text class="terminal-2350340225-r1" x="1354.2" y="434.8" textLength="12.2" clip-path="url(#terminal-2350340225-line-17)">┃</text><text class="terminal-2350340225-r2" x="1366.4" y="434.8" textLength="12.2" clip-path="url(#terminal-2350340225-line-17)">
</text><text class="terminal-2350340225-r1" x="0" y="459.2" textLength="12.2" clip-path="url(#terminal-2350340225-line-18)">┃</text><text class="terminal-2350340225-r1" x="1354.2" y="459.2" textLength="12.2" clip-path="url(#terminal-2350340225-line-18)">┃</text><text class="terminal-2350340225-r2" x="1366.4" y="459.2" textLength="12.2" clip-path="url(#terminal-2350340225-line-18)">
</text><text class="terminal-2350340225-r1" x="0" y="483.6" textLength="12.2" clip-path="url(#terminal-2350340225-line-19)">┃</text><text class="terminal-2350340225-r1" x="1354.2" y="483.6" textLength="12.2" clip-path="url(#terminal-2350340225-line-19)">┃</text><text class="terminal-2350340225-r2" x="1366.4" y="483.6" textLength="12.2" clip-path="url(#terminal-2350340225-line-19)">
</text><text class="terminal-2350340225-r1" x="0" y="508" textLength="12.2" clip-path="url(#terminal-2350340225-line-20)">┃</text><text class="terminal-2350340225-r1" x="1354.2" y="508" textLength="12.2" clip-path="url(#terminal-2350340225-line-20)">┃</text><text class="terminal-2350340225-r2" x="1366.4" y="508" textLength="12.2" clip-path="url(#terminal-2350340225-line-20)">
</text><text class="terminal-2350340225-r1" x="0" y="532.4" textLength="12.2" clip-path="url(#terminal-2350340225-line-21)">┃</text><text class="terminal-2350340225-r1" x="1354.2" y="532.4" textLength="12.2" clip-path="url(#terminal-2350340225-line-21)">┃</text><text class="terminal-2350340225-r2" x="1366.4" y="532.4" textLength="12.2" clip-path="url(#terminal-2350340225-line-21)">
</text><text class="terminal-2350340225-r1" x="0" y="556.8" textLength="12.2" clip-path="url(#terminal-2350340225-line-22)">┃</text><text class="terminal-2350340225-r1" x="1354.2" y="556.8" textLength="12.2" clip-path="url(#terminal-2350340225-line-22)">┃</text><text class="terminal-2350340225-r2" x="1366.4" y="556.8" textLength="12.2" clip-path="url(#terminal-2350340225-line-22)">
</text><text class="terminal-2350340225-r1" x="0" y="581.2" textLength="12.2" clip-path="url(#terminal-2350340225-line-23)">┃</text><text class="terminal-2350340225-r1" x="1354.2" y="581.2" textLength="12.2" clip-path="url(#terminal-2350340225-line-23)">┃</text><text class="terminal-2350340225-r2" x="1366.4" y="581.2" textLength="12.2" clip-path="url(#terminal-2350340225-line-23)">
</text><text class="terminal-2350340225-r1" x="0" y="605.6" textLength="12.2" clip-path="url(#terminal-2350340225-line-24)">┃</text><text class="terminal-2350340225-r1" x="1354.2" y="605.6" textLength="12.2" clip-path="url(#terminal-2350340225-line-24)">┃</text><text class="terminal-2350340225-r2" x="1366.4" y="605.6" textLength="12.2" clip-path="url(#terminal-2350340225-line-24)">
</text><text class="terminal-2350340225-r1" x="0" y="630" textLength="12.2" clip-path="url(#terminal-2350340225-line-25)">┃</text><text class="terminal-2350340225-r1" x="1354.2" y="630" textLength="12.2" clip-path="url(#terminal-2350340225-line-25)">┃</text><text class="terminal-2350340225-r2" x="1366.4" y="630" textLength="12.2" clip-path="url(#terminal-2350340225-line-25)">
</text><text class="terminal-2350340225-r1" x="0" y="654.4" textLength="12.2" clip-path="url(#terminal-2350340225-line-26)">┃</text><text class="terminal-2350340225-r1" x="1354.2" y="654.4" textLength="12.2" clip-path="url(#terminal-2350340225-line-26)">┃</text><text class="terminal-2350340225-r2" x="1366.4" y="654.4" textLength="12.2" clip-path="url(#terminal-2350340225-line-26)">
</text><text class="terminal-2350340225-r1" x="0" y="678.8" textLength="12.2" clip-path="url(#terminal-2350340225-line-27)">┃</text><text class="terminal-2350340225-r9" x="12.2" y="678.8" textLength="1342" clip-path="url(#terminal-2350340225-line-27)">──────────────────────────────────────────────────────────────────────────────────────────────────────────────</text><text class="terminal-2350340225-r1" x="1354.2" y="678.8" textLength="12.2" clip-path="url(#terminal-2350340225-line-27)">┃</text><text class="terminal-2350340225-r2" x="1366.4" y="678.8" textLength="12.2" clip-path="url(#terminal-2350340225-line-27)">
</text><text class="terminal-2350340225-r1" x="0" y="703.2" textLength="12.2" clip-path="url(#terminal-2350340225-line-28)">┃</text><text class="terminal-2350340225-r10" x="36.6" y="703.2" textLength="1134.6" clip-path="url(#terminal-2350340225-line-28)">Tab&#160;Switch&#160;&#160;│&#160;&#160;⌥R&#160;Record&#160;&#160;│&#160;&#160;m&#160;Meeting&#160;&#160;│&#160;&#160;c&#160;Copy&#160;&#160;│&#160;&#160;d&#160;Diagnostics&#160;&#160;│&#160;&#160;s&#160;Settings&#160;&#160;│&#160;&#160;q&#160;Quit</text><text class="terminal-2350340225-r1" x="1354.2" y="703.2" textLength="12.2" clip-path="url(#terminal-2350340225-line-28)">┃</text><text class="terminal-2350340225-r2" x="1366.4" y="703.2" textLength="12.2" clip-path="url(#terminal-2350340225-line-28)">
</text><text class="terminal-2350340225-r1" x="0" y="727.6" textLength="12.2" clip-path="url(#terminal-2350340225-line-29)">┗</text><text class="terminal-2350340225-r1" x="12.2" y="727.6" textLength="1342" clip-path="url(#terminal-2350340225-line-29)">━━━━━━━━━━━━━━━━━━━━━━━━━━━━━━━━━━━━━━━━━━━━━━━━━━━━━━━━━━━━━━━━━━━━━━━━━━━━━━━━━━━━━━━━━━━━━━━━━━━━━━━━━━━━━━</text><text class="terminal-2350340225-r1" x="1354.2" y="727.6" textLength="12.2" clip-path="url(#terminal-2350340225-line-29)">┛</text>
    </g>
    </g>
</svg>
