<svg class="rich-terminal" viewBox="0 0 1238 782.0" xmlns="http://www.w3.org/2000/svg">
    <!-- Generated with Rich https://www.textualize.io -->
    <style>

    @font-face {
        font-family: "Fira Code";
        src: local("FiraCode-Regular"),
                url("https://cdnjs.cloudflare.com/ajax/libs/firacode/6.2.0/woff2/FiraCode-Regular.woff2") format("woff2"),
                url("https://cdnjs.cloudflare.com/ajax/libs/firacode/6.2.0/woff/FiraCode-Regular.woff") format("woff");
        font-style: normal;
        font-weight: 400;
    }
    @font-face {
        font-family: "Fira Code";
        src: local("FiraCode-Bold"),
                url("https://cdnjs.cloudflare.com/ajax/libs/firacode/6.2.0/woff2/FiraCode-Bold.woff2") format("woff2"),
                url("https://cdnjs.cloudflare.com/ajax/libs/firacode/6.2.0/woff/FiraCode-Bold.woff") format("woff");
        font-style: bold;
        font-weight: 700;
    }

    .terminal-2254086572-matrix {
        font-family: Fira Code, monospace;
        font-size: 20px;
        line-height: 24.4px;
        font-variant-east-asian: full-width;
    }

    .terminal-2254086572-title {
        font-size: 18px;
        font-weight: bold;
        font-family: arial;
    }

    .terminal-2254086572-r1 { fill: #253046 }
.terminal-2254086572-r2 { fill: #c5c8c6 }
.terminal-2254086572-r3 { fill: #a78bfa;font-weight: bold }
.terminal-2254086572-r4 { fill: #e5e7eb }
.terminal-2254086572-r5 { fill: #ffff00;font-weight: bold }
.terminal-2254086572-r6 { fill: #fbbf24 }
.terminal-2254086572-r7 { fill: #bc8819 }
.terminal-2254086572-r8 { fill: #2d2d2d }
.terminal-2254086572-r9 { fill: #6db2ff }
.terminal-2254086572-r10 { fill: #e0e0e0;font-weight: bold }
.terminal-2254086572-r11 { fill: #ddedf9;font-weight: bold }
.terminal-2254086572-r12 { fill: #0d0d0d }
.terminal-2254086572-r13 { fill: #004295 }
    </style>

    <defs>
    <clipPath id="terminal-2254086572-clip-terminal">
      <rect x="0" y="0" width="1219.0" height="731.0" />
    </clipPath>
    <clipPath id="terminal-2254086572-line-0">
    <rect x="0" y="1.5" width="1220" height="24.65"/>
            </clipPath>
<clipPath id="terminal-2254086572-line-1">
    <rect x="0" y="25.9" width="1220" height="24.65"/>
            </clipPath>
<clipPath id="terminal-2254086572-line-2">
    <rect x="0" y="50.3" width="1220" height="24.65"/>
            </clipPath>
<clipPath id="terminal-2254086572-line-3">
    <rect x="0" y="74.7" width="1220" height="24.65"/>
            </clipPath>
<clipPath id="terminal-2254086572-line-4">
    <rect x="0" y="99.1" width="1220" height="24.65"/>
            </clipPath>
<clipPath id="terminal-2254086572-line-5">
    <rect x="0" y="123.5" width="1220" height="24.65"/>
            </clipPath>
<clipPath id="terminal-2254086572-line-6">
    <rect x="0" y="147.9" width="1220" height="24.65"/>
            </clipPath>
<clipPath id="terminal-2254086572-line-7">
    <rect x="0" y="172.3" width="1220" height="24.65"/>
            </clipPath>
<clipPath id="terminal-2254086572-line-8">
    <rect x="0" y="196.7" width="1220" height="24.65"/>
            </clipPath>
<clipPath id="terminal-2254086572-line-9">
    <rect x="0" y="221.1" width="1220" height="24.65"/>
            </clipPath>
<clipPath id="terminal-2254086572-line-10">
    <rect x="0" y="245.5" width="1220" height="24.65"/>
            </clipPath>
<clipPath id="terminal-2254086572-line-11">
    <rect x="0" y="269.9" width="1220" height="24.65"/>
            </clipPath>
<clipPath id="terminal-2254086572-line-12">
    <rect x="0" y="294.3" width="1220" height="24.65"/>
            </clipPath>
<clipPath id="terminal-2254086572-line-13">
    <rect x="0" y="318.7" width="1220" height="24.65"/>
            </clipPath>
<clipPath id="terminal-2254086572-line-14">
    <rect x="0" y="343.1" width="1220" height="24.65"/>
            </clipPath>
<clipPath id="terminal-2254086572-line-15">
    <rect x="0" y="367.5" width="1220" height="24.65"/>
            </clipPath>
<clipPath id="terminal-2254086572-line-16">
    <rect x="0" y="391.9" width="1220" height="24.65"/>
            </clipPath>
<clipPath id="terminal-2254086572-line-17">
    <rect x="0" y="416.3" width="1220" height="24.65"/>
            </clipPath>
<clipPath id="terminal-2254086572-line-18">
    <rect x="0" y="440.7" width="1220" height="24.65"/>
            </clipPath>
<clipPath id="terminal-2254086572-line-19">
    <rect x="0" y="465.1" width="1220" height="24.65"/>
            </clipPath>
<clipPath id="terminal-2254086572-line-20">
    <rect x="0" y="489.5" width="1220" height="24.65"/>
            </clipPath>
<clipPath id="terminal-2254086572-line-21">
    <rect x="0" y="513.9" width="1220" height="24.65"/>
            </clipPath>
<clipPath id="terminal-2254086572-line-22">
    <rect x="0" y="538.3" width="1220" height="24.65"/>
            </clipPath>
<clipPath id="terminal-2254086572-line-23">
    <rect x="0" y="562.7" width="1220" height="24.65"/>
            </clipPath>
<clipPath id="terminal-2254086572-line-24">
    <rect x="0" y="587.1" width="1220" height="24.65"/>
            </clipPath>
<clipPath id="terminal-2254086572-line-25">
    <rect x="0" y="611.5" width="1220" height="24.65"/>
            </clipPath>
<clipPath id="terminal-2254086572-line-26">
    <rect x="0" y="635.9" width="1220" height="24.65"/>
            </clipPath>
<clipPath id="terminal-2254086572-line-27">
    <rect x="0" y="660.3" width="1220" height="24.65"/>
            </clipPath>
<clipPath id="terminal-2254086572-line-28">
    <rect x="0" y="684.7" width="1220" height="24.65"/>
            </clipPath>
    </defs>

    <rect fill="#292929" stroke="rgba(255,255,255,0.35)" stroke-width="1" x="1" y="1" width="1236" height="780" rx="8"/><text class="terminal-2254086572-title" fill="#c5c8c6" text-anchor="middle" x="618" y="27">HoldSpeakApp</text>
            <g transform="translate(26,22)">
            <circle cx="0" cy="0" r="7" fill="#ff5f57"/>
            <circle cx="22" cy="0" r="7" fill="#febc2e"/>
            <circle cx="44" cy="0" r="7" fill="#28c840"/>
            </g>
        
    <g transform="translate(9, 41)" clip-path="url(#terminal-2254086572-clip-terminal)">
    <rect fill="#0f172a" x="0" y="1.5" width="12.2" height="24.65" shape-rendering="crispEdges"/><rect fill="#0f172a" x="12.2" y="1.5" width="951.6" height="24.65" shape-rendering="crispEdges"/><rect fill="#0f172a" x="963.8" y="1.5" width="12.2" height="24.65" shape-rendering="crispEdges"/><rect fill="#0b0f14" x="976" y="1.5" width="244" height="24.65" shape-rendering="crispEdges"/><rect fill="#0f172a" x="0" y="25.9" width="12.2" height="24.65" shape-rendering="crispEdges"/><rect fill="#0f172a" x="12.2" y="25.9" width="951.6" height="24.65" shape-rendering="crispEdges"/><rect fill="#0f172a" x="963.8" y="25.9" width="12.2" height="24.65" shape-rendering="crispEdges"/><rect fill="#0b0f14" x="976" y="25.9" width="244" height="24.65" shape-rendering="crispEdges"/><rect fill="#0f172a" x="0" y="50.3" width="12.2" height="24.65" shape-rendering="crispEdges"/><rect fill="#0f172a" x="12.2" y="50.3" width="24.4" height="24.65" shape-rendering="crispEdges"/><rect fill="#0f172a" x="36.6" y="50.3" width="219.6" height="24.65" shape-rendering="crispEdges"/><rect fill="#0f172a" x="256.2" y="50.3" width="683.2" height="24.65" shape-rendering="crispEdges"/><rect fill="#0f172a" x="939.4" y="50.3" width="24.4" height="24.65" shape-rendering="crispEdges"/><rect fill="#0f172a" x="963.8" y="50.3" width="12.2" height="24.65" shape-rendering="crispEdges"/><rect fill="#0b0f14" x="976" y="50.3" width="244" height="24.65" shape-rendering="crispEdges"/><rect fill="#0f172a" x="0" y="74.7" width="12.2" height="24.65" shape-rendering="crispEdges"/><rect fill="#0f172a" x="12.2" y="74.7" width="24.4" height="24.65" shape-rendering="crispEdges"/><rect fill="#0f172a" x="36.6" y="74.7" width="902.8" height="24.65" shape-rendering="crispEdges"/><rect fill="#0f172a" x="939.4" y="74.7" width="24.4" height="24.65" shape-rendering="crispEdges"/><rect fill="#0f172a" x="963.8" y="74.7" width="12.2" height="24.65" shape-rendering="crispEdges"/><rect fill="#0b0f14" x="976" y="74.7" width="244" height="24.65" shape-rendering="crispEdges"/><rect fill="#0f172a" x="0" y="99.1" width="12.2" height="24.65" shape-rendering="crispEdges"/><rect fill="#0f172a" x="12.2" y="99.1" width="24.4" height="24.65" shape-rendering="crispEdges"/><rect fill="#151c29" x="36.6" y="99.1" width="12.2" height="24.65" shape-rendering="crispEdges"/><rect fill="#151c29" x="48.8" y="99.1" width="878.4" height="24.65" shape-rendering="crispEdges"/><rect fill="#151c29" x="927.2" y="99.1" width="12.2" height="24.65" shape-rendering="crispEdges"/><rect fill="#0f172a" x="939.4" y="99.1" width="24.4" height="24.65" shape-rendering="crispEdges"/><rect fill="#0f172a" x="963.8" y="99.1" width="12.2" height="24.65" shape-rendering="crispEdges"/><rect fill="#0b0f14" x="976" y="99.1" width="244" height="24.65" shape-rendering="crispEdges"/><rect fill="#0f172a" x="0" y="123.5" width="12.2" height="24.65" shape-rendering="crispEdges"/><rect fill="#0f172a" x="12.2" y="123.5" width="24.4" height="24.65" shape-rendering="crispEdges"/><rect fill="#151c29" x="36.6" y="123.5" width="12.2" height="24.65" shape-rendering="crispEdges"/><rect fill="#151c29" x="48.8" y="123.5" width="12.2" height="24.65" shape-rendering="crispEdges"/><rect fill="#151c29" x="61" y="123.5" width="854" height="24.65" shape-rendering="crispEdges"/><rect fill="#151c29" x="915" y="123.5" width="12.2" height="24.65" shape-rendering="crispEdges"/><rect fill="#151c29" x="927.2" y="123.5" width="12.2" height="24.65" shape-rendering="crispEdges"/><rect fill="#0f172a" x="939.4" y="123.5" width="24.4" height="24.65" shape-rendering="crispEdges"/><rect fill="#0f172a" x="963.8" y="123.5" width="12.2" height="24.65" shape-rendering="crispEdges"/><rect fill="#0b0f14" x="976" y="123.5" width="244" height="24.65" shape-rendering="crispEdges"/><rect fill="#0f172a" x="0" y="147.9" width="12.2" height="24.65" shape-rendering="crispEdges"/><rect fill="#0f172a" x="12.2" y="147.9" width="24.4" height="24.65" shape-rendering="crispEdges"/><rect fill="#151c29" x="36.6" y="147.9" width="12.2" height="24.65" shape-rendering="crispEdges"/><rect fill="#151c29" x="48.8" y="147.9" width="12.2" height="24.65" shape-rendering="crispEdges"/><rect fill="#151c29" x="61" y="147.9" width="854" height="24.65" shape-rendering="crispEdges"/><rect fill="#151c29" x="915" y="147.9" width="12.2" height="24.65" shape-rendering="crispEdges"/><rect fill="#151c29" x="927.2" y="147.9" width="12.2" height="24.65" shape-rendering="crispEdges"/><rect fill="#0f172a" x="939.4" y="147.9" width="24.4" height="24.65" shape-rendering="crispEdges"/><rect fill="#0f172a" x="963.8" y="147.9" width="12.2" height="24.65" shape-rendering="crispEdges"/><rect fill="#0b0f14" x="976" y="147.9" width="244" height="24.65" shape-rendering="crispEdges"/><rect fill="#0f172a" x="0" y="172.3" width="12.2" height="24.65" shape-rendering="crispEdges"/><rect fill="#0f172a" x="12.2" y="172.3" width="24.4" height="24.65" shape-rendering="crispEdges"/><rect fill="#151c29" x="36.6" y="172.3" width="12.2" height="24.65" shape-rendering="crispEdges"/><rect fill="#151c29" x="48.8" y="172.3" width="12.2" height="24.65" shape-rendering="crispEdges"/><rect fill="#151c29" x="61" y="172.3" width="854" height="24.65" shape-rendering="crispEdges"/><rect fill="#151c29" x="915" y="172.3" width="12.2" height="24.65" shape-rendering="crispEdges"/><rect fill="#151c29" x="927.2" y="172.3" width="12.2" height="24.65" shape-rendering="crispEdges"/><rect fill="#0f172a" x="939.4" y="172.3" width="24.4" height="24.65" shape-rendering="crispEdges"/><rect fill="#0f172a" x="963.8" y="172.3" width="12.2" height="24.65" shape-rendering="crispEdges"/><rect fill="#0b0f14" x="976" y="172.3" width="244" height="24.65" shape-rendering="crispEdges"/><rect fill="#0f172a" x="0" y="196.7" width="12.2" height="24.65" shape-rendering="crispEdges"/><rect fill="#0f172a" x="12.2" y="196.7" width="24.4" height="24.65" shape-rendering="crispEdges"/><rect fill="#151c29" x="36.6" y="196.7" width="12.2" height="24.65" shape-rendering="crispEdges"/><rect fill="#151c29" x="48.8" y="196.7" width="12.2" height="24.65" shape-rendering="crispEdges"/><rect fill="#422006" x="61" y="196.7" width="12.2" height="24.65" shape-rendering="crispEdges"/><rect fill="#422006" x="73.2" y="196.7" width="207.4" height="24.65" shape-rendering="crispEdges"/><rect fill="#422006" x="280.6" y="196.7" width="12.2" height="24.65" shape-rendering="crispEdges"/><rect fill="#422006" x="292.8" y="196.7" width="134.2" height="24.65" shape-rendering="crispEdges"/><rect fill="#422006" x="427" y="196.7" width="12.2" height="24.65" shape-rendering="crispEdges"/><rect fill="#151c29" x="439.2" y="196.7" width="475.8" height="24.65" shape-rendering="crispEdges"/><rect fill="#151c29" x="915" y="196.7" width="12.2" height="24.65" shape-rendering="crispEdges"/><rect fill="#151c29" x="927.2" y="196.7" width="12.2" height="24.65" shape-rendering="crispEdges"/><rect fill="#0f172a" x="939.4" y="196.7" width="24.4" height="24.65" shape-rendering="crispEdges"/><rect fill="#0f172a" x="963.8" y="196.7" width="12.2" height="24.65" shape-rendering="crispEdges"/><rect fill="#0b0f14" x="976" y="196.7" width="244" height="24.65" shape-rendering="crispEdges"/><rect fill="#0f172a" x="0" y="221.1" width="12.2" height="24.65" shape-rendering="crispEdges"/><rect fill="#0f172a" x="12.2" y="221.1" width="24.4" height="24.65" shape-rendering="crispEdges"/><rect fill="#151c29" x="36.6" y="221.1" width="12.2" height="24.65" shape-rendering="crispEdges"/><rect fill="#151c29" x="48.8" y="221.1" width="12.2" height="24.65" shape-rendering="crispEdges"/><rect fill="#151c29" x="61" y="221.1" width="854" height="24.65" shape-rendering="crispEdges"/><rect fill="#151c29" x="915" y="221.1" width="12.2" height="24.65" shape-rendering="crispEdges"/><rect fill="#151c29" x="927.2" y="221.1" width="12.2" height="24.65" shape-rendering="crispEdges"/><rect fill="#0f172a" x="939.4" y="221.1" width="24.4" height="24.65" shape-rendering="crispEdges"/><rect fill="#0f172a" x="963.8" y="221.1" width="12.2" height="24.65" shape-rendering="crispEdges"/><rect fill="#0b0f14" x="976" y="221.1" width="244" height="24.65" shape-rendering="crispEdges"/><rect fill="#0f172a" x="0" y="245.5" width="12.2" height="24.65" shape-rendering="crispEdges"/><rect fill="#0f172a" x="12.2" y="245.5" width="24.4" height="24.65" shape-rendering="crispEdges"/><rect fill="#151c29" x="36.6" y="245.5" width="12.2" height="24.65" shape-rendering="crispEdges"/><rect fill="#151c29" x="48.8" y="245.5" width="878.4" height="24.65" shape-rendering="crispEdges"/><rect fill="#151c29" x="927.2" y="245.5" width="12.2" height="24.65" shape-rendering="crispEdges"/><rect fill="#0f172a" x="939.4" y="245.5" width="24.4" height="24.65" shape-rendering="crispEdges"/><rect fill="#0f172a" x="963.8" y="245.5" width="12.2" height="24.65" shape-rendering="crispEdges"/><rect fill="#0b0f14" x="976" y="245.5" width="244" height="24.65" shape-rendering="crispEdges"/><rect fill="#0f172a" x="0" y="269.9" width="12.2" height="24.65" shape-rendering="crispEdges"/><rect fill="#0f172a" x="12.2" y="269.9" width="24.4" height="24.65" shape-rendering="crispEdges"/><rect fill="#151c29" x="36.6" y="269.9" width="12.2" height="24.65" shape-rendering="crispEdges"/><rect fill="#151c29" x="48.8" y="269.9" width="878.4" height="24.65" shape-rendering="crispEdges"/><rect fill="#151c29" x="927.2" y="269.9" width="12.2" height="24.65" shape-rendering="crispEdges"/><rect fill="#0f172a" x="939.4" y="269.9" width="24.4" height="24.65" shape-rendering="crispEdges"/><rect fill="#0f172a" x="963.8" y="269.9" width="12.2" height="24.65" shape-rendering="crispEdges"/><rect fill="#0b0f14" x="976" y="269.9" width="244" height="24.65" shape-rendering="crispEdges"/><rect fill="#0f172a" x="0" y="294.3" width="12.2" height="24.65" shape-rendering="crispEdges"/><rect fill="#0f172a" x="12.2" y="294.3" width="24.4" height="24.65" shape-rendering="crispEdges"/><rect fill="#151c29" x="36.6" y="294.3" width="12.2" height="24.65" shape-rendering="crispEdges"/><rect fill="#151c29" x="48.8" y="294.3" width="878.4" height="24.65" shape-rendering="crispEdges"/><rect fill="#151c29" x="927.2" y="294.3" width="12.2" height="24.65" shape-rendering="crispEdges"/><rect fill="#0f172a" x="939.4" y="294.3" width="24.4" height="24.65" shape-rendering="crispEdges"/><rect fill="#0f172a" x="963.8" y="294.3" width="12.2" height="24.65" shape-rendering="crispEdges"/><rect fill="#0b0f14" x="976" y="294.3" width="244" height="24.65" shape-rendering="crispEdges"/><rect fill="#0f172a" x="0" y="318.7" width="12.2" height="24.65" shape-rendering="crispEdges"/><rect fill="#0f172a" x="12.2" y="318.7" width="24.4" height="24.65" shape-rendering="crispEdges"/><rect fill="#151c29" x="36.6" y="318.7" width="12.2" height="24.65" shape-rendering="crispEdges"/><rect fill="#151c29" x="48.8" y="318.7" width="878.4" height="24.65" shape-rendering="crispEdges"/><rect fill="#151c29" x="927.2" y="318.7" width="12.2" height="24.65" shape-rendering="crispEdges"/><rect fill="#0f172a" x="939.4" y="318.7" width="24.4" height="24.65" shape-rendering="crispEdges"/><rect fill="#0f172a" x="963.8" y="318.7" width="12.2" height="24.65" shape-rendering="crispEdges"/><rect fill="#0b0f14" x="976" y="318.7" width="244" height="24.65" shape-rendering="crispEdges"/><rect fill="#0f172a" x="0" y="343.1" width="12.2" height="24.65" shape-rendering="crispEdges"/><rect fill="#0f172a" x="12.2" y="343.1" width="24.4" height="24.65" shape-rendering="crispEdges"/><rect fill="#151c29" x="36.6" y="343.1" width="12.2" height="24.65" shape-rendering="crispEdges"/><rect fill="#151c29" x="48.8" y="343.1" width="878.4" height="24.65" shape-rendering="crispEdges"/><rect fill="#151c29" x="927.2" y="343.1" width="12.2" height="24.65" shape-rendering="crispEdges"/><rect fill="#0f172a" x="939.4" y="343.1" width="24.4" height="24.65" shape-rendering="crispEdges"/><rect fill="#0f172a" x="963.8" y="343.1" width="12.2" height="24.65" shape-rendering="crispEdges"/><rect fill="#0b0f14" x="976" y="343.1" width="244" height="24.65" shape-rendering="crispEdges"/><rect fill="#0f172a" x="0" y="367.5" width="12.2" height="24.65" shape-rendering="crispEdges"/><rect fill="#0f172a" x="12.2" y="367.5" width="24.4" height="24.65" shape-rendering="crispEdges"/><rect fill="#151c29" x="36.6" y="367.5" width="12.2" height="24.65" shape-rendering="crispEdges"/><rect fill="#151c29" x="48.8" y="367.5" width="878.4" height="24.65" shape-rendering="crispEdges"/><rect fill="#151c29" x="927.2" y="367.5" width="12.2" height="24.65" shape-rendering="crispEdges"/><rect fill="#0f172a" x="939.4" y="367.5" width="24.4" height="24.65" shape-rendering="crispEdges"/><rect fill="#0f172a" x="963.8" y="367.5" width="12.2" height="24.65" shape-rendering="crispEdges"/><rect fill="#0b0f14" x="976" y="367.5" width="244" height="24.65" shape-rendering="crispEdges"/><rect fill="#0f172a" x="0" y="391.9" width="12.2" height="24.65" shape-rendering="crispEdges"/><rect fill="#0f172a" x="12.2" y="391.9" width="24.4" height="24.65" shape-rendering="crispEdges"/><rect fill="#151c29" x="36.6" y="391.9" width="12.2" height="24.65" shape-rendering="crispEdges"/><rect fill="#151c29" x="48.8" y="391.9" width="878.4" height="24.65" shape-rendering="crispEdges"/><rect fill="#151c29" x="927.2" y="391.9" width="12.2" height="24.65" shape-rendering="crispEdges"/><rect fill="#0f172a" x="939.4" y="391.9" width="24.4" height="24.65" shape-rendering="crispEdges"/><rect fill="#0f172a" x="963.8" y="391.9" width="12.2" height="24.65" shape-rendering="crispEdges"/><rect fill="#0b0f14" x="976" y="391.9" width="244" height="24.65" shape-rendering="crispEdges"/><rect fill="#0f172a" x="0" y="416.3" width="12.2" height="24.65" shape-rendering="crispEdges"/><rect fill="#0f172a" x="12.2" y="416.3" width="24.4" height="24.65" shape-rendering="crispEdges"/><rect fill="#151c29" x="36.6" y="416.3" width="12.2" height="24.65" shape-rendering="crispEdges"/><rect fill="#151c29" x="48.8" y="416.3" width="878.4" height="24.65" shape-rendering="crispEdges"/><rect fill="#151c29" x="927.2" y="416.3" width="12.2" height="24.65" shape-rendering="crispEdges"/><rect fill="#0f172a" x="939.4" y="416.3" width="24.4" height="24.65" shape-rendering="crispEdges"/><rect fill="#0f172a" x="963.8" y="416.3" width="12.2" height="24.65" shape-rendering="crispEdges"/><rect fill="#0b0f14" x="976" y="416.3" width="244" height="24.65" shape-rendering="crispEdges"/><rect fill="#0f172a" x="0" y="440.7" width="12.2" height="24.65" shape-rendering="crispEdges"/><rect fill="#0f172a" x="12.2" y="440.7" width="24.4" height="24.65" shape-rendering="crispEdges"/><rect fill="#0f172a" x="36.6" y="440.7" width="902.8" height="24.65" shape-rendering="crispEdges"/><rect fill="#0f172a" x="939.4" y="440.7" width="24.4" height="24.65" shape-rendering="crispEdges"/><rect fill="#0f172a" x="963.8" y="440.7" width="12.2" height="24.65" shape-rendering="crispEdges"/><rect fill="#0b0f14" x="976" y="440.7" width="244" height="24.65" shape-rendering="crispEdges"/><rect fill="#0f172a" x="0" y="465.1" width="12.2" height="24.65" shape-rendering="crispEdges"/><rect fill="#0f172a" x="12.2" y="465.1" width="24.4" height="24.65" shape-rendering="crispEdges"/><rect fill="#0f172a" x="36.6" y="465.1" width="12.2" height="24.65" shape-rendering="crispEdges"/><rect fill="#1e1e1e" x="48.8" y="465.1" width="195.2" height="24.65" shape-rendering="crispEdges"/><rect fill="#0f172a" x="244" y="465.1" width="12.2" height="24.65" shape-rendering="crispEdges"/><rect fill="#0178d4" x="256.2" y="465.1" width="195.2" height="24.65" shape-rendering="crispEdges"/><rect fill="#0f172a" x="451.4" y="465.1" width="488" height="24.65" shape-rendering="crispEdges"/><rect fill="#0f172a" x="939.4" y="465.1" width="24.4" height="24.65" shape-rendering="crispEdges"/><rect fill="#0f172a" x="963.8" y="465.1" width="12.2" height="24.65" shape-rendering="crispEdges"/><rect fill="#0b0f14" x="976" y="465.1" width="244" height="24.65" shape-rendering="crispEdges"/><rect fill="#0f172a" x="0" y="489.5" width="12.2" height="24.65" shape-rendering="crispEdges"/><rect fill="#0f172a" x="12.2" y="489.5" width="24.4" height="24.65" shape-rendering="crispEdges"/><rect fill="#0f172a" x="36.6" y="489.5" width="12.2" height="24.65" shape-rendering="crispEdges"/><rect fill="#1e1e1e" x="48.8" y="489.5" width="48.8" height="24.65" shape-rendering="crispEdges"/><rect fill="#1e1e1e" x="97.6" y="489.5" width="85.4" height="24.65" shape-rendering="crispEdges"/><rect fill="#1e1e1e" x="183" y="489.5" width="61" height="24.65" shape-rendering="crispEdges"/><rect fill="#0f172a" x="244" y="489.5" width="12.2" height="24.65" shape-rendering="crispEdges"/><rect fill="#0178d4" x="256.2" y="489.5" width="36.6" height="24.65" shape-rendering="crispEdges"/><rect fill="#0178d4" x="292.8" y="489.5" width="122" height="24.65" shape-rendering="crispEdges"/><rect fill="#0178d4" x="414.8" y="489.5" width="36.6" height="24.65" shape-rendering="crispEdges"/><rect fill="#0f172a" x="451.4" y="489.5" width="488" height="24.65" shape-rendering="crispEdges"/><rect fill="#0f172a" x="939.4" y="489.5" width="24.4" height="24.65" shape-rendering="crispEdges"/><rect fill="#0f172a" x="963.8" y="489.5" width="12.2" height="24.65" shape-rendering="crispEdges"/><rect fill="#0b0f14" x="976" y="489.5" width="244" height="24.65" shape-rendering="crispEdges"/><rect fill="#0f172a" x="0" y="513.9" width="12.2" height="24.65" shape-rendering="crispEdges"/><rect fill="#0f172a" x="12.2" y="513.9" width="24.4" height="24.65" shape-rendering="crispEdges"/><rect fill="#0f172a" x="36.6" y="513.9" width="12.2" height="24.65" shape-rendering="crispEdges"/><rect fill="#1e1e1e" x="48.8" y="513.9" width="195.2" height="24.65" shape-rendering="crispEdges"/><rect fill="#0f172a" x="244" y="513.9" width="12.2" height="24.65" shape-rendering="crispEdges"/><rect fill="#0178d4" x="256.2" y="513.9" width="195.2" height="24.65" shape-rendering="crispEdges"/><rect fill="#0f172a" x="451.4" y="513.9" width="488" height="24.65" shape-rendering="crispEdges"/><rect fill="#0f172a" x="939.4" y="513.9" width="24.4" height="24.65" shape-rendering="crispEdges"/><rect fill="#0f172a" x="963.8" y="513.9" width="12.2" height="24.65" shape-rendering="crispEdges"/><rect fill="#0b0f14" x="976" y="513.9" width="244" height="24.65" shape-rendering="crispEdges"/><rect fill="#0f172a" x="0" y="538.3" width="12.2" height="24.65" shape-rendering="crispEdges"/><rect fill="#0f172a" x="12.2" y="538.3" width="951.6" height="24.65" shape-rendering="crispEdges"/><rect fill="#0f172a" x="963.8" y="538.3" width="12.2" height="24.65" shape-rendering="crispEdges"/><rect fill="#0b0f14" x="976" y="538.3" width="244" height="24.65" shape-rendering="crispEdges"/><rect fill="#0f172a" x="0" y="562.7" width="12.2" height="24.65" shape-rendering="crispEdges"/><rect fill="#0f172a" x="12.2" y="562.7" width="951.6" height="24.65" shape-rendering="crispEdges"/><rect fill="#0f172a" x="963.8" y="562.7" width="12.2" height="24.65" shape-rendering="crispEdges"/><rect fill="#0b0f14" x="976" y="562.7" width="244" height="24.65" shape-rendering="crispEdges"/><rect fill="#0b0f14" x="0" y="587.1" width="1220" height="24.65" shape-rendering="crispEdges"/><rect fill="#0b0f14" x="0" y="611.5" width="1220" height="24.65" shape-rendering="crispEdges"/><rect fill="#0b0f14" x="0" y="635.9" width="1220" height="24.65" shape-rendering="crispEdges"/><rect fill="#0b0f14" x="0" y="660.3" width="1220" height="24.65" shape-rendering="crispEdges"/><rect fill="#0b0f14" x="0" y="684.7" width="1220" height="24.65" shape-rendering="crispEdges"/><rect fill="#0b0f14" x="0" y="709.1" width="1220" height="24.65" shape-rendering="crispEdges"/>
    <g class="terminal-2254086572-matrix">
    <text class="terminal-2254086572-r1" x="0" y="20" textLength="12.2" clip-path="url(#terminal-2254086572-line-0)">┏</text><text class="terminal-2254086572-r1" x="12.2" y="20" textLength="951.6" clip-path="url(#terminal-2254086572-line-0)">━━━━━━━━━━━━━━━━━━━━━━━━━━━━━━━━━━━━━━━━━━━━━━━━━━━━━━━━━━━━━━━━━━━━━━━━━━━━━━</text><text class="terminal-2254086572-r1" x="963.8" y="20" textLength="12.2" clip-path="url(#terminal-2254086572-line-0)">┓</text><text class="terminal-2254086572-r2" x="1220" y="20" textLength="12.2" clip-path="url(#terminal-2254086572-line-0)">
</text><text class="terminal-2254086572-r1" x="0" y="44.4" textLength="12.2" clip-path="url(#terminal-2254086572-line-1)">┃</text><text class="terminal-2254086572-r1" x="963.8" y="44.4" textLength="12.2" clip-path="url(#terminal-2254086572-line-1)">┃</text><text class="terminal-2254086572-r2" x="1220" y="44.4" textLength="12.2" clip-path="url(#terminal-2254086572-line-1)">
</text><text class="terminal-2254086572-r1" x="0" y="68.8" textLength="12.2" clip-path="url(#terminal-2254086572-line-2)">┃</text><text class="terminal-2254086572-r3" x="36.6" y="68.8" textLength="219.6" clip-path="url(#terminal-2254086572-line-2)">Meeting&#160;Transcript</text><text class="terminal-2254086572-r1" x="963.8" y="68.8" textLength="12.2" clip-path="url(#terminal-2254086572-line-2)">┃</text><text class="terminal-2254086572-r2" x="1220" y="68.8" textLength="12.2" clip-path="url(#terminal-2254086572-line-2)">
</text><text class="terminal-2254086572-r1" x="0" y="93.2" textLength="12.2" clip-path="url(#terminal-2254086572-line-3)">┃</text><text class="terminal-2254086572-r1" x="963.8" y="93.2" textLength="12.2" clip-path="url(#terminal-2254086572-line-3)">┃</text><text class="terminal-2254086572-r2" x="1220" y="93.2" textLength="12.2" clip-path="url(#terminal-2254086572-line-3)">
</text><text class="terminal-2254086572-r1" x="0" y="117.6" textLength="12.2" clip-path="url(#terminal-2254086572-line-4)">┃</text><text class="terminal-2254086572-r1" x="36.6" y="117.6" textLength="12.2" clip-path="url(#terminal-2254086572-line-4)">┌</text><text class="terminal-2254086572-r1" x="48.8" y="117.6" textLength="878.4" clip-path="url(#terminal-2254086572-line-4)">────────────────────────────────────────────────────────────────────────</text><text class="terminal-2254086572-r1" x="927.2" y="117.6" textLength="12.2" clip-path="url(#terminal-2254086572-line-4)">┐</text><text class="terminal-2254086572-r1" x="963.8" y="117.6" textLength="12.2" clip-path="url(#terminal-2254086572-line-4)">┃</text><text class="terminal-2254086572-r2" x="1220" y="117.6" textLength="12.2" clip-path="url(#terminal-2254086572-line-4)">
</text><text class="terminal-2254086572-r1" x="0" y="142" textLength="12.2" clip-path="url(#terminal-2254086572-line-5)">┃</text><text class="terminal-2254086572-r1" x="36.6" y="142" textLength="12.2" clip-path="url(#terminal-2254086572-line-5)">│</text><text class="terminal-2254086572-r4" x="61" y="142" textLength="854" clip-path="url(#terminal-2254086572-line-5)">[00:00:00]&#160;Me:&#160;I&#160;think&#160;we&#160;should&#160;focus&#160;on&#160;the&#160;Q1&#160;roadmap&#160;priorities&#160;fi</text><text class="terminal-2254086572-r1" x="927.2" y="142" textLength="12.2" clip-path="url(#terminal-2254086572-line-5)">│</text><text class="terminal-2254086572-r1" x="963.8" y="142" textLength="12.2" clip-path="url(#terminal-2254086572-line-5)">┃</text><text class="terminal-2254086572-r2" x="1220" y="142" textLength="12.2" clip-path="url(#terminal-2254086572-line-5)">
</text><text class="terminal-2254086572-r1" x="0" y="166.4" textLength="12.2" clip-path="url(#terminal-2254086572-line-6)">┃</text><text class="terminal-2254086572-r1" x="36.6" y="166.4" textLength="12.2" clip-path="url(#terminal-2254086572-line-6)">│</text><text class="terminal-2254086572-r4" x="61" y="166.4" textLength="854" clip-path="url(#terminal-2254086572-line-6)">[00:00:18]&#160;Remote:&#160;Agreed.&#160;For&#160;the&#160;auth&#160;system,&#160;I&#x27;ve&#160;been&#160;researching&#160;</text><text class="terminal-2254086572-r1" x="927.2" y="166.4" textLength="12.2" clip-path="url(#terminal-2254086572-line-6)">│</text><text class="terminal-2254086572-r1" x="963.8" y="166.4" textLength="12.2" clip-path="url(#terminal-2254086572-line-6)">┃</text><text class="terminal-2254086572-r2" x="1220" y="166.4" textLength="12.2" clip-path="url(#terminal-2254086572-line-6)">
</text><text class="terminal-2254086572-r1" x="0" y="190.8" textLength="12.2" clip-path="url(#terminal-2254086572-line-7)">┃</text><text class="terminal-2254086572-r1" x="36.6" y="190.8" textLength="12.2" clip-path="url(#terminal-2254086572-line-7)">│</text><text class="terminal-2254086572-r4" x="61" y="190.8" textLength="854" clip-path="url(#terminal-2254086572-line-7)">[00:00:45]&#160;Me:&#160;Let&#x27;s&#160;go&#160;with&#160;OAuth&#160;then.&#160;It&#x27;s&#160;more&#160;secure&#160;and&#160;reduces&#160;</text><text class="terminal-2254086572-r1" x="927.2" y="190.8" textLength="12.2" clip-path="url(#terminal-2254086572-line-7)">│</text><text class="terminal-2254086572-r1" x="963.8" y="190.8" textLength="12.2" clip-path="url(#terminal-2254086572-line-7)">┃</text><text class="terminal-2254086572-r2" x="1220" y="190.8" textLength="12.2" clip-path="url(#terminal-2254086572-line-7)">
</text><text class="terminal-2254086572-r1" x="0" y="215.2" textLength="12.2" clip-path="url(#terminal-2254086572-line-8)">┃</text><text class="terminal-2254086572-r1" x="36.6" y="215.2" textLength="12.2" clip-path="url(#terminal-2254086572-line-8)">│</text><text class="terminal-2254086572-r5" x="73.2" y="215.2" textLength="195.2" clip-path="url(#terminal-2254086572-line-8)">🔖&#160;OAuth&#160;decision</text><text class="terminal-2254086572-r7" x="292.8" y="215.2" textLength="134.2" clip-path="url(#terminal-2254086572-line-8)">@&#160;00:00:45S</text><text class="terminal-2254086572-r1" x="927.2" y="215.2" textLength="12.2" clip-path="url(#terminal-2254086572-line-8)">│</text><text class="terminal-2254086572-r1" x="963.8" y="215.2" textLength="12.2" clip-path="url(#terminal-2254086572-line-8)">┃</text><text class="terminal-2254086572-r2" x="1220" y="215.2" textLength="12.2" clip-path="url(#terminal-2254086572-line-8)">
</text><text class="terminal-2254086572-r1" x="0" y="239.6" textLength="12.2" clip-path="url(#terminal-2254086572-line-9)">┃</text><text class="terminal-2254086572-r1" x="36.6" y="239.6" textLength="12.2" clip-path="url(#terminal-2254086572-line-9)">│</text><text class="terminal-2254086572-r4" x="61" y="239.6" textLength="854" clip-path="url(#terminal-2254086572-line-9)">[00:01:10]&#160;Remote:&#160;Perfect.&#160;Can&#160;you&#160;also&#160;loop&#160;in&#160;the&#160;security&#160;team?&#160;Th</text><text class="terminal-2254086572-r1" x="927.2" y="239.6" textLength="12.2" clip-path="url(#terminal-2254086572-line-9)">│</text><text class="terminal-2254086572-r1" x="963.8" y="239.6" textLength="12.2" clip-path="url(#terminal-2254086572-line-9)">┃</text><text class="terminal-2254086572-r2" x="1220" y="239.6" textLength="12.2" clip-path="url(#terminal-2254086572-line-9)">
</text><text class="terminal-2254086572-r1" x="0" y="264" textLength="12.2" clip-path="url(#terminal-2254086572-line-10)">┃</text><text class="terminal-2254086572-r1" x="36.6" y="264" textLength="12.2" clip-path="url(#terminal-2254086572-line-10)">│</text><text class="terminal-2254086572-r1" x="927.2" y="264" textLength="12.2" clip-path="url(#terminal-2254086572-line-10)">│</text><text class="terminal-2254086572-r1" x="963.8" y="264" textLength="12.2" clip-path="url(#terminal-2254086572-line-10)">┃</text><text class="terminal-2254086572-r2" x="1220" y="264" textLength="12.2" clip-path="url(#terminal-2254086572-line-10)">
</text><text class="terminal-2254086572-r1" x="0" y="288.4" textLength="12.2" clip-path="url(#terminal-2254086572-line-11)">┃</text><text class="terminal-2254086572-r1" x="36.6" y="288.4" textLength="12.2" clip-path="url(#terminal-2254086572-line-11)">│</text><text class="terminal-2254086572-r1" x="927.2" y="288.4" textLength="12.2" clip-path="url(#terminal-2254086572-line-11)">│</text><text class="terminal-2254086572-r1" x="963.8" y="288.4" textLength="12.2" clip-path="url(#terminal-2254086572-line-11)">┃</text><text class="terminal-2254086572-r2" x="1220" y="288.4" textLength="12.2" clip-path="url(#terminal-2254086572-line-11)">
</text><text class="terminal-2254086572-r1" x="0" y="312.8" textLength="12.2" clip-path="url(#terminal-2254086572-line-12)">┃</text><text class="terminal-2254086572-r1" x="36.6" y="312.8" textLength="12.2" clip-path="url(#terminal-2254086572-line-12)">│</text><text class="terminal-2254086572-r1" x="927.2" y="312.8" textLength="12.2" clip-path="url(#terminal-2254086572-line-12)">│</text><text class="terminal-2254086572-r1" x="963.8" y="312.8" textLength="12.2" clip-path="url(#terminal-2254086572-line-12)">┃</text><text class="terminal-2254086572-r2" x="1220" y="312.8" textLength="12.2" clip-path="url(#terminal-2254086572-line-12)">
</text><text class="terminal-2254086572-r1" x="0" y="337.2" textLength="12.2" clip-path="url(#terminal-2254086572-line-13)">┃</text><text class="terminal-2254086572-r1" x="36.6" y="337.2" textLength="12.2" clip-path="url(#terminal-2254086572-line-13)">│</text><text class="terminal-2254086572-r1" x="927.2" y="337.2" textLength="12.2" clip-path="url(#terminal-2254086572-line-13)">│</text><text class="terminal-2254086572-r1" x="963.8" y="337.2" textLength="12.2" clip-path="url(#terminal-2254086572-line-13)">┃</text><text class="terminal-2254086572-r2" x="1220" y="337.2" textLength="12.2" clip-path="url(#terminal-2254086572-line-13)">
</text><text class="terminal-2254086572-r1" x="0" y="361.6" textLength="12.2" clip-path="url(#terminal-2254086572-line-14)">┃</text><text class="terminal-2254086572-r1" x="36.6" y="361.6" textLength="12.2" clip-path="url(#terminal-2254086572-line-14)">│</text><text class="terminal-2254086572-r1" x="927.2" y="361.6" textLength="12.2" clip-path="url(#terminal-2254086572-line-14)">│</text><text class="terminal-2254086572-r1" x="963.8" y="361.6" textLength="12.2" clip-path="url(#terminal-2254086572-line-14)">┃</text><text class="terminal-2254086572-r2" x="1220" y="361.6" textLength="12.2" clip-path="url(#terminal-2254086572-line-14)">
</text><text class="terminal-2254086572-r1" x="0" y="386" textLength="12.2" clip-path="url(#terminal-2254086572-line-15)">┃</text><text class="terminal-2254086572-r1" x="36.6" y="386" textLength="12.2" clip-path="url(#terminal-2254086572-line-15)">│</text><text class="terminal-2254086572-r1" x="927.2" y="386" textLength="12.2" clip-path="url(#terminal-2254086572-line-15)">│</text><text class="terminal-2254086572-r1" x="963.8" y="386" textLength="12.2" clip-path="url(#terminal-2254086572-line-15)">┃</text><text class="terminal-2254086572-r2" x="1220" y="386" textLength="12.2" clip-path="url(#terminal-2254086572-line-15)">
</text><text class="terminal-2254086572-r1" x="0" y="410.4" textLength="12.2" clip-path="url(#terminal-2254086572-line-16)">┃</text><text class="terminal-2254086572-r1" x="36.6" y="410.4" textLength="12.2" clip-path="url(#terminal-2254086572-line-16)">│</text><text class="terminal-2254086572-r1" x="927.2" y="410.4" textLength="12.2" clip-path="url(#terminal-2254086572-line-16)">│</text><text class="terminal-2254086572-r1" x="963.8" y="410.4" textLength="12.2" clip-path="url(#terminal-2254086572-line-16)">┃</text><text class="terminal-2254086572-r2" x="1220" y="410.4" textLength="12.2" clip-path="url(#terminal-2254086572-line-16)">
</text><text class="terminal-2254086572-r1" x="0" y="434.8" textLength="12.2" clip-path="url(#terminal-2254086572-line-17)">┃</text><text class="terminal-2254086572-r1" x="36.6" y="434.8" textLength="12.2" clip-path="url(#terminal-2254086572-line-17)">└</text><text class="terminal-2254086572-r1" x="48.8" y="434.8" textLength="878.4" clip-path="url(#terminal-2254086572-line-17)">────────────────────────────────────────────────────────────────────────</text><text class="terminal-2254086572-r1" x="927.2" y="434.8" textLength="12.2" clip-path="url(#terminal-2254086572-line-17)">┘</text><text class="terminal-2254086572-r1" x="963.8" y="434.8" textLength="12.2" clip-path="url(#terminal-2254086572-line-17)">┃</text><text class="terminal-2254086572-r2" x="1220" y="434.8" textLength="12.2" clip-path="url(#terminal-2254086572-line-17)">
</text><text class="terminal-2254086572-r1" x="0" y="459.2" textLength="12.2" clip-path="url(#terminal-2254086572-line-18)">┃</text><text class="terminal-2254086572-r1" x="963.8" y="459.2" textLength="12.2" clip-path="url(#terminal-2254086572-line-18)">┃</text><text class="terminal-2254086572-r2" x="1220" y="459.2" textLength="12.2" clip-path="url(#terminal-2254086572-line-18)">
</text><text class="terminal-2254086572-r1" x="0" y="483.6" textLength="12.2" clip-path="url(#terminal-2254086572-line-19)">┃</text><text class="terminal-2254086572-r8" x="48.8" y="483.6" textLength="195.2" clip-path="url(#terminal-2254086572-line-19)">▔▔▔▔▔▔▔▔▔▔▔▔▔▔▔▔</text><text class="terminal-2254086572-r9" x="256.2" y="483.6" textLength="195.2" clip-path="url(#terminal-2254086572-line-19)">▔▔▔▔▔▔▔▔▔▔▔▔▔▔▔▔</text><text class="terminal-2254086572-r1" x="963.8" y="483.6" textLength="12.2" clip-path="url(#terminal-2254086572-line-19)">┃</text><text class="terminal-2254086572-r2" x="1220" y="483.6" textLength="12.2" clip-path="url(#terminal-2254086572-line-19)">
</text><text class="terminal-2254086572-r1" x="0" y="508" textLength="12.2" clip-path="url(#terminal-2254086572-line-20)">┃</text><text class="terminal-2254086572-r10" x="97.6" y="508" textLength="85.4" clip-path="url(#terminal-2254086572-line-20)">&#160;Close&#160;</text><text class="terminal-2254086572-r11" x="292.8" y="508" textLength="122" clip-path="url(#terminal-2254086572-line-20)">&#160;Copy&#160;All&#160;</text><text class="terminal-2254086572-r1" x="963.8" y="508" textLength="12.2" clip-path="url(#terminal-2254086572-line-20)">┃</text><text class="terminal-2254086572-r2" x="1220" y="508" textLength="12.2" clip-path="url(#terminal-2254086572-line-20)">
</text><text class="terminal-2254086572-r1" x="0" y="532.4" textLength="12.2" clip-path="url(#terminal-2254086572-line-21)">┃</text><text class="terminal-2254086572-r12" x="48.8" y="532.4" textLength="195.2" clip-path="url(#terminal-2254086572-line-21)">▁▁▁▁▁▁▁▁▁▁▁▁▁▁▁▁</text><text class="terminal-2254086572-r13" x="256.2" y="532.4" textLength="195.2" clip-path="url(#terminal-2254086572-line-21)">▁▁▁▁▁▁▁▁▁▁▁▁▁▁▁▁</text><text class="terminal-2254086572-r1" x="963.8" y="532.4" textLength="12.2" clip-path="url(#terminal-2254086572-line-21)">┃</text><text class="terminal-2254086572-r2" x="1220" y="532.4" textLength="12.2" clip-path="url(#terminal-2254086572-line-21)">
</text><text class="terminal-2254086572-r1" x="0" y="556.8" textLength="12.2" clip-path="url(#terminal-2254086572-line-22)">┃</text><text class="terminal-2254086572-r1" x="963.8" y="556.8" textLength="12.2" clip-path="url(#terminal-2254086572-line-22)">┃</text><text class="terminal-2254086572-r2" x="1220" y="556.8" textLength="12.2" clip-path="url(#terminal-2254086572-line-22)">
</text><text class="terminal-2254086572-r1" x="0" y="581.2" textLength="12.2" clip-path="url(#terminal-2254086572-line-23)">┗</text><text class="terminal-2254086572-r1" x="12.2" y="581.2" textLength="951.6" clip-path="url(#terminal-2254086572-line-23)">━━━━━━━━━━━━━━━━━━━━━━━━━━━━━━━━━━━━━━━━━━━━━━━━━━━━━━━━━━━━━━━━━━━━━━━━━━━━━━</text><text class="terminal-2254086572-r1" x="963.8" y="581.2" textLength="12.2" clip-path="url(#terminal-2254086572-line-23)">┛</text><text class="terminal-2254086572-r2" x="1220" y="581.2" textLength="12.2" clip-path="url(#terminal-2254086572-line-23)">
</text><text class="terminal-2254086572-r2" x="1220" y="605.6" textLength="12.2" clip-path="url(#terminal-2254086572-line-24)">
</text><text class="terminal-2254086572-r2" x="1220" y="630" textLength="12.2" clip-path="url(#terminal-2254086572-line-25)">
</text><text class="terminal-2254086572-r2" x="1220" y="654.4" textLength="12.2" clip-path="url(#terminal-2254086572-line-26)">
</text><text class="terminal-2254086572-r2" x="1220" y="678.8" textLength="12.2" clip-path="url(#terminal-2254086572-line-27)">
</text><text class="terminal-2254086572-r2" x="1220" y="703.2" textLength="12.2" clip-path="url(#terminal-2254086572-line-28)">
</text>
    </g>
    </g>
</svg>
