<svg class="rich-terminal" viewBox="0 0 1482 879.5999999999999" xmlns="http://www.w3.org/2000/svg">
    <!-- Generated with Rich https://www.textualize.io -->
    <style>

    @font-face {
        font-family: "Fira Code";
        src: local("FiraCode-Regular"),
                url("https://cdnjs.cloudflare.com/ajax/libs/firacode/6.2.0/woff2/FiraCode-Regular.woff2") format("woff2"),
                url("https://cdnjs.cloudflare.com/ajax/libs/firacode/6.2.0/woff/FiraCode-Regular.woff") format("woff");
        font-style: normal;
        font-weight: 400;
    }
    @font-face {
        font-family: "Fira Code";
        src: local("FiraCode-Bold"),
                url("https://cdnjs.cloudflare.com/ajax/libs/firacode/6.2.0/woff2/FiraCode-Bold.woff2") format("woff2"),
                url("https://cdnjs.cloudflare.com/ajax/libs/firacode/6.2.0/woff/FiraCode-Bold.woff") format("woff");
        font-style: bold;
        font-weight: 700;
    }

    .terminal-2480142954-matrix {
        font-family: Fira Code, monospace;
        font-size: 20px;
        line-height: 24.4px;
        font-variant-east-asian: full-width;
    }

    .terminal-2480142954-title {
        font-size: 18px;
        font-weight: bold;
        font-family: arial;
    }

    .terminal-2480142954-r1 { fill: #2f2f2f }
.terminal-2480142954-r2 { fill: #c5c8c6 }
.terminal-2480142954-r3 { fill: #afafaf;font-weight: bold }
.terminal-2480142954-r4 { fill: #e7e7e7 }
.terminal-2480142954-r5 { fill: #ededed;font-weight: bold }
.terminal-2480142954-r6 { fill: #c1c1c1 }
.terminal-2480142954-r7 { fill: #8b8b8b }
.terminal-2480142954-r8 { fill: #2d2d2d }
.terminal-2480142954-r9 { fill: #a9a9a9 }
.terminal-2480142954-r10 { fill: #e0e0e0;font-weight: bold }
.terminal-2480142954-r11 { fill: #eaeaea;font-weight: bold }
.terminal-2480142954-r12 { fill: #0d0d0d }
.terminal-2480142954-r13 { fill: #3a3a3a }
    </style>

    <defs>
    <clipPath id="terminal-2480142954-clip-terminal">
      <rect x="0" y="0" width="1463.0" height="828.5999999999999" />
    </clipPath>
    <clipPath id="terminal-2480142954-line-0">
    <rect x="0" y="1.5" width="1464" height="24.65"/>
            </clipPath>
<clipPath id="terminal-2480142954-line-1">
    <rect x="0" y="25.9" width="1464" height="24.65"/>
            </clipPath>
<clipPath id="terminal-2480142954-line-2">
    <rect x="0" y="50.3" width="1464" height="24.65"/>
            </clipPath>
<clipPath id="terminal-2480142954-line-3">
    <rect x="0" y="74.7" width="1464" height="24.65"/>
            </clipPath>
<clipPath id="terminal-2480142954-line-4">
    <rect x="0" y="99.1" width="1464" height="24.65"/>
            </clipPath>
<clipPath id="terminal-2480142954-line-5">
    <rect x="0" y="123.5" width="1464" height="24.65"/>
            </clipPath>
<clipPath id="terminal-2480142954-line-6">
    <rect x="0" y="147.9" width="1464" height="24.65"/>
            </clipPath>
<clipPath id="terminal-2480142954-line-7">
    <rect x="0" y="172.3" width="1464" height="24.65"/>
            </clipPath>
<clipPath id="terminal-2480142954-line-8">
    <rect x="0" y="196.7" width="1464" height="24.65"/>
            </clipPath>
<clipPath id="terminal-2480142954-line-9">
    <rect x="0" y="221.1" width="1464" height="24.65"/>
            </clipPath>
<clipPath id="terminal-2480142954-line-10">
    <rect x="0" y="245.5" width="1464" height="24.65"/>
            </clipPath>
<clipPath id="terminal-2480142954-line-11">
    <rect x="0" y="269.9" width="1464" height="24.65"/>
            </clipPath>
<clipPath id="terminal-2480142954-line-12">
    <rect x="0" y="294.3" width="1464" height="24.65"/>
            </clipPath>
<clipPath id="terminal-2480142954-line-13">
    <rect x="0" y="318.7" width="1464" height="24.65"/>
            </clipPath>
<clipPath id="terminal-2480142954-line-14">
    <rect x="0" y="343.1" width="1464" height="24.65"/>
            </clipPath>
<clipPath id="terminal-2480142954-line-15">
    <rect x="0" y="367.5" width="1464" height="24.65"/>
            </clipPath>
<clipPath id="terminal-2480142954-line-16">
    <rect x="0" y="391.9" width="1464" height="24.65"/>
            </clipPath>
<clipPath id="terminal-2480142954-line-17">
    <rect x="0" y="416.3" width="1464" height="24.65"/>
            </clipPath>
<clipPath id="terminal-2480142954-line-18">
    <rect x="0" y="440.7" width="1464" height="24.65"/>
            </clipPath>
<clipPath id="terminal-2480142954-line-19">
    <rect x="0" y="465.1" width="1464" height="24.65"/>
            </clipPath>
<clipPath id="terminal-2480142954-line-20">
    <rect x="0" y="489.5" width="1464" height="24.65"/>
            </clipPath>
<clipPath id="terminal-2480142954-line-21">
    <rect x="0" y="513.9" width="1464" height="24.65"/>
            </clipPath>
<clipPath id="terminal-2480142954-line-22">
    <rect x="0" y="538.3" width="1464" height="24.65"/>
            </clipPath>
<clipPath id="terminal-2480142954-line-23">
    <rect x="0" y="562.7" width="1464" height="24.65"/>
            </clipPath>
<clipPath id="terminal-2480142954-line-24">
    <rect x="0" y="587.1" width="1464" height="24.65"/>
            </clipPath>
<clipPath id="terminal-2480142954-line-25">
    <rect x="0" y="611.5" width="1464" height="24.65"/>
            </clipPath>
<clipPath id="terminal-2480142954-line-26">
    <rect x="0" y="635.9" width="1464" height="24.65"/>
            </clipPath>
<clipPath id="terminal-2480142954-line-27">
    <rect x="0" y="660.3" width="1464" height="24.65"/>
            </clipPath>
<clipPath id="terminal-2480142954-line-28">
    <rect x="0" y="684.7" width="1464" height="24.65"/>
            </clipPath>
<clipPath id="terminal-2480142954-line-29">
    <rect x="0" y="709.1" width="1464" height="24.65"/>
            </clipPath>
<clipPath id="terminal-2480142954-line-30">
    <rect x="0" y="733.5" width="1464" height="24.65"/>
            </clipPath>
<clipPath id="terminal-2480142954-line-31">
    <rect x="0" y="757.9" width="1464" height="24.65"/>
            </clipPath>
<clipPath id="terminal-2480142954-line-32">
    <rect x="0" y="782.3" width="1464" height="24.65"/>
            </clipPath>
    </defs>

    <rect fill="#292929" stroke="rgba(255,255,255,0.35)" stroke-width="1" x="1" y="1" width="1480" height="877.6" rx="8"/><text class="terminal-2480142954-title" fill="#c5c8c6" text-anchor="middle" x="740" y="27">HoldSpeakApp</text>
            <g transform="translate(26,22)">
            <circle cx="0" cy="0" r="7" fill="#ff5f57"/>
            <circle cx="22" cy="0" r="7" fill="#febc2e"/>
            <circle cx="44" cy="0" r="7" fill="#28c840"/>
            </g>
        
    <g transform="translate(9, 41)" clip-path="url(#terminal-2480142954-clip-terminal)">
    <rect fill="#131313" x="0" y="1.5" width="12.2" height="24.65" shape-rendering="crispEdges"/><rect fill="#131313" x="12.2" y="1.5" width="1146.8" height="24.65" shape-rendering="crispEdges"/><rect fill="#131313" x="1159" y="1.5" width="12.2" height="24.65" shape-rendering="crispEdges"/><rect fill="#0f0f0f" x="1171.2" y="1.5" width="292.8" height="24.65" shape-rendering="crispEdges"/><rect fill="#131313" x="0" y="25.9" width="12.2" height="24.65" shape-rendering="crispEdges"/><rect fill="#131313" x="12.2" y="25.9" width="1146.8" height="24.65" shape-rendering="crispEdges"/><rect fill="#131313" x="1159" y="25.9" width="12.2" height="24.65" shape-rendering="crispEdges"/><rect fill="#0f0f0f" x="1171.2" y="25.9" width="292.8" height="24.65" shape-rendering="crispEdges"/><rect fill="#131313" x="0" y="50.3" width="12.2" height="24.65" shape-rendering="crispEdges"/><rect fill="#131313" x="12.2" y="50.3" width="24.4" height="24.65" shape-rendering="crispEdges"/><rect fill="#131313" x="36.6" y="50.3" width="219.6" height="24.65" shape-rendering="crispEdges"/><rect fill="#131313" x="256.2" y="50.3" width="878.4" height="24.65" shape-rendering="crispEdges"/><rect fill="#131313" x="1134.6" y="50.3" width="24.4" height="24.65" shape-rendering="crispEdges"/><rect fill="#131313" x="1159" y="50.3" width="12.2" height="24.65" shape-rendering="crispEdges"/><rect fill="#0f0f0f" x="1171.2" y="50.3" width="292.8" height="24.65" shape-rendering="crispEdges"/><rect fill="#131313" x="0" y="74.7" width="12.2" height="24.65" shape-rendering="crispEdges"/><rect fill="#131313" x="12.2" y="74.7" width="24.4" height="24.65" shape-rendering="crispEdges"/><rect fill="#131313" x="36.6" y="74.7" width="1098" height="24.65" shape-rendering="crispEdges"/><rect fill="#131313" x="1134.6" y="74.7" width="24.4" height="24.65" shape-rendering="crispEdges"/><rect fill="#131313" x="1159" y="74.7" width="12.2" height="24.65" shape-rendering="crispEdges"/><rect fill="#0f0f0f" x="1171.2" y="74.7" width="292.8" height="24.65" shape-rendering="crispEdges"/><rect fill="#131313" x="0" y="99.1" width="12.2" height="24.65" shape-rendering="crispEdges"/><rect fill="#131313" x="12.2" y="99.1" width="24.4" height="24.65" shape-rendering="crispEdges"/><rect fill="#1a1a1a" x="36.6" y="99.1" width="12.2" height="24.65" shape-rendering="crispEdges"/><rect fill="#1a1a1a" x="48.8" y="99.1" width="1073.6" height="24.65" shape-rendering="crispEdges"/><rect fill="#1a1a1a" x="1122.4" y="99.1" width="12.2" height="24.65" shape-rendering="crispEdges"/><rect fill="#131313" x="1134.6" y="99.1" width="24.4" height="24.65" shape-rendering="crispEdges"/><rect fill="#131313" x="1159" y="99.1" width="12.2" height="24.65" shape-rendering="crispEdges"/><rect fill="#0f0f0f" x="1171.2" y="99.1" width="292.8" height="24.65" shape-rendering="crispEdges"/><rect fill="#131313" x="0" y="123.5" width="12.2" height="24.65" shape-rendering="crispEdges"/><rect fill="#131313" x="12.2" y="123.5" width="24.4" height="24.65" shape-rendering="crispEdges"/><rect fill="#1a1a1a" x="36.6" y="123.5" width="12.2" height="24.65" shape-rendering="crispEdges"/><rect fill="#1a1a1a" x="48.8" y="123.5" width="12.2" height="24.65" shape-rendering="crispEdges"/><rect fill="#1a1a1a" x="61" y="123.5" width="1049.2" height="24.65" shape-rendering="crispEdges"/><rect fill="#1a1a1a" x="1110.2" y="123.5" width="12.2" height="24.65" shape-rendering="crispEdges"/><rect fill="#1a1a1a" x="1122.4" y="123.5" width="12.2" height="24.65" shape-rendering="crispEdges"/><rect fill="#131313" x="1134.6" y="123.5" width="24.4" height="24.65" shape-rendering="crispEdges"/><rect fill="#131313" x="1159" y="123.5" width="12.2" height="24.65" shape-rendering="crispEdges"/><rect fill="#0f0f0f" x="1171.2" y="123.5" width="292.8" height="24.65" shape-rendering="crispEdges"/><rect fill="#131313" x="0" y="147.9" width="12.2" height="24.65" shape-rendering="crispEdges"/><rect fill="#131313" x="12.2" y="147.9" width="24.4" height="24.65" shape-rendering="crispEdges"/><rect fill="#1a1a1a" x="36.6" y="147.9" width="12.2" height="24.65" shape-rendering="crispEdges"/><rect fill="#1a1a1a" x="48.8" y="147.9" width="12.2" height="24.65" shape-rendering="crispEdges"/><rect fill="#1a1a1a" x="61" y="147.9" width="1049.2" height="24.65" shape-rendering="crispEdges"/><rect fill="#1a1a1a" x="1110.2" y="147.9" width="12.2" height="24.65" shape-rendering="crispEdges"/><rect fill="#1a1a1a" x="1122.4" y="147.9" width="12.2" height="24.65" shape-rendering="crispEdges"/><rect fill="#131313" x="1134.6" y="147.9" width="24.4" height="24.65" shape-rendering="crispEdges"/><rect fill="#131313" x="1159" y="147.9" width="12.2" height="24.65" shape-rendering="crispEdges"/><rect fill="#0f0f0f" x="1171.2" y="147.9" width="292.8" height="24.65" shape-rendering="crispEdges"/><rect fill="#131313" x="0" y="172.3" width="12.2" height="24.65" shape-rendering="crispEdges"/><rect fill="#131313" x="12.2" y="172.3" width="24.4" height="24.65" shape-rendering="crispEdges"/><rect fill="#1a1a1a" x="36.6" y="172.3" width="12.2" height="24.65" shape-rendering="crispEdges"/><rect fill="#1a1a1a" x="48.8" y="172.3" width="12.2" height="24.65" shape-rendering="crispEdges"/><rect fill="#1a1a1a" x="61" y="172.3" width="1049.2" height="24.65" shape-rendering="crispEdges"/><rect fill="#1a1a1a" x="1110.2" y="172.3" width="12.2" height="24.65" shape-rendering="crispEdges"/><rect fill="#1a1a1a" x="1122.4" y="172.3" width="12.2" height="24.65" shape-rendering="crispEdges"/><rect fill="#131313" x="1134.6" y="172.3" width="24.4" height="24.65" shape-rendering="crispEdges"/><rect fill="#131313" x="1159" y="172.3" width="12.2" height="24.65" shape-rendering="crispEdges"/><rect fill="#0f0f0f" x="1171.2" y="172.3" width="292.8" height="24.65" shape-rendering="crispEdges"/><rect fill="#131313" x="0" y="196.7" width="12.2" height="24.65" shape-rendering="crispEdges"/><rect fill="#131313" x="12.2" y="196.7" width="24.4" height="24.65" shape-rendering="crispEdges"/><rect fill="#1a1a1a" x="36.6" y="196.7" width="12.2" height="24.65" shape-rendering="crispEdges"/><rect fill="#1a1a1a" x="48.8" y="196.7" width="12.2" height="24.65" shape-rendering="crispEdges"/><rect fill="#252525" x="61" y="196.7" width="12.2" height="24.65" shape-rendering="crispEdges"/><rect fill="#252525" x="73.2" y="196.7" width="207.4" height="24.65" shape-rendering="crispEdges"/><rect fill="#252525" x="280.6" y="196.7" width="12.2" height="24.65" shape-rendering="crispEdges"/><rect fill="#252525" x="292.8" y="196.7" width="134.2" height="24.65" shape-rendering="crispEdges"/><rect fill="#252525" x="427" y="196.7" width="12.2" height="24.65" shape-rendering="crispEdges"/><rect fill="#1a1a1a" x="439.2" y="196.7" width="671" height="24.65" shape-rendering="crispEdges"/><rect fill="#1a1a1a" x="1110.2" y="196.7" width="12.2" height="24.65" shape-rendering="crispEdges"/><rect fill="#1a1a1a" x="1122.4" y="196.7" width="12.2" height="24.65" shape-rendering="crispEdges"/><rect fill="#131313" x="1134.6" y="196.7" width="24.4" height="24.65" shape-rendering="crispEdges"/><rect fill="#131313" x="1159" y="196.7" width="12.2" height="24.65" shape-rendering="crispEdges"/><rect fill="#0f0f0f" x="1171.2" y="196.7" width="292.8" height="24.65" shape-rendering="crispEdges"/><rect fill="#131313" x="0" y="221.1" width="12.2" height="24.65" shape-rendering="crispEdges"/><rect fill="#131313" x="12.2" y="221.1" width="24.4" height="24.65" shape-rendering="crispEdges"/><rect fill="#1a1a1a" x="36.6" y="221.1" width="12.2" height="24.65" shape-rendering="crispEdges"/><rect fill="#1a1a1a" x="48.8" y="221.1" width="12.2" height="24.65" shape-rendering="crispEdges"/><rect fill="#1a1a1a" x="61" y="221.1" width="1049.2" height="24.65" shape-rendering="crispEdges"/><rect fill="#1a1a1a" x="1110.2" y="221.1" width="12.2" height="24.65" shape-rendering="crispEdges"/><rect fill="#1a1a1a" x="1122.4" y="221.1" width="12.2" height="24.65" shape-rendering="crispEdges"/><rect fill="#131313" x="1134.6" y="221.1" width="24.4" height="24.65" shape-rendering="crispEdges"/><rect fill="#131313" x="1159" y="221.1" width="12.2" height="24.65" shape-rendering="crispEdges"/><rect fill="#0f0f0f" x="1171.2" y="221.1" width="292.8" height="24.65" shape-rendering="crispEdges"/><rect fill="#131313" x="0" y="245.5" width="12.2" height="24.65" shape-rendering="crispEdges"/><rect fill="#131313" x="12.2" y="245.5" width="24.4" height="24.65" shape-rendering="crispEdges"/><rect fill="#1a1a1a" x="36.6" y="245.5" width="12.2" height="24.65" shape-rendering="crispEdges"/><rect fill="#1a1a1a" x="48.8" y="245.5" width="1073.6" height="24.65" shape-rendering="crispEdges"/><rect fill="#1a1a1a" x="1122.4" y="245.5" width="12.2" height="24.65" shape-rendering="crispEdges"/><rect fill="#131313" x="1134.6" y="245.5" width="24.4" height="24.65" shape-rendering="crispEdges"/><rect fill="#131313" x="1159" y="245.5" width="12.2" height="24.65" shape-rendering="crispEdges"/><rect fill="#0f0f0f" x="1171.2" y="245.5" width="292.8" height="24.65" shape-rendering="crispEdges"/><rect fill="#131313" x="0" y="269.9" width="12.2" height="24.65" shape-rendering="crispEdges"/><rect fill="#131313" x="12.2" y="269.9" width="24.4" height="24.65" shape-rendering="crispEdges"/><rect fill="#1a1a1a" x="36.6" y="269.9" width="12.2" height="24.65" shape-rendering="crispEdges"/><rect fill="#1a1a1a" x="48.8" y="269.9" width="1073.6" height="24.65" shape-rendering="crispEdges"/><rect fill="#1a1a1a" x="1122.4" y="269.9" width="12.2" height="24.65" shape-rendering="crispEdges"/><rect fill="#131313" x="1134.6" y="269.9" width="24.4" height="24.65" shape-rendering="crispEdges"/><rect fill="#131313" x="1159" y="269.9" width="12.2" height="24.65" shape-rendering="crispEdges"/><rect fill="#0f0f0f" x="1171.2" y="269.9" width="292.8" height="24.65" shape-rendering="crispEdges"/><rect fill="#131313" x="0" y="294.3" width="12.2" height="24.65" shape-rendering="crispEdges"/><rect fill="#131313" x="12.2" y="294.3" width="24.4" height="24.65" shape-rendering="crispEdges"/><rect fill="#1a1a1a" x="36.6" y="294.3" width="12.2" height="24.65" shape-rendering="crispEdges"/><rect fill="#1a1a1a" x="48.8" y="294.3" width="1073.6" height="24.65" shape-rendering="crispEdges"/><rect fill="#1a1a1a" x="1122.4" y="294.3" width="12.2" height="24.65" shape-rendering="crispEdges"/><rect fill="#131313" x="1134.6" y="294.3" width="24.4" height="24.65" shape-rendering="crispEdges"/><rect fill="#131313" x="1159" y="294.3" width="12.2" height="24.65" shape-rendering="crispEdges"/><rect fill="#0f0f0f" x="1171.2" y="294.3" width="292.8" height="24.65" shape-rendering="crispEdges"/><rect fill="#131313" x="0" y="318.7" width="12.2" height="24.65" shape-rendering="crispEdges"/><rect fill="#131313" x="12.2" y="318.7" width="24.4" height="24.65" shape-rendering="crispEdges"/><rect fill="#1a1a1a" x="36.6" y="318.7" width="12.2" height="24.65" shape-rendering="crispEdges"/><rect fill="#1a1a1a" x="48.8" y="318.7" width="1073.6" height="24.65" shape-rendering="crispEdges"/><rect fill="#1a1a1a" x="1122.4" y="318.7" width="12.2" height="24.65" shape-rendering="crispEdges"/><rect fill="#131313" x="1134.6" y="318.7" width="24.4" height="24.65" shape-rendering="crispEdges"/><rect fill="#131313" x="1159" y="318.7" width="12.2" height="24.65" shape-rendering="crispEdges"/><rect fill="#0f0f0f" x="1171.2" y="318.7" width="292.8" height="24.65" shape-rendering="crispEdges"/><rect fill="#131313" x="0" y="343.1" width="12.2" height="24.65" shape-rendering="crispEdges"/><rect fill="#131313" x="12.2" y="343.1" width="24.4" height="24.65" shape-rendering="crispEdges"/><rect fill="#1a1a1a" x="36.6" y="343.1" width="12.2" height="24.65" shape-rendering="crispEdges"/><rect fill="#1a1a1a" x="48.8" y="343.1" width="1073.6" height="24.65" shape-rendering="crispEdges"/><rect fill="#1a1a1a" x="1122.4" y="343.1" width="12.2" height="24.65" shape-rendering="crispEdges"/><rect fill="#131313" x="1134.6" y="343.1" width="24.4" height="24.65" shape-rendering="crispEdges"/><rect fill="#131313" x="1159" y="343.1" width="12.2" height="24.65" shape-rendering="crispEdges"/><rect fill="#0f0f0f" x="1171.2" y="343.1" width="292.8" height="24.65" shape-rendering="crispEdges"/><rect fill="#131313" x="0" y="367.5" width="12.2" height="24.65" shape-rendering="crispEdges"/><rect fill="#131313" x="12.2" y="367.5" width="24.4" height="24.65" shape-rendering="crispEdges"/><rect fill="#1a1a1a" x="36.6" y="367.5" width="12.2" height="24.65" shape-rendering="crispEdges"/><rect fill="#1a1a1a" x="48.8" y="367.5" width="1073.6" height="24.65" shape-rendering="crispEdges"/><rect fill="#1a1a1a" x="1122.4" y="367.5" width="12.2" height="24.65" shape-rendering="crispEdges"/><rect fill="#131313" x="1134.6" y="367.5" width="24.4" height="24.65" shape-rendering="crispEdges"/><rect fill="#131313" x="1159" y="367.5" width="12.2" height="24.65" shape-rendering="crispEdges"/><rect fill="#0f0f0f" x="1171.2" y="367.5" width="292.8" height="24.65" shape-rendering="crispEdges"/><rect fill="#131313" x="0" y="391.9" width="12.2" height="24.65" shape-rendering="crispEdges"/><rect fill="#131313" x="12.2" y="391.9" width="24.4" height="24.65" shape-rendering="crispEdges"/><rect fill="#1a1a1a" x="36.6" y="391.9" width="12.2" height="24.65" shape-rendering="crispEdges"/><rect fill="#1a1a1a" x="48.8" y="391.9" width="1073.6" height="24.65" shape-rendering="crispEdges"/><rect fill="#1a1a1a" x="1122.4" y="391.9" width="12.2" height="24.65" shape-rendering="crispEdges"/><rect fill="#131313" x="1134.6" y="391.9" width="24.4" height="24.65" shape-rendering="crispEdges"/><rect fill="#131313" x="1159" y="391.9" width="12.2" height="24.65" shape-rendering="crispEdges"/><rect fill="#0f0f0f" x="1171.2" y="391.9" width="292.8" height="24.65" shape-rendering="crispEdges"/><rect fill="#131313" x="0" y="416.3" width="12.2" height="24.65" shape-rendering="crispEdges"/><rect fill="#131313" x="12.2" y="416.3" width="24.4" height="24.65" shape-rendering="crispEdges"/><rect fill="#1a1a1a" x="36.6" y="416.3" width="12.2" height="24.65" shape-rendering="crispEdges"/><rect fill="#1a1a1a" x="48.8" y="416.3" width="1073.6" height="24.65" shape-rendering="crispEdges"/><rect fill="#1a1a1a" x="1122.4" y="416.3" width="12.2" height="24.65" shape-rendering="crispEdges"/><rect fill="#131313" x="1134.6" y="416.3" width="24.4" height="24.65" shape-rendering="crispEdges"/><rect fill="#131313" x="1159" y="416.3" width="12.2" height="24.65" shape-rendering="crispEdges"/><rect fill="#0f0f0f" x="1171.2" y="416.3" width="292.8" height="24.65" shape-rendering="crispEdges"/><rect fill="#131313" x="0" y="440.7" width="12.2" height="24.65" shape-rendering="crispEdges"/><rect fill="#131313" x="12.2" y="440.7" width="24.4" height="24.65" shape-rendering="crispEdges"/><rect fill="#1a1a1a" x="36.6" y="440.7" width="12.2" height="24.65" shape-rendering="crispEdges"/><rect fill="#1a1a1a" x="48.8" y="440.7" width="1073.6" height="24.65" shape-rendering="crispEdges"/><rect fill="#1a1a1a" x="1122.4" y="440.7" width="12.2" height="24.65" shape-rendering="crispEdges"/><rect fill="#131313" x="1134.6" y="440.7" width="24.4" height="24.65" shape-rendering="crispEdges"/><rect fill="#131313" x="1159" y="440.7" width="12.2" height="24.65" shape-rendering="crispEdges"/><rect fill="#0f0f0f" x="1171.2" y="440.7" width="292.8" height="24.65" shape-rendering="crispEdges"/><rect fill="#131313" x="0" y="465.1" width="12.2" height="24.65" shape-rendering="crispEdges"/><rect fill="#131313" x="12.2" y="465.1" width="24.4" height="24.65" shape-rendering="crispEdges"/><rect fill="#1a1a1a" x="36.6" y="465.1" width="12.2" height="24.65" shape-rendering="crispEdges"/><rect fill="#1a1a1a" x="48.8" y="465.1" width="1073.6" height="24.65" shape-rendering="crispEdges"/><rect fill="#1a1a1a" x="1122.4" y="465.1" width="12.2" height="24.65" shape-rendering="crispEdges"/><rect fill="#131313" x="1134.6" y="465.1" width="24.4" height="24.65" shape-rendering="crispEdges"/><rect fill="#131313" x="1159" y="465.1" width="12.2" height="24.65" shape-rendering="crispEdges"/><rect fill="#0f0f0f" x="1171.2" y="465.1" width="292.8" height="24.65" shape-rendering="crispEdges"/><rect fill="#131313" x="0" y="489.5" width="12.2" height="24.65" shape-rendering="crispEdges"/><rect fill="#131313" x="12.2" y="489.5" width="24.4" height="24.65" shape-rendering="crispEdges"/><rect fill="#1a1a1a" x="36.6" y="489.5" width="12.2" height="24.65" shape-rendering="crispEdges"/><rect fill="#1a1a1a" x="48.8" y="489.5" width="1073.6" height="24.65" shape-rendering="crispEdges"/><rect fill="#1a1a1a" x="1122.4" y="489.5" width="12.2" height="24.65" shape-rendering="crispEdges"/><rect fill="#131313" x="1134.6" y="489.5" width="24.4" height="24.65" shape-rendering="crispEdges"/><rect fill="#131313" x="1159" y="489.5" width="12.2" height="24.65" shape-rendering="crispEdges"/><rect fill="#0f0f0f" x="1171.2" y="489.5" width="292.8" height="24.65" shape-rendering="crispEdges"/><rect fill="#131313" x="0" y="513.9" width="12.2" height="24.65" shape-rendering="crispEdges"/><rect fill="#131313" x="12.2" y="513.9" width="24.4" height="24.65" shape-rendering="crispEdges"/><rect fill="#131313" x="36.6" y="513.9" width="1098" height="24.65" shape-rendering="crispEdges"/><rect fill="#131313" x="1134.6" y="513.9" width="24.4" height="24.65" shape-rendering="crispEdges"/><rect fill="#131313" x="1159" y="513.9" width="12.2" height="24.65" shape-rendering="crispEdges"/><rect fill="#0f0f0f" x="1171.2" y="513.9" width="292.8" height="24.65" shape-rendering="crispEdges"/><rect fill="#131313" x="0" y="538.3" width="12.2" height="24.65" shape-rendering="crispEdges"/><rect fill="#131313" x="12.2" y="538.3" width="24.4" height="24.65" shape-rendering="crispEdges"/><rect fill="#131313" x="36.6" y="538.3" width="12.2" height="24.65" shape-rendering="crispEdges"/><rect fill="#1e1e1e" x="48.8" y="538.3" width="195.2" height="24.65" shape-rendering="crispEdges"/><rect fill="#131313" x="244" y="538.3" width="12.2" height="24.65" shape-rendering="crispEdges"/><rect fill="#656565" x="256.2" y="538.3" width="195.2" height="24.65" shape-rendering="crispEdges"/><rect fill="#131313" x="451.4" y="538.3" width="683.2" height="24.65" shape-rendering="crispEdges"/><rect fill="#131313" x="1134.6" y="538.3" width="24.4" height="24.65" shape-rendering="crispEdges"/><rect fill="#131313" x="1159" y="538.3" width="12.2" height="24.65" shape-rendering="crispEdges"/><rect fill="#0f0f0f" x="1171.2" y="538.3" width="292.8" height="24.65" shape-rendering="crispEdges"/><rect fill="#131313" x="0" y="562.7" width="12.2" height="24.65" shape-rendering="crispEdges"/><rect fill="#131313" x="12.2" y="562.7" width="24.4" height="24.65" shape-rendering="crispEdges"/><rect fill="#131313" x="36.6" y="562.7" width="12.2" height="24.65" shape-rendering="crispEdges"/><rect fill="#1e1e1e" x="48.8" y="562.7" width="48.8" height="24.65" shape-rendering="crispEdges"/><rect fill="#1e1e1e" x="97.6" y="562.7" width="85.4" height="24.65" shape-rendering="crispEdges"/><rect fill="#1e1e1e" x="183" y="562.7" width="61" height="24.65" shape-rendering="crispEdges"/><rect fill="#131313" x="244" y="562.7" width="12.2" height="24.65" shape-rendering="crispEdges"/><rect fill="#656565" x="256.2" y="562.7" width="36.6" height="24.65" shape-rendering="crispEdges"/><rect fill="#656565" x="292.8" y="562.7" width="122" height="24.65" shape-rendering="crispEdges"/><rect fill="#656565" x="414.8" y="562.7" width="36.6" height="24.65" shape-rendering="crispEdges"/><rect fill="#131313" x="451.4" y="562.7" width="683.2" height="24.65" shape-rendering="crispEdges"/><rect fill="#131313" x="1134.6" y="562.7" width="24.4" height="24.65" shape-rendering="crispEdges"/><rect fill="#131313" x="1159" y="562.7" width="12.2" height="24.65" shape-rendering="crispEdges"/><rect fill="#0f0f0f" x="1171.2" y="562.7" width="292.8" height="24.65" shape-rendering="crispEdges"/><rect fill="#131313" x="0" y="587.1" width="12.2" height="24.65" shape-rendering="crispEdges"/><rect fill="#131313" x="12.2" y="587.1" width="24.4" height="24.65" shape-rendering="crispEdges"/><rect fill="#131313" x="36.6" y="587.1" width="12.2" height="24.65" shape-rendering="crispEdges"/><rect fill="#1e1e1e" x="48.8" y="587.1" width="195.2" height="24.65" shape-rendering="crispEdges"/><rect fill="#131313" x="244" y="587.1" width="12.2" height="24.65" shape-rendering="crispEdges"/><rect fill="#656565" x="256.2" y="587.1" width="195.2" height="24.65" shape-rendering="crispEdges"/><rect fill="#131313" x="451.4" y="587.1" width="683.2" height="24.65" shape-rendering="crispEdges"/><rect fill="#131313" x="1134.6" y="587.1" width="24.4" height="24.65" shape-rendering="crispEdges"/><rect fill="#131313" x="1159" y="587.1" width="12.2" height="24.65" shape-rendering="crispEdges"/><rect fill="#0f0f0f" x="1171.2" y="587.1" width="292.8" height="24.65" shape-rendering="crispEdges"/><rect fill="#131313" x="0" y="611.5" width="12.2" height="24.65" shape-rendering="crispEdges"/><rect fill="#131313" x="12.2" y="611.5" width="1146.8" height="24.65" shape-rendering="crispEdges"/><rect fill="#131313" x="1159" y="611.5" width="12.2" height="24.65" shape-rendering="crispEdges"/><rect fill="#0f0f0f" x="1171.2" y="611.5" width="292.8" height="24.65" shape-rendering="crispEdges"/><rect fill="#131313" x="0" y="635.9" width="12.2" height="24.65" shape-rendering="crispEdges"/><rect fill="#131313" x="12.2" y="635.9" width="1146.8" height="24.65" shape-rendering="crispEdges"/><rect fill="#131313" x="1159" y="635.9" width="12.2" height="24.65" shape-rendering="crispEdges"/><rect fill="#0f0f0f" x="1171.2" y="635.9" width="292.8" height="24.65" shape-rendering="crispEdges"/><rect fill="#0f0f0f" x="0" y="660.3" width="1464" height="24.65" shape-rendering="crispEdges"/><rect fill="#0f0f0f" x="0" y="684.7" width="1464" height="24.65" shape-rendering="crispEdges"/><rect fill="#0f0f0f" x="0" y="709.1" width="1464" height="24.65" shape-rendering="crispEdges"/><rect fill="#0f0f0f" x="0" y="733.5" width="1464" height="24.65" shape-rendering="crispEdges"/><rect fill="#0f0f0f" x="0" y="757.9" width="1464" height="24.65" shape-rendering="crispEdges"/><rect fill="#0f0f0f" x="0" y="782.3" width="1464" height="24.65" shape-rendering="crispEdges"/><rect fill="#0f0f0f" x="0" y="806.7" width="1464" height="24.65" shape-rendering="crispEdges"/>
    <g class="terminal-2480142954-matrix">
    <text class="terminal-2480142954-r1" x="0" y="20" textLength="12.2" clip-path="url(#terminal-2480142954-line-0)">┏</text><text class="terminal-2480142954-r1" x="12.2" y="20" textLength="1146.8" clip-path="url(#terminal-2480142954-line-0)">━━━━━━━━━━━━━━━━━━━━━━━━━━━━━━━━━━━━━━━━━━━━━━━━━━━━━━━━━━━━━━━━━━━━━━━━━━━━━━━━━━━━━━━━━━━━━━</text><text class="terminal-2480142954-r1" x="1159" y="20" textLength="12.2" clip-path="url(#terminal-2480142954-line-0)">┓</text><text class="terminal-2480142954-r2" x="1464" y="20" textLength="12.2" clip-path="url(#terminal-2480142954-line-0)">
</text><text class="terminal-2480142954-r1" x="0" y="44.4" textLength="12.2" clip-path="url(#terminal-2480142954-line-1)">┃</text><text class="terminal-2480142954-r1" x="1159" y="44.4" textLength="12.2" clip-path="url(#terminal-2480142954-line-1)">┃</text><text class="terminal-2480142954-r2" x="1464" y="44.4" textLength="12.2" clip-path="url(#terminal-2480142954-line-1)">
</text><text class="terminal-2480142954-r1" x="0" y="68.8" textLength="12.2" clip-path="url(#terminal-2480142954-line-2)">┃</text><text class="terminal-2480142954-r3" x="36.6" y="68.8" textLength="219.6" clip-path="url(#terminal-2480142954-line-2)">Meeting&#160;Transcript</text><text class="terminal-2480142954-r1" x="1159" y="68.8" textLength="12.2" clip-path="url(#terminal-2480142954-line-2)">┃</text><text class="terminal-2480142954-r2" x="1464" y="68.8" textLength="12.2" clip-path="url(#terminal-2480142954-line-2)">
</text><text class="terminal-2480142954-r1" x="0" y="93.2" textLength="12.2" clip-path="url(#terminal-2480142954-line-3)">┃</text><text class="terminal-2480142954-r1" x="1159" y="93.2" textLength="12.2" clip-path="url(#terminal-2480142954-line-3)">┃</text><text class="terminal-2480142954-r2" x="1464" y="93.2" textLength="12.2" clip-path="url(#terminal-2480142954-line-3)">
</text><text class="terminal-2480142954-r1" x="0" y="117.6" textLength="12.2" clip-path="url(#terminal-2480142954-line-4)">┃</text><text class="terminal-2480142954-r1" x="36.6" y="117.6" textLength="12.2" clip-path="url(#terminal-2480142954-line-4)">┌</text><text class="terminal-2480142954-r1" x="48.8" y="117.6" textLength="1073.6" clip-path="url(#terminal-2480142954-line-4)">────────────────────────────────────────────────────────────────────────────────────────</text><text class="terminal-2480142954-r1" x="1122.4" y="117.6" textLength="12.2" clip-path="url(#terminal-2480142954-line-4)">┐</text><text class="terminal-2480142954-r1" x="1159" y="117.6" textLength="12.2" clip-path="url(#terminal-2480142954-line-4)">┃</text><text class="terminal-2480142954-r2" x="1464" y="117.6" textLength="12.2" clip-path="url(#terminal-2480142954-line-4)">
</text><text class="terminal-2480142954-r1" x="0" y="142" textLength="12.2" clip-path="url(#terminal-2480142954-line-5)">┃</text><text class="terminal-2480142954-r1" x="36.6" y="142" textLength="12.2" clip-path="url(#terminal-2480142954-line-5)">│</text><text class="terminal-2480142954-r4" x="61" y="142" textLength="1049.2" clip-path="url(#terminal-2480142954-line-5)">[00:00:00]&#160;Me:&#160;I&#160;think&#160;we&#160;should&#160;focus&#160;on&#160;the&#160;Q1&#160;roadmap&#160;priorities&#160;first.&#160;We&#160;have&#160;som</text><text class="terminal-2480142954-r1" x="1122.4" y="142" textLength="12.2" clip-path="url(#terminal-2480142954-line-5)">│</text><text class="terminal-2480142954-r1" x="1159" y="142" textLength="12.2" clip-path="url(#terminal-2480142954-line-5)">┃</text><text class="terminal-2480142954-r2" x="1464" y="142" textLength="12.2" clip-path="url(#terminal-2480142954-line-5)">
</text><text class="terminal-2480142954-r1" x="0" y="166.4" textLength="12.2" clip-path="url(#terminal-2480142954-line-6)">┃</text><text class="terminal-2480142954-r1" x="36.6" y="166.4" textLength="12.2" clip-path="url(#terminal-2480142954-line-6)">│</text><text class="terminal-2480142954-r4" x="61" y="166.4" textLength="1049.2" clip-path="url(#terminal-2480142954-line-6)">[00:00:18]&#160;Remote:&#160;Agreed.&#160;For&#160;the&#160;auth&#160;system,&#160;I&#x27;ve&#160;been&#160;researching&#160;OAuth&#160;2.0&#160;and&#160;Op</text><text class="terminal-2480142954-r1" x="1122.4" y="166.4" textLength="12.2" clip-path="url(#terminal-2480142954-line-6)">│</text><text class="terminal-2480142954-r1" x="1159" y="166.4" textLength="12.2" clip-path="url(#terminal-2480142954-line-6)">┃</text><text class="terminal-2480142954-r2" x="1464" y="166.4" textLength="12.2" clip-path="url(#terminal-2480142954-line-6)">
</text><text class="terminal-2480142954-r1" x="0" y="190.8" textLength="12.2" clip-path="url(#terminal-2480142954-line-7)">┃</text><text class="terminal-2480142954-r1" x="36.6" y="190.8" textLength="12.2" clip-path="url(#terminal-2480142954-line-7)">│</text><text class="terminal-2480142954-r4" x="61" y="190.8" textLength="1049.2" clip-path="url(#terminal-2480142954-line-7)">[00:00:45]&#160;Me:&#160;Let&#x27;s&#160;go&#160;with&#160;OAuth&#160;then.&#160;It&#x27;s&#160;more&#160;secure&#160;and&#160;reduces&#160;our&#160;maintenance&#160;</text><text class="terminal-2480142954-r1" x="1122.4" y="190.8" textLength="12.2" clip-path="url(#terminal-2480142954-line-7)">│</text><text class="terminal-2480142954-r1" x="1159" y="190.8" textLength="12.2" clip-path="url(#terminal-2480142954-line-7)">┃</text><text class="terminal-2480142954-r2" x="1464" y="190.8" textLength="12.2" clip-path="url(#terminal-2480142954-line-7)">
</text><text class="terminal-2480142954-r1" x="0" y="215.2" textLength="12.2" clip-path="url(#terminal-2480142954-line-8)">┃</text><text class="terminal-2480142954-r1" x="36.6" y="215.2" textLength="12.2" clip-path="url(#terminal-2480142954-line-8)">│</text><text class="terminal-2480142954-r5" x="73.2" y="215.2" textLength="195.2" clip-path="url(#terminal-2480142954-line-8)">🔖&#160;OAuth&#160;decision</text><text class="terminal-2480142954-r7" x="292.8" y="215.2" textLength="134.2" clip-path="url(#terminal-2480142954-line-8)">@&#160;00:00:45S</text><text class="terminal-2480142954-r1" x="1122.4" y="215.2" textLength="12.2" clip-path="url(#terminal-2480142954-line-8)">│</text><text class="terminal-2480142954-r1" x="1159" y="215.2" textLength="12.2" clip-path="url(#terminal-2480142954-line-8)">┃</text><text class="terminal-2480142954-r2" x="1464" y="215.2" textLength="12.2" clip-path="url(#terminal-2480142954-line-8)">
</text><text class="terminal-2480142954-r1" x="0" y="239.6" textLength="12.2" clip-path="url(#terminal-2480142954-line-9)">┃</text><text class="terminal-2480142954-r1" x="36.6" y="239.6" textLength="12.2" clip-path="url(#terminal-2480142954-line-9)">│</text><text class="terminal-2480142954-r4" x="61" y="239.6" textLength="1049.2" clip-path="url(#terminal-2480142954-line-9)">[00:01:10]&#160;Remote:&#160;Perfect.&#160;Can&#160;you&#160;also&#160;loop&#160;in&#160;the&#160;security&#160;team?&#160;They&#160;should&#160;review</text><text class="terminal-2480142954-r1" x="1122.4" y="239.6" textLength="12.2" clip-path="url(#terminal-2480142954-line-9)">│</text><text class="terminal-2480142954-r1" x="1159" y="239.6" textLength="12.2" clip-path="url(#terminal-2480142954-line-9)">┃</text><text class="terminal-2480142954-r2" x="1464" y="239.6" textLength="12.2" clip-path="url(#terminal-2480142954-line-9)">
</text><text class="terminal-2480142954-r1" x="0" y="264" textLength="12.2" clip-path="url(#terminal-2480142954-line-10)">┃</text><text class="terminal-2480142954-r1" x="36.6" y="264" textLength="12.2" clip-path="url(#terminal-2480142954-line-10)">│</text><text class="terminal-2480142954-r1" x="1122.4" y="264" textLength="12.2" clip-path="url(#terminal-2480142954-line-10)">│</text><text class="terminal-2480142954-r1" x="1159" y="264" textLength="12.2" clip-path="url(#terminal-2480142954-line-10)">┃</text><text class="terminal-2480142954-r2" x="1464" y="264" textLength="12.2" clip-path="url(#terminal-2480142954-line-10)">
</text><text class="terminal-2480142954-r1" x="0" y="288.4" textLength="12.2" clip-path="url(#terminal-2480142954-line-11)">┃</text><text class="terminal-2480142954-r1" x="36.6" y="288.4" textLength="12.2" clip-path="url(#terminal-2480142954-line-11)">│</text><text class="terminal-2480142954-r1" x="1122.4" y="288.4" textLength="12.2" clip-path="url(#terminal-2480142954-line-11)">│</text><text class="terminal-2480142954-r1" x="1159" y="288.4" textLength="12.2" clip-path="url(#terminal-2480142954-line-11)">┃</text><text class="terminal-2480142954-r2" x="1464" y="288.4" textLength="12.2" clip-path="url(#terminal-2480142954-line-11)">
</text><text class="terminal-2480142954-r1" x="0" y="312.8" textLength="12.2" clip-path="url(#terminal-2480142954-line-12)">┃</text><text class="terminal-2480142954-r1" x="36.6" y="312.8" textLength="12.2" clip-path="url(#terminal-2480142954-line-12)">│</text><text class="terminal-2480142954-r1" x="1122.4" y="312.8" textLength="12.2" clip-path="url(#terminal-2480142954-line-12)">│</text><text class="terminal-2480142954-r1" x="1159" y="312.8" textLength="12.2" clip-path="url(#terminal-2480142954-line-12)">┃</text><text class="terminal-2480142954-r2" x="1464" y="312.8" textLength="12.2" clip-path="url(#terminal-2480142954-line-12)">
</text><text class="terminal-2480142954-r1" x="0" y="337.2" textLength="12.2" clip-path="url(#terminal-2480142954-line-13)">┃</text><text class="terminal-2480142954-r1" x="36.6" y="337.2" textLength="12.2" clip-path="url(#terminal-2480142954-line-13)">│</text><text class="terminal-2480142954-r1" x="1122.4" y="337.2" textLength="12.2" clip-path="url(#terminal-2480142954-line-13)">│</text><text class="terminal-2480142954-r1" x="1159" y="337.2" textLength="12.2" clip-path="url(#terminal-2480142954-line-13)">┃</text><text class="terminal-2480142954-r2" x="1464" y="337.2" textLength="12.2" clip-path="url(#terminal-2480142954-line-13)">
</text><text class="terminal-2480142954-r1" x="0" y="361.6" textLength="12.2" clip-path="url(#terminal-2480142954-line-14)">┃</text><text class="terminal-2480142954-r1" x="36.6" y="361.6" textLength="12.2" clip-path="url(#terminal-2480142954-line-14)">│</text><text class="terminal-2480142954-r1" x="1122.4" y="361.6" textLength="12.2" clip-path="url(#terminal-2480142954-line-14)">│</text><text class="terminal-2480142954-r1" x="1159" y="361.6" textLength="12.2" clip-path="url(#terminal-2480142954-line-14)">┃</text><text class="terminal-2480142954-r2" x="1464" y="361.6" textLength="12.2" clip-path="url(#terminal-2480142954-line-14)">
</text><text class="terminal-2480142954-r1" x="0" y="386" textLength="12.2" clip-path="url(#terminal-2480142954-line-15)">┃</text><text class="terminal-2480142954-r1" x="36.6" y="386" textLength="12.2" clip-path="url(#terminal-2480142954-line-15)">│</text><text class="terminal-2480142954-r1" x="1122.4" y="386" textLength="12.2" clip-path="url(#terminal-2480142954-line-15)">│</text><text class="terminal-2480142954-r1" x="1159" y="386" textLength="12.2" clip-path="url(#terminal-2480142954-line-15)">┃</text><text class="terminal-2480142954-r2" x="1464" y="386" textLength="12.2" clip-path="url(#terminal-2480142954-line-15)">
</text><text class="terminal-2480142954-r1" x="0" y="410.4" textLength="12.2" clip-path="url(#terminal-2480142954-line-16)">┃</text><text class="terminal-2480142954-r1" x="36.6" y="410.4" textLength="12.2" clip-path="url(#terminal-2480142954-line-16)">│</text><text class="terminal-2480142954-r1" x="1122.4" y="410.4" textLength="12.2" clip-path="url(#terminal-2480142954-line-16)">│</text><text class="terminal-2480142954-r1" x="1159" y="410.4" textLength="12.2" clip-path="url(#terminal-2480142954-line-16)">┃</text><text class="terminal-2480142954-r2" x="1464" y="410.4" textLength="12.2" clip-path="url(#terminal-2480142954-line-16)">
</text><text class="terminal-2480142954-r1" x="0" y="434.8" textLength="12.2" clip-path="url(#terminal-2480142954-line-17)">┃</text><text class="terminal-2480142954-r1" x="36.6" y="434.8" textLength="12.2" clip-path="url(#terminal-2480142954-line-17)">│</text><text class="terminal-2480142954-r1" x="1122.4" y="434.8" textLength="12.2" clip-path="url(#terminal-2480142954-line-17)">│</text><text class="terminal-2480142954-r1" x="1159" y="434.8" textLength="12.2" clip-path="url(#terminal-2480142954-line-17)">┃</text><text class="terminal-2480142954-r2" x="1464" y="434.8" textLength="12.2" clip-path="url(#terminal-2480142954-line-17)">
</text><text class="terminal-2480142954-r1" x="0" y="459.2" textLength="12.2" clip-path="url(#terminal-2480142954-line-18)">┃</text><text class="terminal-2480142954-r1" x="36.6" y="459.2" textLength="12.2" clip-path="url(#terminal-2480142954-line-18)">│</text><text class="terminal-2480142954-r1" x="1122.4" y="459.2" textLength="12.2" clip-path="url(#terminal-2480142954-line-18)">│</text><text class="terminal-2480142954-r1" x="1159" y="459.2" textLength="12.2" clip-path="url(#terminal-2480142954-line-18)">┃</text><text class="terminal-2480142954-r2" x="1464" y="459.2" textLength="12.2" clip-path="url(#terminal-2480142954-line-18)">
</text><text class="terminal-2480142954-r1" x="0" y="483.6" textLength="12.2" clip-path="url(#terminal-2480142954-line-19)">┃</text><text class="terminal-2480142954-r1" x="36.6" y="483.6" textLength="12.2" clip-path="url(#terminal-2480142954-line-19)">│</text><text class="terminal-2480142954-r1" x="1122.4" y="483.6" textLength="12.2" clip-path="url(#terminal-2480142954-line-19)">│</text><text class="terminal-2480142954-r1" x="1159" y="483.6" textLength="12.2" clip-path="url(#terminal-2480142954-line-19)">┃</text><text class="terminal-2480142954-r2" x="1464" y="483.6" textLength="12.2" clip-path="url(#terminal-2480142954-line-19)">
</text><text class="terminal-2480142954-r1" x="0" y="508" textLength="12.2" clip-path="url(#terminal-2480142954-line-20)">┃</text><text class="terminal-2480142954-r1" x="36.6" y="508" textLength="12.2" clip-path="url(#terminal-2480142954-line-20)">└</text><text class="terminal-2480142954-r1" x="48.8" y="508" textLength="1073.6" clip-path="url(#terminal-2480142954-line-20)">────────────────────────────────────────────────────────────────────────────────────────</text><text class="terminal-2480142954-r1" x="1122.4" y="508" textLength="12.2" clip-path="url(#terminal-2480142954-line-20)">┘</text><text class="terminal-2480142954-r1" x="1159" y="508" textLength="12.2" clip-path="url(#terminal-2480142954-line-20)">┃</text><text class="terminal-2480142954-r2" x="1464" y="508" textLength="12.2" clip-path="url(#terminal-2480142954-line-20)">
</text><text class="terminal-2480142954-r1" x="0" y="532.4" textLength="12.2" clip-path="url(#terminal-2480142954-line-21)">┃</text><text class="terminal-2480142954-r1" x="1159" y="532.4" textLength="12.2" clip-path="url(#terminal-2480142954-line-21)">┃</text><text class="terminal-2480142954-r2" x="1464" y="532.4" textLength="12.2" clip-path="url(#terminal-2480142954-line-21)">
</text><text class="terminal-2480142954-r1" x="0" y="556.8" textLength="12.2" clip-path="url(#terminal-2480142954-line-22)">┃</text><text class="terminal-2480142954-r8" x="48.8" y="556.8" textLength="195.2" clip-path="url(#terminal-2480142954-line-22)">▔▔▔▔▔▔▔▔▔▔▔▔▔▔▔▔</text><text class="terminal-2480142954-r9" x="256.2" y="556.8" textLength="195.2" clip-path="url(#terminal-2480142954-line-22)">▔▔▔▔▔▔▔▔▔▔▔▔▔▔▔▔</text><text class="terminal-2480142954-r1" x="1159" y="556.8" textLength="12.2" clip-path="url(#terminal-2480142954-line-22)">┃</text><text class="terminal-2480142954-r2" x="1464" y="556.8" textLength="12.2" clip-path="url(#terminal-2480142954-line-22)">
</text><text class="terminal-2480142954-r1" x="0" y="581.2" textLength="12.2" clip-path="url(#terminal-2480142954-line-23)">┃</text><text class="terminal-2480142954-r10" x="97.6" y="581.2" textLength="85.4" clip-path="url(#terminal-2480142954-line-23)">&#160;Close&#160;</text><text class="terminal-2480142954-r11" x="292.8" y="581.2" textLength="122" clip-path="url(#terminal-2480142954-line-23)">&#160;Copy&#160;All&#160;</text><text class="terminal-2480142954-r1" x="1159" y="581.2" textLength="12.2" clip-path="url(#terminal-2480142954-line-23)">┃</text><text class="terminal-2480142954-r2" x="1464" y="581.2" textLength="12.2" clip-path="url(#terminal-2480142954-line-23)">
</text><text class="terminal-2480142954-r1" x="0" y="605.6" textLength="12.2" clip-path="url(#terminal-2480142954-line-24)">┃</text><text class="terminal-2480142954-r12" x="48.8" y="605.6" textLength="195.2" clip-path="url(#terminal-2480142954-line-24)">▁▁▁▁▁▁▁▁▁▁▁▁▁▁▁▁</text><text class="terminal-2480142954-r13" x="256.2" y="605.6" textLength="195.2" clip-path="url(#terminal-2480142954-line-24)">▁▁▁▁▁▁▁▁▁▁▁▁▁▁▁▁</text><text class="terminal-2480142954-r1" x="1159" y="605.6" textLength="12.2" clip-path="url(#terminal-2480142954-line-24)">┃</text><text class="terminal-2480142954-r2" x="1464" y="605.6" textLength="12.2" clip-path="url(#terminal-2480142954-line-24)">
</text><text class="terminal-2480142954-r1" x="0" y="630" textLength="12.2" clip-path="url(#terminal-2480142954-line-25)">┃</text><text class="terminal-2480142954-r1" x="1159" y="630" textLength="12.2" clip-path="url(#terminal-2480142954-line-25)">┃</text><text class="terminal-2480142954-r2" x="1464" y="630" textLength="12.2" clip-path="url(#terminal-2480142954-line-25)">
</text><text class="terminal-2480142954-r1" x="0" y="654.4" textLength="12.2" clip-path="url(#terminal-2480142954-line-26)">┗</text><text class="terminal-2480142954-r1" x="12.2" y="654.4" textLength="1146.8" clip-path="url(#terminal-2480142954-line-26)">━━━━━━━━━━━━━━━━━━━━━━━━━━━━━━━━━━━━━━━━━━━━━━━━━━━━━━━━━━━━━━━━━━━━━━━━━━━━━━━━━━━━━━━━━━━━━━</text><text class="terminal-2480142954-r1" x="1159" y="654.4" textLength="12.2" clip-path="url(#terminal-2480142954-line-26)">┛</text><text class="terminal-2480142954-r2" x="1464" y="654.4" textLength="12.2" clip-path="url(#terminal-2480142954-line-26)">
</text><text class="terminal-2480142954-r2" x="1464" y="678.8" textLength="12.2" clip-path="url(#terminal-2480142954-line-27)">
</text><text class="terminal-2480142954-r2" x="1464" y="703.2" textLength="12.2" clip-path="url(#terminal-2480142954-line-28)">
</text><text class="terminal-2480142954-r2" x="1464" y="727.6" textLength="12.2" clip-path="url(#terminal-2480142954-line-29)">
</text><text class="terminal-2480142954-r2" x="1464" y="752" textLength="12.2" clip-path="url(#terminal-2480142954-line-30)">
</text><text class="terminal-2480142954-r2" x="1464" y="776.4" textLength="12.2" clip-path="url(#terminal-2480142954-line-31)">
</text><text class="terminal-2480142954-r2" x="1464" y="800.8" textLength="12.2" clip-path="url(#terminal-2480142954-line-32)">
</text>
    </g>
    </g>
</svg>
